<svg xmlns="http://www.w3.org/2000/svg" width="30" height="30">
  <path fill="#e59d4b" d="M4.594 20.442h1.7c0-2.061 2.533-4.594 4.594-4.594h3.268v3.267c0 2.061-2.534 4.594-4.595 4.594v1.7c2.061 0 4.595 2.534 4.595 4.595h1.7c0-2.061 2.534-4.595 4.595-4.595v-1.7c-2.061 0-4.595-2.533-4.595-4.594v-3.267h3.268c2.061 0 4.594 2.533 4.594 4.594h1.7c0-2.061 2.533-4.594 4.595-4.594v-1.7c-2.061 0-4.595-2.534-4.595-4.595h-1.7c0 2.061-2.533 4.595-4.594 4.595h-3.276v-3.263c0-2.061 2.534-4.594 4.595-4.594v-1.7c-2.061 0-4.595-2.533-4.595-4.594h-1.7c0 2.061-2.534 4.594-4.595 4.594v1.7c2.061 0 4.595 2.533 4.595 4.594v3.268h-3.264c-2.061 0-4.594-2.534-4.594-4.595h-1.7c0 2.061-2.533 4.595-4.594 4.595v1.7c2.061 0 4.594 2.533 4.594 4.594" data-name="패스 51"/>
</svg>
