<svg width="64" height="54" viewBox="0 0 64 54" fill="none" xmlns="http://www.w3.org/2000/svg">
<path d="M41.3707 38.9699L34.722 32.3203C34.3079 31.8843 34.0804 31.3038 34.0881 30.7025C34.0958 30.1012 34.3381 29.5267 34.7632 29.1015C35.1884 28.6763 35.7628 28.434 36.364 28.4263C36.9652 28.4186 37.5456 28.6461 37.9815 29.0603L44.6302 35.71L48.1952 32.1445L24.5026 8.44842C22.3256 6.3366 19.4055 5.1658 16.3728 5.18882C13.3402 5.21183 10.4382 6.42682 8.29349 8.57143C6.14881 10.7161 4.93349 13.6182 4.90994 16.6514C4.88639 19.6845 6.05651 22.6052 8.16764 24.7829L31.8602 48.4818L35.6068 44.7347L28.9581 38.085C28.544 37.6491 28.3165 37.0686 28.3242 36.4673C28.3319 35.866 28.5741 35.2915 28.9993 34.8663C29.4244 34.4411 29.9989 34.1988 30.6001 34.1911C31.2013 34.1834 31.7817 34.4109 32.2176 34.8251L38.8663 41.4747L41.3707 38.9699ZM33.3531 53.4107C32.9139 53.8046 32.3405 54.0152 31.7508 53.9991C31.1611 53.9831 30.6 53.7415 30.1829 53.3242L4.90814 28.0457C3.37002 26.5533 2.14402 24.7698 1.30148 22.7991C0.458942 20.8283 0.0166924 18.7097 0.000463482 16.5664C-0.0157654 14.4231 0.394351 12.298 1.20695 10.3147C2.01955 8.33145 3.2184 6.5296 4.73375 5.01403C6.2491 3.49846 8.05068 2.29943 10.0337 1.48672C12.0167 0.674 14.1415 0.263823 16.2844 0.280054C18.4274 0.296286 20.5457 0.7386 22.5162 1.58126C24.4866 2.42392 26.2699 3.6501 27.7621 5.18845L31.8602 9.28431L36.2379 4.90886C37.7301 3.37051 39.5134 2.14433 41.4838 1.30167C43.4543 0.459009 45.5726 0.0166948 47.7156 0.00046355C49.8585 -0.0157677 51.9833 0.394408 53.9663 1.20712C55.9493 2.01984 57.7509 3.21887 59.2663 4.73444C60.7816 6.25001 61.9805 8.05186 62.7931 10.0351C63.6057 12.0184 64.0158 14.1435 63.9995 16.2868C63.9833 18.4301 63.5411 20.5487 62.6985 22.5195C61.856 24.4902 60.63 26.2737 59.0919 27.7661L33.8228 53.0388C33.6812 53.1815 33.5236 53.3072 33.3531 53.4135V53.4107ZM35.1226 12.5472L51.4547 28.8816L55.8352 24.5062C58.0014 22.3393 59.2182 19.4006 59.2179 16.3365C59.2176 13.2724 58.0003 10.3339 55.8338 8.16739C53.6673 6.00093 50.729 4.78397 47.6653 4.78424C44.6016 4.78451 41.6636 6.00199 39.4974 8.16883L35.1255 12.5443L35.1226 12.5472Z" fill="url(#paint0_linear_2794_481)"/>
<defs>
<linearGradient id="paint0_linear_2794_481" x1="32" y1="0" x2="32" y2="54" gradientUnits="userSpaceOnUse">
<stop stop-color="#A5FFBE"/>
<stop offset="1" stop-color="#FDFFAC"/>
</linearGradient>
</defs>
</svg>
