<svg xmlns="http://www.w3.org/2000/svg" width="47.609" height="52">
  <g fill="none" stroke="#e59d4b" stroke-linecap="round" stroke-linejoin="round" stroke-width="2" data-name="그룹 38">
    <path d="M28.787 7.865A53.922 53.922 0 0 1 31.558 26c0 13.807-3.981 25-8.892 25s-8.892-11.193-8.892-25 3.981-25 8.892-25a4.619 4.619 0 0 1 3.42 1.916" data-name="패스 111"/>
    <path d="M3.209 40.782a3.664 3.664 0 0 1-1.631-1.356c-2.639-4.143 4.666-13.512 16.313-20.927s23.227-10.068 25.864-5.927-4.666 13.514-16.316 20.929c-6.836 4.352-13.649 7.064-18.644 7.724" data-name="패스 112"/>
    <path d="M42.639 32.617c-2.6-4.347-8.09-9.6-15.193-14.118-11.65-7.416-23.23-10.069-25.868-5.927s4.666 13.514 16.314 20.929 23.226 10.071 25.864 5.925a3.456 3.456 0 0 0 .5-1.439" data-name="패스 113"/>
    <path d="M30.441 5.293a2.827 2.827 0 1 1-2.827-2.827 2.827 2.827 0 0 1 2.827 2.827Z" data-name="패스 115"/>
    <path d="M46.609 35.202a2.827 2.827 0 1 1-2.822-2.827 2.827 2.827 0 0 1 2.822 2.827Z" data-name="패스 116"/>
    <path d="M8.803 41.362a2.827 2.827 0 1 1-2.827-2.827 2.827 2.827 0 0 1 2.827 2.827Z" data-name="패스 117"/>
  </g>
  <path fill="#e59d4b" d="M19.57 27.814h.569a1.792 1.792 0 0 1 1.528-1.531h1.089v1.089a1.792 1.792 0 0 1-1.531 1.528v.565A1.792 1.792 0 0 1 22.756 31h.565a1.792 1.792 0 0 1 1.532-1.532V28.9a1.792 1.792 0 0 1-1.531-1.528v-1.089h1.089a1.792 1.792 0 0 1 1.528 1.531h.565a1.791 1.791 0 0 1 1.535-1.531v-.566a1.792 1.792 0 0 1-1.532-1.531h-.568a1.792 1.792 0 0 1-1.528 1.531h-1.089v-1.089a1.792 1.792 0 0 1 1.531-1.528v-.568A1.792 1.792 0 0 1 23.322 21h-.566a1.792 1.792 0 0 1-1.531 1.532v.568a1.792 1.792 0 0 1 1.531 1.528v1.089h-1.089a1.792 1.792 0 0 1-1.528-1.531h-.569a1.792 1.792 0 0 1-1.531 1.531v.565a1.792 1.792 0 0 1 1.531 1.532" data-name="패스 118"/>
</svg>
