<svg xmlns="http://www.w3.org/2000/svg" width="26.25" height="30">
  <path fill="#e59d4b" fill-rule="evenodd" d="M23.175 0a3.082 3.082 0 0 1 3.075 3.09V30l-3.225-2.85-1.815-1.68-1.92-1.785.8 2.775H3.075A3.082 3.082 0 0 1 0 23.37V3.09A3.082 3.082 0 0 1 3.075 0h20.1m-5.79 19.59a5.483 5.483 0 0 0 4.59-2.28 20.087 20.087 0 0 0-2.16-8.745A7.418 7.418 0 0 0 15.6 6.99l-.21.24a9.983 9.983 0 0 1 3.735 1.905A12.227 12.227 0 0 0 14.61 7.7a12.692 12.692 0 0 0-3.03.03l-.255.03a11.264 11.264 0 0 0-3.405.94c-.555.255-.885.435-.885.435A10.12 10.12 0 0 1 10.98 7.17l-.15-.18a7.418 7.418 0 0 0-4.215 1.575 20.087 20.087 0 0 0-2.16 8.745 5.439 5.439 0 0 0 4.575 2.28s.555-.675 1.005-1.245a4.665 4.665 0 0 1-2.625-1.77l.42.255.06.045.059.034.017.007.059.034a8.791 8.791 0 0 0 1.1.51 12.592 12.592 0 0 0 2.205.645 10.508 10.508 0 0 0 3.885.015 9.873 9.873 0 0 0 2.175-.645 8.584 8.584 0 0 0 1.725-.885 4.733 4.733 0 0 1-2.715 1.785c.45.57.99 1.215.99 1.215m-6.98-7.005a1.671 1.671 0 0 0 0 3.33 1.6 1.6 0 0 0 1.53-1.665 1.588 1.588 0 0 0-1.53-1.665m5.475 0a1.671 1.671 0 1 0 1.53 1.665 1.6 1.6 0 0 0-1.53-1.665"/>
</svg>
