<svg xmlns="http://www.w3.org/2000/svg" width="30.758" height="30">
  <path fill="#e59d4b" d="M15.379 0a15.381 15.381 0 0 0-4.861 29.973c.768.142 1.016-.334 1.016-.739V26.37c-4.278.93-5.169-1.815-5.169-1.815A4.073 4.073 0 0 0 4.657 22.3c-1.4-.955.106-.934.106-.934a3.228 3.228 0 0 1 2.357 1.585 3.274 3.274 0 0 0 4.48 1.283 3.263 3.263 0 0 1 .977-2.056c-3.415-.391-7.007-1.71-7.007-7.6a5.952 5.952 0 0 1 1.58-4.129 5.532 5.532 0 0 1 .15-4.07s1.292-.413 4.231 1.576a14.577 14.577 0 0 1 7.7 0c2.936-1.989 4.225-1.576 4.225-1.576a5.527 5.527 0 0 1 .151 4.07 5.936 5.936 0 0 1 1.583 4.128c0 5.907-3.6 7.208-7.022 7.588a3.676 3.676 0 0 1 1.055 2.848v4.22c0 .409.246.889 1.027.738A15.382 15.382 0 0 0 15.379 0"/>
</svg>
