<svg xmlns="http://www.w3.org/2000/svg" width="82" height="82.001">
  <g fill="none" stroke="#e59d4b" stroke-linecap="round" stroke-linejoin="round" stroke-width="2" data-name="그룹 37" transform="translate(1 1)">
    <path d="M80 40A40 40 0 1 1 40 0a40 40 0 0 1 40 40Z" data-name="패스 110"/>
    <circle cx="30.964" cy="30.964" r="30.964" data-name="타원 65" transform="translate(9.036 9.036)"/>
    <path d="M40 9.036V0" data-name="선 70"/>
    <path d="M40 70.964V80" data-name="선 71"/>
    <path d="M70.964 40H80" data-name="선 72"/>
    <path d="M9.036 40H0" data-name="선 73"/>
    <path d="m61.895 18.105 6.389-6.389" data-name="선 74"/>
    <path d="m18.105 61.895-6.389 6.389" data-name="선 75"/>
    <path d="m68.616 28.173 8.35-3.452" data-name="선 76"/>
    <path d="m11.384 51.828-8.35 3.452" data-name="선 77"/>
    <path d="m11.384 28.173-8.35-3.452" data-name="선 78"/>
    <path d="m68.616 51.828 8.35 3.452" data-name="선 79"/>
    <path d="m18.105 18.105-6.389-6.389" data-name="선 80"/>
    <path d="m61.895 61.895 6.389 6.389" data-name="선 81"/>
    <path d="m27.416 11.709-3.673-8.256" data-name="선 82"/>
    <path d="m52.584 68.291 3.673 8.256" data-name="선 83"/>
    <path d="m52.584 11.709 3.673-8.256" data-name="선 84"/>
    <path d="m27.416 68.291-3.673 8.256" data-name="선 85"/>
  </g>
  <path fill="#e59d4b" d="M24.351 49.708h2.713c0-3.3 4.053-7.351 7.351-7.351h5.228v5.228c0 3.3-4.054 7.351-7.351 7.351v2.713c3.3 0 7.351 4.054 7.351 7.352h2.713c0-3.3 4.054-7.352 7.351-7.352v-2.713c-3.3 0-7.351-4.053-7.351-7.351v-5.228h5.228c3.3 0 7.351 4.053 7.351 7.351h2.713c0-3.3 4.053-7.351 7.351-7.351v-2.713c-3.3 0-7.351-4.054-7.351-7.352h-2.712c0 3.3-4.053 7.352-7.351 7.352h-5.229v-5.228c0-3.3 4.054-7.351 7.351-7.351v-2.714c-3.3 0-7.351-4.053-7.351-7.351h-2.712c0 3.3-4.054 7.351-7.351 7.351v2.713c3.3 0 7.351 4.053 7.351 7.351v5.228h-5.229c-3.3 0-7.351-4.054-7.351-7.352h-2.713c0 3.3-4.053 7.352-7.351 7.352v2.713c3.3 0 7.351 4.053 7.351 7.351" data-name="패스 71"/>
</svg>