<svg xmlns="http://www.w3.org/2000/svg" width="47.547" height="50">
  <defs>
    <clipPath id="a">
      <path fill="none" stroke="#e59d4b" stroke-width="2" d="M0 0h47.547v50H0z" data-name="사각형 68"/>
    </clipPath>
  </defs>
  <g data-name="그룹 40">
    <g fill="none" stroke="#e59d4b" stroke-linejoin="round" stroke-width="2" clip-path="url(#a)" data-name="그룹 39">
      <path d="M44.476 13.492H3.07V9.955a1.314 1.314 0 0 1 .838-1.225L23.773.992l19.866 7.737a1.314 1.314 0 0 1 .838 1.225Z" data-name="패스 119"/>
      <path d="M6.427 17.138h5.434v24.275H6.427z" data-name="사각형 62"/>
      <path d="M35.687 17.138h5.434v24.275h-5.434z" data-name="사각형 63"/>
      <path d="M4.467 13.494h9.353v3.645H4.467z" data-name="사각형 64"/>
      <path d="M4.467 41.413h9.353v3.645H4.467z" data-name="사각형 65"/>
      <path d="M33.727 13.494h9.353v3.645h-9.353z" data-name="사각형 66"/>
      <path d="M33.727 41.413h9.353v3.645h-9.353z" data-name="사각형 67"/>
      <path d="M46.556 49.008H.992v-2.36a1.591 1.591 0 0 1 1.59-1.59h42.383a1.591 1.591 0 0 1 1.59 1.59Z" data-name="패스 120"/>
      <circle cx="2.409" cy="2.409" r="2.409" data-name="타원 66" transform="translate(21.365 5.335)"/>
    </g>
  </g>
  <path fill="#e59d4b" d="M17.247 32.152h1.06a3.359 3.359 0 0 1 2.868-2.872h2.045v2.042a3.359 3.359 0 0 1-2.872 2.872v1.06a3.359 3.359 0 0 1 2.872 2.871h1.055a3.359 3.359 0 0 1 2.872-2.872v-1.06a3.359 3.359 0 0 1-2.872-2.871V29.28h2.042a3.359 3.359 0 0 1 2.872 2.872h1.06a3.359 3.359 0 0 1 2.876-2.872v-1.06a3.359 3.359 0 0 1-2.872-2.872h-1.06a3.359 3.359 0 0 1-2.872 2.872h-2.046v-2.045a3.359 3.359 0 0 1 2.872-2.872v-1.056a3.359 3.359 0 0 1-2.872-2.872H23.22a3.359 3.359 0 0 1-2.871 2.872v1.06a3.359 3.359 0 0 1 2.871 2.868v2.045h-2.045a3.359 3.359 0 0 1-2.869-2.871h-1.059a3.359 3.359 0 0 1-2.872 2.871v1.06a3.359 3.359 0 0 1 2.872 2.872" data-name="패스 118"/>
</svg>
