<svg xmlns="http://www.w3.org/2000/svg" width="52" height="52">
  <g fill="none" stroke="#e59d4b" stroke-linecap="round" stroke-linejoin="round" stroke-width="2" data-name="그룹 36">
    <path d="M33.896 25.996a7.9 7.9 0 1 1-7.9-7.9 7.9 7.9 0 0 1 7.9 7.9Z" data-name="패스 100"/>
    <path d="M37.83 26A11.83 11.83 0 1 1 26 14.17 11.83 11.83 0 0 1 37.83 26Z" data-name="패스 101"/>
    <path d="M26 14.17V7.958" data-name="선 62"/>
    <path d="M29.479 4.479A3.479 3.479 0 1 1 26 1a3.479 3.479 0 0 1 3.479 3.479Z" data-name="패스 102"/>
    <path d="M26 37.83v6.212" data-name="선 63"/>
    <path d="M22.521 47.521A3.479 3.479 0 1 1 26 51a3.479 3.479 0 0 1-3.479-3.479Z" data-name="패스 103"/>
    <path d="M37.83 26h6.212" data-name="선 64"/>
    <path d="M47.521 29.479A3.479 3.479 0 1 1 51 26a3.479 3.479 0 0 1-3.479 3.479Z" data-name="패스 104"/>
    <path d="M14.17 26H7.958" data-name="선 65"/>
    <path d="M4.479 22.521A3.479 3.479 0 1 1 1 26a3.479 3.479 0 0 1 3.479-3.479Z" data-name="패스 105"/>
    <path d="m34.365 17.635 4.393-4.393" data-name="선 66"/>
    <path d="M43.678 13.242a3.479 3.479 0 1 1 0-4.921 3.479 3.479 0 0 1 0 4.921Z" data-name="패스 106"/>
    <path d="m17.636 34.365-4.393 4.393" data-name="선 67"/>
    <path d="M8.322 38.757a3.479 3.479 0 1 1 0 4.921 3.479 3.479 0 0 1 0-4.921Z" data-name="패스 107"/>
    <path d="m34.365 34.365 4.393 4.393" data-name="선 68"/>
    <path d="M38.757 43.677a3.479 3.479 0 1 1 4.921 0 3.479 3.479 0 0 1-4.921 0Z" data-name="패스 108"/>
    <path d="m17.636 17.635-4.393-4.393" data-name="선 69"/>
    <path d="M13.242 8.321a3.479 3.479 0 1 1-4.921 0 3.479 3.479 0 0 1 4.921 0Z" data-name="패스 109"/>
  </g>
  <path fill="#e59d4b" d="M22.531 27.814h.569a1.792 1.792 0 0 1 1.528-1.531h1.089v1.089a1.792 1.792 0 0 1-1.531 1.528v.565A1.792 1.792 0 0 1 25.717 31h.565a1.792 1.792 0 0 1 1.532-1.532V28.9a1.792 1.792 0 0 1-1.531-1.528v-1.089h1.089a1.792 1.792 0 0 1 1.528 1.531h.565A1.792 1.792 0 0 1 31 26.283v-.566a1.792 1.792 0 0 1-1.532-1.531H28.9a1.792 1.792 0 0 1-1.528 1.531h-1.089v-1.089a1.792 1.792 0 0 1 1.531-1.528v-.568A1.792 1.792 0 0 1 26.283 21h-.566a1.792 1.792 0 0 1-1.531 1.532v.568a1.792 1.792 0 0 1 1.531 1.528v1.089h-1.089a1.792 1.792 0 0 1-1.528-1.531h-.569A1.792 1.792 0 0 1 21 25.717v.565a1.792 1.792 0 0 1 1.531 1.532" data-name="패스 71"/>
</svg>
