<svg width="419" height="64" viewBox="0 0 419 64" fill="none" xmlns="http://www.w3.org/2000/svg">
<g filter="url(#filter0_b_1732_22)">
<path d="M26.4847 12.8907C32.091 4.8159 41.2975 0 51.1276 0H408.883C416.956 0 421.701 9.07194 417.097 15.7031L392.515 51.1093C386.909 59.1841 377.703 64 367.872 64H10.1168C2.04411 64 -2.70144 54.9281 1.90252 48.2969L26.4847 12.8907Z" fill="url(#paint0_linear_1732_22)"/>
<path d="M26.8954 13.1758C32.4082 5.23563 41.4613 0.5 51.1276 0.5H408.883C416.552 0.5 421.061 9.11834 416.687 15.418L392.105 50.8242C386.592 58.7644 377.539 63.5 367.872 63.5H10.1168C2.44774 63.5 -2.06052 54.8817 2.31323 48.5821L26.8954 13.1758Z" stroke="url(#paint1_linear_1732_22)"/>
</g>
<defs>
<filter id="filter0_b_1732_22" x="-13.9005" y="-14" width="446.801" height="92" filterUnits="userSpaceOnUse" color-interpolation-filters="sRGB">
<feFlood flood-opacity="0" result="BackgroundImageFix"/>
<feGaussianBlur in="BackgroundImageFix" stdDeviation="7"/>
<feComposite in2="SourceAlpha" operator="in" result="effect1_backgroundBlur_1732_22"/>
<feBlend mode="normal" in="SourceGraphic" in2="effect1_backgroundBlur_1732_22" result="shape"/>
</filter>
<linearGradient id="paint0_linear_1732_22" x1="0.528279" y1="0.831177" x2="265.241" y2="202.113" gradientUnits="userSpaceOnUse">
<stop stop-color="#29873E"/>
<stop offset="0.544801" stop-color="#17231E" stop-opacity="0.26"/>
<stop offset="1" stop-color="#735B08"/>
</linearGradient>
<linearGradient id="paint1_linear_1732_22" x1="194.167" y1="-34.6667" x2="270.413" y2="120.792" gradientUnits="userSpaceOnUse">
<stop stop-color="#A5FFBE"/>
<stop offset="0.361576" stop-color="#1D9781" stop-opacity="0"/>
<stop offset="1" stop-color="#FDFFAC"/>
</linearGradient>
</defs>
</svg>
