<svg width="285" height="50" viewBox="0 0 285 50" fill="none" xmlns="http://www.w3.org/2000/svg">
<g filter="url(#filter0_b_3711_2368)">
<path d="M10.6462 15.2315C14.2525 6.0433 23.1165 0 32.9871 0H276.698C282.216 0 286.077 5.45511 284.243 10.6595L275.082 36.6488C272.262 44.649 264.702 50 256.219 50H8.73403C3.09648 50 -0.772616 44.325 1.28709 39.0772L10.6462 15.2315Z" fill="url(#paint0_linear_3711_2368)"/>
<path d="M11.1117 15.4142C14.6428 6.4174 23.3222 0.5 32.9871 0.5H276.698C281.871 0.5 285.491 5.61417 283.771 10.4933L274.61 36.4826C271.861 44.2827 264.49 49.5 256.219 49.5H8.73403C3.44882 49.5 -0.178451 44.1797 1.75253 39.2598L11.1117 15.4142Z" stroke="url(#paint1_linear_3711_2368)"/>
</g>
<defs>
<filter id="filter0_b_3711_2368" x="-13.2734" y="-14" width="311.978" height="78" filterUnits="userSpaceOnUse" color-interpolation-filters="sRGB">
<feFlood flood-opacity="0" result="BackgroundImageFix"/>
<feGaussianBlur in="BackgroundImageFix" stdDeviation="7"/>
<feComposite in2="SourceAlpha" operator="in" result="effect1_backgroundBlur_3711_2368"/>
<feBlend mode="normal" in="SourceGraphic" in2="effect1_backgroundBlur_3711_2368" result="shape"/>
</filter>
<linearGradient id="paint0_linear_3711_2368" x1="1.20815" y1="0.649343" x2="237.174" y2="82.4834" gradientUnits="userSpaceOnUse">
<stop stop-color="#298765"/>
<stop offset="0.544801" stop-color="#17231E" stop-opacity="0.26"/>
<stop offset="1" stop-color="#732F08"/>
</linearGradient>
<linearGradient id="paint1_linear_3711_2368" x1="-3" y1="6.81818" x2="145.407" y2="82.7596" gradientUnits="userSpaceOnUse">
<stop stop-color="#1DBA9E"/>
<stop offset="0.447917" stop-color="#1B473F"/>
<stop offset="0.979167" stop-color="#E1A974"/>
</linearGradient>
</defs>
</svg>
