<svg id="Layer_1" data-name="Layer 1" xmlns="http://www.w3.org/2000/svg" viewBox="0 0 200 200"><defs><style>.cls-1,.cls-6{fill:#190232;}.cls-2{fill:#2b2063;}.cls-3,.cls-7{fill:#3c17b8;}.cls-4{fill:#aa5eff;}.cls-5{fill:#ef9bc8;}.cls-5,.cls-6,.cls-7{fill-rule:evenodd;}</style></defs><title>RAI.finance Logo_VF</title><path class="cls-1" d="M120.85,27.45l20.76,8L159.17,76l-12.11,64L93.89,174.09l-27-10.55L18,117.66l11.56-65L72.13,25.91l48.72,1.54ZM82,72.67,72.52,93.12l15.61,10.55,16.76-6.12-.59-19.89L82,72.67Z"/><polygon class="cls-2" points="29.6 52.68 45.2 62.07 62.01 52.72 86.35 31.83 72.13 25.91 29.6 52.68 29.6 52.68"/><path class="cls-3" d="M142.63,36.74,182,86.53l-12.85,67.91L93.89,174.09,35.31,121.77l9.89-59.7,44-27.66,2.07-.56,50.39,1.59,1,1.3Zm31.58,51.78L137.93,42.58,92,41.14,51.83,66.42l-8.7,52.52L95.91,166.1l66.94-17.49,11.36-60.09Zm-71.28-.1-6.91,15,11.57,7.82,12.51-4.57-.42-14.46-16.75-3.74ZM88.15,103.21,98.86,80.06l27.9,6.23.75,25.31-21,7.67L86.86,106l1.29-2.79Z"/><path class="cls-4" d="M139.77,39l38.31,48.52-12.1,64L94.9,170.09,39.22,120.35l9.3-56.1L91.05,37.48,139.77,39ZM100.9,84.24l-9.46,20.44,15.61,10.55,16.76-6.12-.59-19.89-22.32-5Z"/><polygon class="cls-5" points="91.35 104.69 107.17 119.03 124.13 108.96 123.8 108.92 123.81 109.11 107.05 115.23 91.47 104.7 91.35 104.69 91.35 104.69"/><polygon class="cls-5" points="77.31 46.12 97.68 41.63 136.03 45.59 174.21 88.69 173.09 113.95 178.08 87.53 139.77 39.01 91.05 37.48 77.31 46.12 77.31 46.12"/><path class="cls-6" d="M60,70.45A11.85,11.85,0,0,0,65.4,74c4.31,1.48,8.65-.1,9.18-1.82.33-1.08,2.48-5.53-2.5-7.24-3.31-1.14-12.16.73-12.69,2.46s0,2,.63,3.08Z"/><path class="cls-5" d="M60.15,71.58a12,12,0,0,0,5.38,3.53c4.31,1.47,8.66-.1,9.19-1.83.33-1.08,2.47-5.53-2.5-7.24-3.32-1.13-12.16.73-12.69,2.46s-.05,2,.62,3.08Z"/><path class="cls-7" d="M59.88,71a12,12,0,0,0,5.38,3.52c4.31,1.48,8.66-.1,9.18-1.82.33-1.08,2.48-5.53-2.49-7.24-3.32-1.14-12.17.73-12.7,2.46s0,2,.63,3.08Z"/><path class="cls-6" d="M147.38,101a12.47,12.47,0,0,0,5.65,3.71c4.53,1.55,9.09-.11,9.65-1.92.35-1.14,2.6-5.82-2.62-7.61-3.49-1.2-12.79.77-13.35,2.58s0,2.14.67,3.24Z"/><path class="cls-5" d="M147.52,102.22a12.52,12.52,0,0,0,5.65,3.71c4.53,1.55,9.1-.11,9.65-1.92.35-1.14,2.61-5.82-2.62-7.61-3.48-1.19-12.79.77-13.34,2.58s-.05,2.15.66,3.24Z"/><path class="cls-7" d="M147.23,101.65a12.5,12.5,0,0,0,5.66,3.71c4.52,1.55,9.09-.11,9.65-1.92.34-1.14,2.6-5.81-2.62-7.61-3.49-1.19-12.79.77-13.35,2.58s0,2.14.66,3.24Z"/><path class="cls-6" d="M112.24,160a20.55,20.55,0,0,1-9.55,2.11c-7,0-12.66-3.81-12.62-6.19,0-1.48-1-7.95,7.07-8,5.4,0,17.52,6.09,17.48,8.46s-.89,2.57-2.38,3.58Z"/><path class="cls-5" d="M111.51,161.39a20.62,20.62,0,0,1-9.56,2.1c-7,0-12.66-3.8-12.62-6.18,0-1.49-1-8,7.07-8,5.41,0,17.52,6.09,17.48,8.47s-.89,2.56-2.37,3.58Z"/><path class="cls-7" d="M112.16,160.83a20.58,20.58,0,0,1-9.55,2.1c-7,0-12.66-3.8-12.62-6.18,0-1.49-1-8,7.07-8,5.4,0,17.52,6.09,17.48,8.47s-.89,2.56-2.38,3.58Z"/><path class="cls-6" d="M108,137.46a13,13,0,0,1-4.67,2.32c-3.42,1-6.17-.12-6.15-1.27,0-.72-.51-3.71,3.45-4.82,2.64-.74,8.55.56,8.53,1.72s-.44,1.36-1.16,2.05Z"/><path class="cls-5" d="M107.65,138.22a13.21,13.21,0,0,1-4.66,2.32c-3.43,1-6.18-.12-6.16-1.27,0-.73-.51-3.71,3.45-4.82,2.64-.74,8.55.56,8.53,1.71s-.44,1.37-1.16,2.06Z"/><path class="cls-7" d="M108,137.86a13.21,13.21,0,0,1-4.66,2.32c-3.43,1-6.18-.12-6.16-1.28,0-.72-.51-3.7,3.45-4.81,2.63-.74,8.55.56,8.53,1.71s-.44,1.36-1.16,2.06Z"/><path class="cls-6" d="M126.36,146.42a9.69,9.69,0,0,1-4.11,1.52c-2.84.37-4.69-1.19-4.41-2.34.17-.73.47-3.81,3.75-4.24,2.19-.28,6.41,2,6.13,3.2a2.68,2.68,0,0,1-1.36,1.86Z"/><path class="cls-5" d="M125.91,147.11a9.7,9.7,0,0,1-4.1,1.53c-2.85.37-4.7-1.19-4.42-2.35.17-.72.47-3.8,3.75-4.23,2.19-.29,6.41,2,6.13,3.2a2.64,2.64,0,0,1-1.36,1.85Z"/><path class="cls-7" d="M126.24,146.81a9.69,9.69,0,0,1-4.11,1.52c-2.84.37-4.69-1.19-4.41-2.34.17-.72.47-3.81,3.75-4.24,2.19-.28,6.41,2,6.13,3.2a2.68,2.68,0,0,1-1.36,1.86Z"/><path class="cls-3" d="M171.31,123.15c-3.24,3.34-4.24,6.17-9.18,8.67a15.91,15.91,0,0,1-10.8,1.41l-6.72,2.43s.82-.3,13.25.66c2.77.2,8.35-.2,10.66.5.86.26-.66,3.79-.12,3.56,1.78-.74,1.65-4,2.15-5.3a17.4,17.4,0,0,0,.81-6.55l-.05-5.38Z"/><path class="cls-5" d="M166.2,142.92s1.38-5.14,1.1-5.18S144,136.9,144,136.9l21.59,2.38.57,3.64Z"/><path class="cls-3" d="M47.73,66.32c-1.22,2.28-.7,8,5.82,12.15,7,4.47,18.18,4.8,20.56,4.58l9.45,4.11s-1.14-.51-21.92.53C57,87.89,48.2,87,44,88.07c-1.55.38-1.22,6-1.95,5.65-2.46-1.24-.29-6.36-.29-8.49,0-4.66,2.6-17.15,2.61-17.15l3.35-1.76Z"/><path class="cls-5" d="M44.1,97.81s.86-8.19,1.34-8.23,38.31-.44,38.31-.44L47.22,92.08,44.1,97.81Z"/></svg>