<svg width="78" height="78" viewBox="0 0 78 78" fill="none" xmlns="http://www.w3.org/2000/svg">
<path d="M39 76.5C59.7107 76.5 76.5 59.7107 76.5 39C76.5 18.2893 59.7107 1.5 39 1.5C18.2893 1.5 1.5 18.2893 1.5 39C1.5 59.7107 18.2893 76.5 39 76.5Z" fill="black" fill-opacity="0.2" stroke="url(#paint0_linear_1715_445)" stroke-width="3"/>
<path fill-rule="evenodd" clip-rule="evenodd" d="M37.2149 20.0354L56.808 31.3474L56.7766 44.3288L30.9287 53.5475L25.9884 26.5532L37.2149 20.0354Z" stroke="url(#paint1_linear_1715_445)" stroke-width="3" stroke-linecap="round" stroke-linejoin="round"/>
<path d="M37.215 20.0354L30.9288 53.5475L56.808 31.3475" stroke="url(#paint2_linear_1715_445)" stroke-width="3" stroke-linecap="round" stroke-linejoin="round"/>
<path d="M25.9883 26.5532L56.7766 44.3288" stroke="url(#paint3_linear_1715_445)" stroke-width="3" stroke-linecap="round" stroke-linejoin="round"/>
<path d="M35.0848 31.805L47.0114 25.6914L47.6801 39.077" stroke="url(#paint4_linear_1715_445)" stroke-width="3" stroke-linecap="round" stroke-linejoin="round"/>
<defs>
<linearGradient id="paint0_linear_1715_445" x1="36.4737" y1="-36" x2="95.9553" y2="-18.2385" gradientUnits="userSpaceOnUse">
<stop stop-color="#A5FFBE"/>
<stop offset="0.361576" stop-color="#1D9781" stop-opacity="0"/>
<stop offset="1" stop-color="#FDFFAC"/>
</linearGradient>
<linearGradient id="paint1_linear_1715_445" x1="23.3586" y1="31.108" x2="54.1469" y2="48.8837" gradientUnits="userSpaceOnUse">
<stop stop-color="#A5FFBE"/>
<stop offset="1" stop-color="#89EB5B"/>
</linearGradient>
<linearGradient id="paint2_linear_1715_445" x1="28.9563" y1="34.3398" x2="48.5494" y2="45.6519" gradientUnits="userSpaceOnUse">
<stop stop-color="#A5FFBE"/>
<stop offset="1" stop-color="#89EB5B"/>
</linearGradient>
<linearGradient id="paint3_linear_1715_445" x1="25.7315" y1="26.9979" x2="56.5198" y2="44.7736" gradientUnits="userSpaceOnUse">
<stop stop-color="#A5FFBE"/>
<stop offset="1" stop-color="#89EB5B"/>
</linearGradient>
<linearGradient id="paint4_linear_1715_445" x1="37.8232" y1="27.062" x2="50.4185" y2="34.3339" gradientUnits="userSpaceOnUse">
<stop stop-color="#A5FFBE"/>
<stop offset="1" stop-color="#89EB5B"/>
</linearGradient>
</defs>
</svg>
