<svg width="10" height="12" viewBox="0 0 10 12" fill="none" xmlns="http://www.w3.org/2000/svg">
<path d="M9.35742 10.7148C9.71231 10.7148 10 11.0025 10 11.3574C10 11.7123 9.71231 12 9.35742 12H0.642582C0.287694 12 0 11.7123 0 11.3574C0 11.0025 0.287694 10.7148 0.642582 10.7148H9.35742ZM5.05333 0C5.39851 0 5.67833 0.279822 5.67833 0.625V6.77624L7.84653 4.54634C8.09513 4.29067 8.50574 4.29063 8.75438 4.54627C8.99342 4.79204 8.99343 5.18341 8.7544 5.42919L5.77601 8.49167C5.38337 8.8954 4.73494 8.89542 4.34228 8.49171L1.36401 5.42965C1.12474 5.18365 1.12483 4.79187 1.36421 4.54599C1.613 4.29045 2.02359 4.29053 2.27227 4.54617L4.42833 6.76253V0.625C4.42833 0.279822 4.70816 0 5.05333 0Z" fill="white"/>
</svg>
