<svg width="45" height="46" viewBox="0 0 45 46" fill="none" xmlns="http://www.w3.org/2000/svg">
<path d="M5.625 0.39209C4.13316 0.39209 2.70242 0.98477 1.64752 2.03975C0.592632 3.09472 0 4.52558 0 6.01754V10.4917C0 12.4418 1.0125 14.2495 2.66625 15.2733L17.1637 24.2365C14.9586 25.4247 13.2131 27.3149 12.2038 29.6076C11.1944 31.9002 10.979 34.4642 11.5917 36.8931C12.2044 39.322 13.6101 41.477 15.586 43.0166C17.562 44.5561 19.9952 45.3921 22.5 45.3921C25.0048 45.3921 27.438 44.5561 29.414 43.0166C31.3899 41.477 32.7956 39.322 33.4083 36.8931C34.021 34.4642 33.8056 31.9002 32.7962 29.6076C31.7869 27.3149 30.0414 25.4247 27.8363 24.2365L42.3337 15.2733C43.1486 14.7693 43.8212 14.0655 44.2878 13.2287C44.7544 12.3919 44.9995 11.4498 45 10.4917V6.01754C45 4.52558 44.4074 3.09472 43.3525 2.03975C42.2976 0.98477 40.8668 0.39209 39.375 0.39209H5.625ZM3.75 6.01754C3.75 5.52022 3.94754 5.04327 4.29918 4.69161C4.65081 4.33995 5.12772 4.14239 5.625 4.14239H11.25V16.1734L4.63875 12.0855C4.36715 11.9175 4.14295 11.683 3.98741 11.404C3.83187 11.1251 3.75015 10.811 3.75 10.4917V6.01754ZM15 18.491V4.14239H30V18.491L23.4862 22.5189C23.1899 22.7021 22.8484 22.7992 22.5 22.7992C22.1516 22.7992 21.8101 22.7021 21.5138 22.5189L15 18.491ZM33.75 16.1734V4.14239H39.375C39.8723 4.14239 40.3492 4.33995 40.7008 4.69161C41.0525 5.04327 41.25 5.52022 41.25 6.01754V10.4917C41.2498 10.811 41.1681 11.1251 41.0126 11.404C40.8571 11.683 40.6329 11.9175 40.3612 12.0855L33.75 16.1734ZM15 34.1448C15 32.1555 15.7902 30.2477 17.1967 28.8411C18.6032 27.4344 20.5109 26.6442 22.5 26.6442C24.4891 26.6442 26.3968 27.4344 27.8033 28.8411C29.2098 30.2477 30 32.1555 30 34.1448C30 36.1341 29.2098 38.0419 27.8033 39.4485C26.3968 40.8552 24.4891 41.6454 22.5 41.6454C20.5109 41.6454 18.6032 40.8552 17.1967 39.4485C15.7902 38.0419 15 36.1341 15 34.1448Z" fill="#FDFFAC"/>
</svg>
