<svg width="49" height="49" viewBox="0 0 49 49" fill="none" xmlns="http://www.w3.org/2000/svg">
<path d="M35.2188 16.0781H26.0312V9.95312H42.875C43.484 9.95244 44.0678 9.71023 44.4984 9.27963C44.929 8.84903 45.1712 8.26521 45.1719 7.65625V1.53125H42.1094V6.89062H25.2656C24.6567 6.89131 24.0728 7.13352 23.6422 7.56412C23.2116 7.99472 22.9694 8.57854 22.9688 9.1875V16.0781H13.7812C10.5335 16.0818 7.41977 17.3736 5.12325 19.6701C2.82672 21.9666 1.53492 25.0804 1.53125 28.3281V37.9896C1.53386 40.2998 2.45272 42.5146 4.08625 44.1481C5.71978 45.7817 7.93457 46.7005 10.2447 46.7031H10.417C11.6948 46.7048 12.9572 46.4248 14.1143 45.8828C15.2715 45.3409 16.2949 44.5505 17.1117 43.5679L22.1553 37.5156H26.8091L31.8494 44.0679C32.959 45.5101 34.4922 46.5687 36.2339 47.0952C37.9757 47.6218 39.8386 47.5898 41.5612 47.0039C43.2839 46.418 44.7799 45.3074 45.8394 43.8281C46.8988 42.3488 47.4686 40.5749 47.4688 38.7553V28.3281C47.4651 25.0804 46.1733 21.9666 43.8768 19.6701C41.5802 17.3736 38.4665 16.0818 35.2188 16.0781ZM44.4062 38.7553C44.4062 39.9354 44.0367 41.0859 43.3496 42.0454C42.6624 43.0049 41.6921 43.7251 40.5748 44.1051C39.4576 44.4851 38.2493 44.5058 37.1197 44.1642C35.9901 43.8227 34.9957 43.136 34.2762 42.2006L28.3164 34.4531H20.7203L14.7586 41.6073C14.2289 42.2445 13.5652 42.7571 12.8149 43.1085C12.0645 43.46 11.2459 43.6417 10.4173 43.6406H10.245C8.74675 43.639 7.3103 43.0432 6.25083 41.9837C5.19137 40.9243 4.59542 39.4879 4.59375 37.9896V28.3281C4.59649 25.8923 5.56533 23.557 7.28773 21.8346C9.01013 20.1122 11.3454 19.1434 13.7812 19.1406H35.2188C37.6546 19.1434 39.9899 20.1122 41.7123 21.8346C43.4347 23.557 44.4035 25.8923 44.4062 28.3281V38.7553Z" fill="#FDFFAC"/>
<path d="M34.4531 23.7344H37.5156V26.7969H34.4531V23.7344ZM34.4531 31.3906H37.5156V34.4531H34.4531V31.3906ZM30.625 27.5625H33.6875V30.625H30.625V27.5625ZM38.2812 27.5625H41.3438V30.625H38.2812V27.5625ZM14.5469 23.7344H11.4844V27.5625H7.65625V30.625H11.4844V34.4531H14.5469V30.625H18.375V27.5625H14.5469V23.7344Z" fill="#FDFFAC"/>
</svg>
