<svg width="43" height="43" viewBox="0 0 43 43" fill="none" xmlns="http://www.w3.org/2000/svg">
<path fill-rule="evenodd" clip-rule="evenodd" d="M6.29954 36.7036C6.60327 37.0075 6.91262 37.2944 7.2276 37.5758C8.34127 37.3732 9.64055 36.9624 11.0917 36.3322C6.42891 33.0462 3.37475 27.622 3.37475 21.5C3.37475 11.5012 11.5023 3.37045 21.4972 3.37045C27.583 3.37045 32.9714 6.38642 36.2617 11.0004C36.8804 9.54305 37.2742 8.2095 37.4429 7.07851C37.201 6.81405 36.9536 6.54959 36.7005 6.29639C36.0215 5.61713 35.3039 4.98845 34.5505 4.41174C35.0375 4.32886 35.4878 4.28742 35.8916 4.28742C36.8594 4.28742 37.5867 4.51678 38.0342 4.95873C39.1867 6.11114 38.8398 9.14321 37.1167 12.869C35.0804 17.2716 31.4272 22.2281 26.8287 26.8266C18.6329 35.0333 10.9742 38.7087 7.10283 38.7087C6.135 38.7087 5.40773 38.4793 4.96018 38.0374C4.32788 37.4051 4.13464 36.1925 4.41399 34.5481C4.99182 35.3032 5.62095 36.0228 6.29954 36.7036ZM29.8666 1.68804C30.1258 1.79805 30.3824 1.91279 30.6363 2.03223C32.2908 1.4121 33.8145 1.05252 35.1755 0.958856C37.9559 0.768652 39.5559 1.74205 40.4062 2.59237C41.2622 3.44269 42.2356 5.04264 42.0398 7.82856C41.9111 9.70263 41.279 11.8732 40.1657 14.2843C37.9671 19.0394 34.079 24.3427 29.2063 29.2097C24.3336 34.0767 19.0357 37.9702 14.2804 40.1688C11.8693 41.282 9.69863 41.9142 7.82451 42.0428C7.58395 42.0596 7.34898 42.0652 7.12521 42.0652C4.76997 42.0652 3.37137 41.1869 2.59375 40.4093C1.73781 39.559 0.764384 37.9591 0.960188 35.1787C1.0556 33.8165 1.41218 32.2935 2.02992 30.6384C1.91112 30.3876 1.79693 30.1342 1.68738 29.8783C0.568084 27.2225 0 24.4091 0 21.5056C0 18.6022 0.568084 15.7832 1.68738 13.1329C2.77292 10.5728 4.31969 8.27139 6.29392 6.29639C8.26815 4.32138 10.5686 2.77401 13.1278 1.68804C15.7826 0.568307 18.5949 0 21.4972 0C24.3995 0 27.2174 0.568307 29.8666 1.68804ZM41.442 15.5131C40.8908 16.706 40.2327 17.9326 39.479 19.1818C39.5746 19.9414 39.6252 20.7122 39.6252 21.4944C39.6252 31.4932 31.4977 39.6239 21.5028 39.6239C20.7379 39.6239 19.9898 39.5733 19.2474 39.4832C17.9424 40.2766 16.66 40.9687 15.417 41.5483C15.1583 41.6665 14.9052 41.779 14.6521 41.8859C16.8513 42.623 19.1517 43 21.5028 43C24.4051 43 27.2174 42.4317 29.8722 41.312C32.4314 40.226 34.7318 38.6786 36.7061 36.7036C38.6803 34.7286 40.2271 32.4272 41.3126 29.8671C42.4319 27.2168 43 24.3978 43 21.4944C43 19.1142 42.6175 16.7847 41.8582 14.5622C41.7288 14.8773 41.5882 15.1924 41.442 15.5131ZM8.02584 22.822C7.67523 22.4714 7.47826 21.9958 7.47826 21.5C7.47826 21.0042 7.67523 20.5286 8.02584 20.178C8.37646 19.8274 8.85199 19.6304 9.34783 19.6304C9.84367 19.6304 10.3192 19.8274 10.6698 20.178C11.0204 20.5286 11.2174 21.0042 11.2174 21.5C11.2174 21.9958 11.0204 22.4714 10.6698 22.822C10.3192 23.1726 9.84367 23.3696 9.34783 23.3696C8.85199 23.3696 8.37646 23.1726 8.02584 22.822ZM17.7609 19.163C17.7609 19.5349 17.9086 19.8916 18.1716 20.1545C18.4345 20.4175 18.7912 20.5652 19.163 20.5652C19.5349 20.5652 19.8916 20.4175 20.1545 20.1545C20.4175 19.8916 20.5652 19.5349 20.5652 19.163C20.5652 18.7912 20.4175 18.4345 20.1545 18.1716C19.8916 17.9086 19.5349 17.7609 19.163 17.7609C18.7912 17.7609 18.4345 17.9086 18.1716 18.1716C17.9086 18.4345 17.7609 18.7912 17.7609 19.163ZM19.517 11.1939C18.9911 10.5803 18.6957 9.74815 18.6957 8.88043C18.6957 8.01272 18.9911 7.18054 19.517 6.56697C20.0429 5.9534 20.7562 5.6087 21.5 5.6087C22.2438 5.6087 22.9571 5.9534 23.483 6.56697C24.0089 7.18054 24.3043 8.01272 24.3043 8.88043C24.3043 9.74815 24.0089 10.5803 23.483 11.1939C22.9571 11.8075 22.2438 12.1522 21.5 12.1522C20.7562 12.1522 20.0429 11.8075 19.517 11.1939Z" fill="#FDFFAC"/>
</svg>
