<svg width="32" height="14" viewBox="0 0 32 14" fill="none" xmlns="http://www.w3.org/2000/svg">
<path d="M4.961 2.42432C5.59132 0.953589 7.03747 0 8.63758 0H30.4835C31.2014 0 31.6854 0.734051 31.4026 1.39392L27.2987 10.9696C26.5109 12.808 24.7032 14 22.703 14H1.51654C0.798623 14 0.314593 13.2659 0.597394 12.6061L4.961 2.42432Z" fill="url(#paint0_linear_6856_23)"/>
<path d="M21.5811 10.0078C21.5811 9.93945 21.6022 9.88086 21.6445 9.83203C21.6901 9.7832 21.7438 9.74251 21.8057 9.70996C21.8708 9.67741 21.9391 9.65299 22.0107 9.63672C22.0824 9.62044 22.1442 9.60905 22.1963 9.60254C22.2061 9.59928 22.2288 9.59603 22.2646 9.59277C22.3005 9.58952 22.3379 9.58626 22.377 9.58301C22.4193 9.57975 22.4583 9.5765 22.4941 9.57324C22.5332 9.56673 22.5576 9.56185 22.5674 9.55859C22.5902 9.55534 22.6195 9.5472 22.6553 9.53418C22.6943 9.52116 22.7334 9.50651 22.7725 9.49023C22.8115 9.4707 22.8457 9.44954 22.875 9.42676C22.9076 9.40397 22.9287 9.38281 22.9385 9.36328C22.9906 9.26237 23.0312 9.15495 23.0605 9.04102C23.0931 8.92708 23.1338 8.81803 23.1826 8.71387C23.1826 8.71061 23.1875 8.70247 23.1973 8.68945C23.207 8.67318 23.2168 8.65527 23.2266 8.63574C23.2396 8.61621 23.251 8.59831 23.2607 8.58203C23.2705 8.5625 23.2754 8.54948 23.2754 8.54297C23.2852 8.52669 23.3031 8.49251 23.3291 8.44043C23.3551 8.38835 23.3828 8.33301 23.4121 8.27441C23.4414 8.21257 23.4691 8.15397 23.4951 8.09863C23.5212 8.04004 23.5391 7.99935 23.5488 7.97656C23.5488 7.97331 23.5537 7.95866 23.5635 7.93262C23.5765 7.90332 23.583 7.88216 23.583 7.86914C23.583 7.86589 23.5863 7.85124 23.5928 7.8252C23.6025 7.79915 23.6107 7.77148 23.6172 7.74219C23.627 7.70964 23.6351 7.68034 23.6416 7.6543C23.6481 7.62826 23.6514 7.61035 23.6514 7.60059C23.6546 7.59408 23.6644 7.5778 23.6807 7.55176C23.7002 7.52572 23.7116 7.51107 23.7148 7.50781C23.7799 7.40039 23.8337 7.2832 23.876 7.15625C23.9183 7.02604 23.9688 6.9056 24.0273 6.79492C24.0306 6.78841 24.0371 6.77702 24.0469 6.76074C24.0566 6.74121 24.0664 6.72331 24.0762 6.70703C24.0892 6.6875 24.099 6.6696 24.1055 6.65332C24.1152 6.63704 24.1201 6.62891 24.1201 6.62891C24.1234 6.61589 24.1331 6.58659 24.1494 6.54102C24.1657 6.49219 24.1836 6.44173 24.2031 6.38965C24.2227 6.33431 24.2406 6.28385 24.2568 6.23828C24.2731 6.19271 24.2845 6.16504 24.291 6.15527C24.2975 6.14225 24.3138 6.11784 24.3398 6.08203C24.3691 6.04297 24.387 6.01855 24.3936 6.00879C24.4521 5.91439 24.4912 5.81999 24.5107 5.72559C24.5303 5.63118 24.5579 5.53516 24.5938 5.4375C24.6003 5.42773 24.6133 5.40495 24.6328 5.36914C24.6523 5.33333 24.6654 5.3138 24.6719 5.31055C24.6719 5.30404 24.6719 5.29102 24.6719 5.27148C24.6751 5.2487 24.6784 5.22591 24.6816 5.20312C24.6849 5.17708 24.6882 5.1543 24.6914 5.13477C24.6947 5.11523 24.6995 5.10384 24.7061 5.10059C24.7288 5.02246 24.7614 4.94108 24.8037 4.85645C24.8493 4.76855 24.8932 4.68066 24.9355 4.59277C24.9811 4.50163 25.0202 4.41211 25.0527 4.32422C25.0853 4.23633 25.1016 4.15007 25.1016 4.06543C25.1016 3.92546 25.0674 3.83268 24.999 3.78711C24.9339 3.73828 24.8363 3.71387 24.7061 3.71387C24.641 3.71387 24.5791 3.72038 24.5205 3.7334C24.4652 3.74316 24.4049 3.74805 24.3398 3.74805C24.2617 3.74805 24.1836 3.74316 24.1055 3.7334C24.0273 3.72038 23.9492 3.71387 23.8711 3.71387C23.7865 3.71387 23.6969 3.72201 23.6025 3.73828C23.5114 3.75456 23.4268 3.78223 23.3486 3.82129C23.2705 3.86035 23.2054 3.91243 23.1533 3.97754C23.1012 4.04264 23.0752 4.12402 23.0752 4.22168C23.0752 4.28027 23.0801 4.33398 23.0898 4.38281C23.1029 4.42839 23.1094 4.47884 23.1094 4.53418C23.1094 4.61882 23.1045 4.69694 23.0947 4.76855C23.0882 4.83691 23.0703 4.89714 23.041 4.94922C23.015 4.99805 22.9727 5.03711 22.9141 5.06641C22.8587 5.09245 22.7822 5.10547 22.6846 5.10547C22.5739 5.10547 22.4811 5.07129 22.4062 5.00293C22.3314 4.93132 22.2614 4.84993 22.1963 4.75879C22.167 4.72298 22.1475 4.69368 22.1377 4.6709C22.1312 4.64811 22.1279 4.62207 22.1279 4.59277V4.4707C22.1279 4.34701 22.141 4.23958 22.167 4.14844C22.1963 4.05404 22.2402 3.95312 22.2988 3.8457C22.3249 3.80339 22.3428 3.76758 22.3525 3.73828C22.3623 3.70573 22.3883 3.6748 22.4307 3.64551C22.4372 3.639 22.46 3.6276 22.499 3.61133C22.5381 3.59505 22.5609 3.58366 22.5674 3.57715C22.5739 3.57389 22.5853 3.56413 22.6016 3.54785C22.6178 3.53158 22.6357 3.51367 22.6553 3.49414C22.6748 3.47461 22.6911 3.45671 22.7041 3.44043C22.7204 3.42415 22.7318 3.41439 22.7383 3.41113C22.748 3.40137 22.7643 3.38835 22.7871 3.37207C22.8099 3.35579 22.8343 3.33789 22.8604 3.31836C22.8864 3.29883 22.9092 3.28255 22.9287 3.26953C22.9515 3.25326 22.9661 3.24349 22.9727 3.24023C22.9824 3.23047 23.0052 3.22233 23.041 3.21582C23.0801 3.20931 23.1029 3.20605 23.1094 3.20605C23.168 3.18001 23.2233 3.15072 23.2754 3.11816C23.3307 3.08561 23.3877 3.05794 23.4463 3.03516C23.583 2.98633 23.7197 2.95703 23.8564 2.94727C23.9964 2.93424 24.138 2.92773 24.2812 2.92773H24.5107H25.0674C25.1064 2.94076 25.1455 2.94889 25.1846 2.95215C25.2269 2.95215 25.2692 2.95215 25.3115 2.95215H25.4336C25.4824 2.95215 25.5296 2.9554 25.5752 2.96191C25.624 2.96842 25.6712 2.98145 25.7168 3.00098H27.001C27.0465 3.00098 27.0872 3.00423 27.123 3.01074C27.1621 3.01725 27.1979 3.02539 27.2305 3.03516C27.2663 3.04492 27.3021 3.05306 27.3379 3.05957C27.3737 3.06608 27.4144 3.06934 27.46 3.06934C27.5186 3.06934 27.5674 3.06445 27.6064 3.05469C27.6488 3.04167 27.696 3.03516 27.748 3.03516C27.7806 3.03516 27.8115 3.04655 27.8408 3.06934C27.8734 3.08887 27.9059 3.09863 27.9385 3.09863H28.5586C28.5618 3.09863 28.57 3.09538 28.583 3.08887C28.5993 3.08236 28.6107 3.07585 28.6172 3.06934C28.627 3.05957 28.6416 3.04655 28.6611 3.03027C28.6839 3.01074 28.7051 2.99121 28.7246 2.97168C28.7474 2.94889 28.7686 2.92936 28.7881 2.91309C28.8076 2.89355 28.8206 2.87891 28.8271 2.86914V2.78125C28.8271 2.70638 28.819 2.63639 28.8027 2.57129C28.7897 2.50293 28.7832 2.43294 28.7832 2.36133V2.15625C28.793 2.15299 28.8011 2.14811 28.8076 2.1416C28.8141 2.13184 28.8206 2.1237 28.8271 2.11719C28.8434 2.10742 28.8695 2.08952 28.9053 2.06348C28.9411 2.03743 28.9639 2.02441 28.9736 2.02441C29.0192 2.01465 29.0648 2.00814 29.1104 2.00488C29.1559 2.00163 29.1966 2 29.2324 2C29.2715 2 29.3073 2.00163 29.3398 2.00488C29.3757 2.00814 29.4082 2.01465 29.4375 2.02441C29.4408 2.02441 29.4554 2.03743 29.4814 2.06348C29.5107 2.08952 29.5286 2.10742 29.5352 2.11719C29.5742 2.17578 29.6068 2.22949 29.6328 2.27832C29.6589 2.32389 29.6719 2.37923 29.6719 2.44434C29.6719 2.50618 29.6589 2.56152 29.6328 2.61035C29.6068 2.65918 29.5742 2.70801 29.5352 2.75684C29.5352 2.76335 29.527 2.77637 29.5107 2.7959C29.4977 2.81217 29.4831 2.83008 29.4668 2.84961C29.4538 2.86914 29.4391 2.88704 29.4229 2.90332C29.4098 2.91634 29.4033 2.92448 29.4033 2.92773C29.3577 2.99284 29.3236 3.06283 29.3008 3.1377C29.278 3.21257 29.2438 3.28092 29.1982 3.34277C29.1429 3.41439 29.0762 3.47298 28.998 3.51855C28.9232 3.56087 28.8434 3.59668 28.7588 3.62598C28.6774 3.65527 28.5928 3.68132 28.5049 3.7041C28.417 3.72363 28.3324 3.74642 28.251 3.77246C28.2477 3.77572 28.2396 3.78223 28.2266 3.79199C28.2135 3.7985 28.1989 3.80664 28.1826 3.81641C28.1696 3.82292 28.1549 3.82943 28.1387 3.83594C28.1257 3.84245 28.1159 3.8457 28.1094 3.8457H27.9336H27.748C27.7383 3.8457 27.7139 3.83594 27.6748 3.81641C27.639 3.79362 27.6146 3.77897 27.6016 3.77246C27.5951 3.77246 27.5771 3.77246 27.5479 3.77246C27.5218 3.76921 27.4909 3.76595 27.4551 3.7627C27.4193 3.75944 27.3835 3.75618 27.3477 3.75293C27.3118 3.74967 27.2842 3.74805 27.2646 3.74805H26.9033C26.8968 3.74805 26.8838 3.74642 26.8643 3.74316C26.848 3.73991 26.8301 3.73665 26.8105 3.7334C26.7943 3.72689 26.778 3.72201 26.7617 3.71875C26.7454 3.71549 26.7357 3.71387 26.7324 3.71387H26.6738C26.6608 3.71387 26.6348 3.72201 26.5957 3.73828C26.5599 3.7513 26.5192 3.76758 26.4736 3.78711C26.4313 3.80664 26.3906 3.8278 26.3516 3.85059C26.3158 3.87337 26.293 3.89453 26.2832 3.91406C26.2832 3.92057 26.2767 3.9401 26.2637 3.97266C26.2507 4.00195 26.236 4.03451 26.2197 4.07031C26.2067 4.10286 26.1937 4.13379 26.1807 4.16309C26.1676 4.19238 26.1595 4.21191 26.1562 4.22168C26.1139 4.30957 26.07 4.39095 26.0244 4.46582C25.9788 4.53743 25.9414 4.6237 25.9121 4.72461C25.8861 4.81576 25.8665 4.91341 25.8535 5.01758C25.8405 5.11849 25.8161 5.21615 25.7803 5.31055C25.777 5.31706 25.7673 5.33659 25.751 5.36914C25.738 5.39844 25.7217 5.43262 25.7021 5.47168C25.6826 5.51074 25.6631 5.54818 25.6436 5.58398C25.6273 5.61654 25.6159 5.6377 25.6094 5.64746C25.6061 5.65397 25.5964 5.67513 25.5801 5.71094C25.5671 5.74349 25.5508 5.78092 25.5312 5.82324C25.5117 5.86556 25.4922 5.90462 25.4727 5.94043C25.4564 5.97624 25.445 5.99902 25.4385 6.00879C25.4352 6.02507 25.4255 6.05111 25.4092 6.08691C25.3962 6.11947 25.3864 6.14225 25.3799 6.15527C25.2822 6.31803 25.2057 6.49382 25.1504 6.68262C25.0951 6.86816 25.0332 7.04883 24.9648 7.22461C24.903 7.40039 24.8346 7.57292 24.7598 7.74219C24.6849 7.9082 24.61 8.07422 24.5352 8.24023C24.4766 8.3737 24.4147 8.50391 24.3496 8.63086C24.2845 8.75456 24.234 8.88639 24.1982 9.02637C24.195 9.03288 24.1917 9.04102 24.1885 9.05078C24.1852 9.06055 24.1836 9.07194 24.1836 9.08496V9.22168C24.1836 9.25749 24.1852 9.29329 24.1885 9.3291C24.1917 9.36491 24.2015 9.39421 24.2178 9.41699C24.2503 9.46257 24.291 9.49186 24.3398 9.50488C24.3887 9.51465 24.4375 9.52279 24.4863 9.5293C24.5384 9.53581 24.5889 9.54557 24.6377 9.55859C24.6865 9.56836 24.7288 9.5944 24.7646 9.63672C24.7744 9.64648 24.7874 9.66113 24.8037 9.68066C24.82 9.69694 24.8346 9.71484 24.8477 9.73438C24.8639 9.75065 24.877 9.7653 24.8867 9.77832C24.8965 9.79134 24.9014 9.79948 24.9014 9.80273V9.85645C24.9014 9.99642 24.8542 10.1071 24.7598 10.1885C24.6654 10.2699 24.5514 10.3105 24.418 10.3105C24.3822 10.3105 24.3545 10.3089 24.335 10.3057C24.3187 10.3024 24.2926 10.2926 24.2568 10.2764H22.8701C22.8636 10.2764 22.8473 10.2796 22.8213 10.2861C22.7952 10.2959 22.779 10.304 22.7725 10.3105H22.7627C22.6976 10.3105 22.6374 10.3024 22.582 10.2861C22.5267 10.2731 22.4665 10.2666 22.4014 10.2666C22.3916 10.2666 22.3737 10.2682 22.3477 10.2715C22.3216 10.2747 22.3053 10.2764 22.2988 10.2764C22.2891 10.2764 22.2663 10.2878 22.2305 10.3105C22.1947 10.3333 22.1686 10.3447 22.1523 10.3447C22.1263 10.348 22.1019 10.3496 22.0791 10.3496C22.0596 10.3529 22.04 10.3545 22.0205 10.3545C22.001 10.3545 21.9863 10.3545 21.9766 10.3545C21.9668 10.3545 21.9521 10.3529 21.9326 10.3496C21.9163 10.3496 21.8984 10.3496 21.8789 10.3496C21.8594 10.3496 21.8415 10.348 21.8252 10.3447C21.8089 10.3447 21.7975 10.3447 21.791 10.3447C21.7715 10.3317 21.7487 10.3105 21.7227 10.2812C21.6999 10.252 21.6771 10.221 21.6543 10.1885C21.6348 10.1527 21.6169 10.1185 21.6006 10.0859C21.5876 10.0534 21.5811 10.0273 21.5811 10.0078Z" fill="black" stroke="black" stroke-width="0.5"/>
<path d="M14.791 8.47168C14.791 8.48958 14.7928 8.52181 14.7964 8.56836C14.8 8.61133 14.8035 8.65788 14.8071 8.70801C14.8107 8.75456 14.8143 8.79932 14.8179 8.84229C14.8215 8.88525 14.825 8.9139 14.8286 8.92822C14.8429 9.04281 14.8966 9.14307 14.9897 9.229C15.0828 9.31494 15.1903 9.38835 15.312 9.44922C15.4338 9.50651 15.5591 9.55485 15.688 9.59424C15.8169 9.63005 15.9261 9.6569 16.0156 9.6748C16.0443 9.6748 16.0872 9.66943 16.1445 9.65869C16.2018 9.64795 16.2609 9.63542 16.3218 9.62109C16.3898 9.60677 16.465 9.58708 16.5474 9.56201C16.5581 9.55843 16.5868 9.5459 16.6333 9.52441C16.6799 9.49935 16.73 9.47428 16.7837 9.44922C16.8374 9.42415 16.8875 9.40088 16.9341 9.37939C16.9806 9.35791 17.0093 9.34359 17.02 9.33643C17.0881 9.30778 17.1543 9.28451 17.2188 9.2666C17.2832 9.2487 17.3441 9.229 17.4014 9.20752C17.4622 9.18604 17.5195 9.16097 17.5732 9.13232C17.6305 9.1001 17.6842 9.05713 17.7344 9.00342C17.7594 8.97477 17.7791 8.94434 17.7935 8.91211C17.8114 8.8763 17.8275 8.84229 17.8418 8.81006C17.8561 8.77783 17.8722 8.7474 17.8901 8.71875C17.9116 8.68652 17.9403 8.65788 17.9761 8.63281C18.0513 8.57552 18.1318 8.50391 18.2178 8.41797C18.3037 8.33203 18.3628 8.25146 18.395 8.17627C18.4165 8.1333 18.4505 8.08675 18.4971 8.03662C18.5436 7.98649 18.5902 7.93278 18.6367 7.87549C18.6868 7.81462 18.7298 7.75374 18.7656 7.69287C18.805 7.62842 18.8265 7.56396 18.8301 7.49951C18.8587 7.44222 18.8981 7.38851 18.9482 7.33838C19.002 7.28825 19.0378 7.23275 19.0557 7.17188C19.0592 7.16829 19.0646 7.15576 19.0718 7.13428C19.0789 7.11279 19.0843 7.08952 19.0879 7.06445C19.0951 7.03581 19.1004 7.01074 19.104 6.98926C19.1112 6.96419 19.1165 6.94808 19.1201 6.94092C19.1344 6.92301 19.1506 6.89437 19.1685 6.85498C19.1899 6.81559 19.2096 6.7762 19.2275 6.73682C19.2454 6.69385 19.2598 6.65446 19.2705 6.61865C19.2848 6.58285 19.2938 6.55778 19.2974 6.54346C19.3188 6.48975 19.3332 6.43783 19.3403 6.3877C19.3475 6.33757 19.3547 6.28743 19.3618 6.2373C19.369 6.18717 19.3779 6.13883 19.3887 6.09229C19.3994 6.04215 19.4173 5.99382 19.4424 5.94727C19.446 5.93652 19.4531 5.91862 19.4639 5.89355C19.4782 5.86491 19.4907 5.83626 19.5015 5.80762C19.5158 5.77897 19.5283 5.75391 19.5391 5.73242C19.5534 5.70736 19.5623 5.68945 19.5659 5.67871L19.6304 5.05566C19.634 5.02702 19.6304 4.99479 19.6196 4.95898C19.6125 4.92318 19.6017 4.88737 19.5874 4.85156C19.5767 4.81217 19.5641 4.77637 19.5498 4.74414C19.5391 4.71191 19.5319 4.68506 19.5283 4.66357C19.5212 4.65641 19.5158 4.62777 19.5122 4.57764C19.5122 4.52751 19.5086 4.49349 19.5015 4.47559C19.4979 4.47201 19.4907 4.45589 19.48 4.42725C19.4692 4.3986 19.4567 4.36816 19.4424 4.33594C19.4316 4.30371 19.4209 4.27327 19.4102 4.24463C19.3994 4.21598 19.3923 4.19808 19.3887 4.19092C19.3708 4.14437 19.3547 4.10856 19.3403 4.0835C19.326 4.05485 19.3099 4.03158 19.292 4.01367C19.2777 3.99577 19.2562 3.97965 19.2275 3.96533C19.2025 3.94743 19.1667 3.92236 19.1201 3.89014C19.0628 3.85433 19.0073 3.81494 18.9536 3.77197C18.9035 3.729 18.8408 3.70752 18.7656 3.70752C18.694 3.68962 18.6242 3.67708 18.5562 3.66992C18.4881 3.66276 18.4219 3.65918 18.3574 3.65918C18.2751 3.65918 18.1927 3.66455 18.1104 3.67529C18.0316 3.68245 17.9528 3.6932 17.874 3.70752C17.7845 3.75765 17.6914 3.79346 17.5947 3.81494C17.498 3.83643 17.4049 3.87223 17.3154 3.92236C17.1042 4.06201 16.9019 4.21956 16.7085 4.39502C16.5151 4.56689 16.3271 4.74593 16.1445 4.93213C16.1123 4.93929 16.089 4.96615 16.0747 5.0127C16.0604 5.05924 16.0407 5.09505 16.0156 5.12012C16.012 5.12728 15.9995 5.13981 15.978 5.15771C15.9565 5.17562 15.9333 5.19531 15.9082 5.2168C15.8867 5.2347 15.8652 5.2526 15.8438 5.27051C15.8258 5.28841 15.8151 5.29915 15.8115 5.30273C15.8079 5.3099 15.799 5.32601 15.7847 5.35107C15.7703 5.37256 15.7542 5.39583 15.7363 5.4209C15.722 5.44238 15.7077 5.46387 15.6934 5.48535C15.6826 5.50684 15.6755 5.52116 15.6719 5.52832C15.6683 5.5319 15.6576 5.54443 15.6396 5.56592C15.6253 5.5874 15.6074 5.61247 15.5859 5.64111C15.568 5.66618 15.5501 5.69124 15.5322 5.71631C15.5143 5.73779 15.5018 5.75212 15.4946 5.75928C15.4552 5.81657 15.432 5.87744 15.4248 5.94189C15.4212 6.00277 15.4015 6.06543 15.3657 6.12988C15.3586 6.13346 15.3478 6.14421 15.3335 6.16211C15.3192 6.17643 15.3049 6.19434 15.2905 6.21582C15.2762 6.2373 15.2619 6.25879 15.2476 6.28027C15.2368 6.29818 15.2297 6.31071 15.2261 6.31787C15.2261 6.32503 15.2171 6.35368 15.1992 6.40381C15.1813 6.45394 15.1724 6.48796 15.1724 6.50586C15.1616 6.52376 15.1509 6.55241 15.1401 6.5918C15.1294 6.6276 15.124 6.6473 15.124 6.65088C15.1061 6.69027 15.0846 6.7207 15.0596 6.74219C15.0345 6.76367 15.0094 6.7959 14.9844 6.83887C14.9772 6.85677 14.9629 6.89079 14.9414 6.94092C14.9199 6.98747 14.9056 7.01611 14.8984 7.02686C14.8949 7.02686 14.8895 7.03402 14.8823 7.04834C14.8787 7.06266 14.8734 7.07878 14.8662 7.09668C14.8626 7.111 14.859 7.12712 14.8555 7.14502C14.8519 7.15934 14.8483 7.16829 14.8447 7.17188C14.8447 7.17904 14.8394 7.19336 14.8286 7.21484C14.8215 7.23633 14.8107 7.2596 14.7964 7.28467C14.7856 7.30973 14.7749 7.3348 14.7642 7.35986C14.7534 7.38135 14.7463 7.39388 14.7427 7.39746C14.7427 7.39746 14.7445 7.40462 14.748 7.41895C14.7516 7.43327 14.7534 7.44938 14.7534 7.46729C14.757 7.48161 14.7606 7.49772 14.7642 7.51562C14.7677 7.52995 14.7695 7.5389 14.7695 7.54248C14.766 7.57471 14.7642 7.60693 14.7642 7.63916C14.7606 7.66781 14.7588 7.69645 14.7588 7.7251C14.7588 7.75374 14.757 7.77702 14.7534 7.79492C14.7534 7.80208 14.7516 7.81641 14.748 7.83789C14.7445 7.85938 14.7409 7.88265 14.7373 7.90771C14.7373 7.93278 14.7355 7.95605 14.7319 7.97754C14.7284 7.99902 14.7266 8.01514 14.7266 8.02588C14.7087 8.03662 14.6961 8.05632 14.689 8.08496C14.6818 8.11361 14.6746 8.14404 14.6675 8.17627C14.6675 8.23356 14.6639 8.27116 14.6567 8.28906C14.6603 8.2998 14.6675 8.31413 14.6782 8.33203C14.6925 8.34993 14.7069 8.36963 14.7212 8.39111C14.7355 8.40902 14.748 8.42692 14.7588 8.44482C14.7731 8.45915 14.7839 8.4681 14.791 8.47168ZM15.0488 10.0454C15.0417 10.0454 15.0309 10.04 15.0166 10.0293C15.0023 10.015 14.9915 10.0078 14.9844 10.0078C14.9414 9.97917 14.9002 9.94873 14.8608 9.9165C14.825 9.88428 14.7821 9.86458 14.7319 9.85742C14.6997 9.83594 14.6603 9.80908 14.6138 9.77686C14.5672 9.74105 14.5225 9.70166 14.4795 9.65869C14.4365 9.61572 14.3989 9.57275 14.3667 9.52979C14.3345 9.48324 14.3148 9.44027 14.3076 9.40088C14.2969 9.3973 14.2897 9.37581 14.2861 9.33643C14.2826 9.29704 14.2772 9.27018 14.27 9.25586C14.2664 9.24512 14.2557 9.22005 14.2378 9.18066C14.2199 9.1377 14.2002 9.09115 14.1787 9.04102C14.1608 8.99089 14.1429 8.94434 14.125 8.90137C14.1071 8.85482 14.0964 8.82617 14.0928 8.81543C14.0856 8.80827 14.0802 8.78678 14.0767 8.75098C14.0731 8.71517 14.0713 8.68473 14.0713 8.65967V8.63281C14.0713 8.62207 14.0731 8.59521 14.0767 8.55225C14.0802 8.50928 14.082 8.48242 14.082 8.47168C14.082 8.47168 14.0802 8.46273 14.0767 8.44482C14.0731 8.42692 14.0677 8.40723 14.0605 8.38574C14.057 8.36068 14.0516 8.3374 14.0444 8.31592C14.0373 8.29085 14.0319 8.27295 14.0283 8.26221C14.0033 8.15837 13.9907 8.04378 13.9907 7.91846C13.9907 7.87907 13.9907 7.84147 13.9907 7.80566C13.9907 7.76986 13.9943 7.73226 14.0015 7.69287C14.0086 7.62126 14.0176 7.55143 14.0283 7.4834C14.0391 7.41178 14.048 7.34554 14.0552 7.28467C14.0588 7.24886 14.0623 7.2041 14.0659 7.15039C14.0731 7.0931 14.0785 7.03581 14.082 6.97852C14.0892 6.92122 14.0946 6.87109 14.0981 6.82812C14.1017 6.78516 14.1035 6.76009 14.1035 6.75293C14.1035 6.74935 14.1053 6.73503 14.1089 6.70996C14.116 6.68132 14.1232 6.64909 14.1304 6.61328C14.1375 6.57747 14.1447 6.54167 14.1519 6.50586C14.1626 6.47005 14.1715 6.44141 14.1787 6.41992C14.193 6.34115 14.2181 6.26953 14.2539 6.20508C14.2933 6.13704 14.3291 6.06364 14.3613 5.98486C14.3685 5.97054 14.3774 5.94548 14.3882 5.90967C14.4025 5.87028 14.4115 5.84163 14.415 5.82373C14.4688 5.65544 14.5404 5.49072 14.6299 5.32959C14.723 5.16488 14.8232 5.00553 14.9307 4.85156C14.9557 4.81217 14.988 4.771 15.0273 4.72803C15.0703 4.68506 15.1151 4.64388 15.1616 4.60449C15.2082 4.5651 15.2529 4.52572 15.2959 4.48633C15.3424 4.44694 15.3818 4.40934 15.4141 4.37354C15.4176 4.36995 15.4248 4.35742 15.4355 4.33594C15.4463 4.31445 15.4535 4.30013 15.457 4.29297C15.4606 4.28939 15.4714 4.27865 15.4893 4.26074C15.5072 4.23926 15.543 4.20166 15.5967 4.14795C15.6504 4.09424 15.731 4.01904 15.8384 3.92236C15.9458 3.8221 16.0944 3.68783 16.2842 3.51953C16.3128 3.49805 16.3486 3.47119 16.3916 3.43896C16.4346 3.40316 16.4757 3.37809 16.5151 3.36377C16.5187 3.36377 16.5295 3.36198 16.5474 3.3584C16.5653 3.35482 16.585 3.35303 16.6064 3.35303C16.6315 3.34945 16.653 3.34587 16.6709 3.34229C16.6924 3.3387 16.7067 3.33691 16.7139 3.33691C16.721 3.33333 16.73 3.32796 16.7407 3.3208C16.7622 3.30648 16.7747 3.29932 16.7783 3.29932C16.7855 3.29574 16.798 3.28857 16.8159 3.27783C16.8374 3.26709 16.8589 3.25635 16.8804 3.24561C16.9054 3.23128 16.9269 3.21875 16.9448 3.20801C16.9627 3.19368 16.9717 3.18294 16.9717 3.17578C17.054 3.14355 17.1382 3.12207 17.2241 3.11133C17.3136 3.09701 17.3996 3.07552 17.4819 3.04688C17.5034 3.03971 17.5267 3.03255 17.5518 3.02539C17.5804 3.01823 17.6234 3.00928 17.6807 2.99854C17.7415 2.98779 17.8239 2.97705 17.9277 2.96631C18.0316 2.95199 18.1712 2.93587 18.3467 2.91797C18.429 2.9681 18.5007 2.99674 18.5615 3.00391C18.626 3.01107 18.703 3.02002 18.7925 3.03076C18.7996 3.03792 18.8086 3.04329 18.8193 3.04688C18.8301 3.05404 18.8426 3.0612 18.8569 3.06836C18.9071 3.10059 18.9393 3.12565 18.9536 3.14355C18.9715 3.15788 19.0073 3.16862 19.061 3.17578H19.147C19.1613 3.17578 19.1792 3.18294 19.2007 3.19727C19.2257 3.20801 19.2419 3.21338 19.249 3.21338C19.3815 3.29574 19.5068 3.38704 19.625 3.4873C19.7467 3.58398 19.8577 3.69499 19.958 3.82031C19.958 3.82031 19.9616 3.82926 19.9688 3.84717C19.9759 3.86507 19.9831 3.88477 19.9902 3.90625C20.001 3.92773 20.0099 3.94922 20.0171 3.9707C20.0278 3.98861 20.035 3.99935 20.0386 4.00293C20.0422 4.01009 20.0511 4.02441 20.0654 4.0459C20.0833 4.06738 20.1012 4.09066 20.1191 4.11572C20.1406 4.14079 20.1585 4.16406 20.1729 4.18555C20.1908 4.20703 20.1997 4.22135 20.1997 4.22852C20.2033 4.23568 20.2087 4.25179 20.2158 4.27686C20.223 4.30192 20.2266 4.31982 20.2266 4.33057C20.2266 4.33773 20.2266 4.35384 20.2266 4.37891C20.2301 4.40039 20.2319 4.42546 20.2319 4.4541C20.2355 4.47917 20.2373 4.50244 20.2373 4.52393C20.2409 4.54541 20.2463 4.55794 20.2534 4.56152C20.2534 4.57227 20.2588 4.59554 20.2695 4.63135C20.2839 4.66715 20.2982 4.70654 20.3125 4.74951C20.3304 4.7889 20.3483 4.8265 20.3662 4.8623C20.3841 4.89811 20.3966 4.92139 20.4038 4.93213C20.411 4.98226 20.4128 5.02523 20.4092 5.06104C20.4092 5.09684 20.4342 5.12907 20.4844 5.15771C20.4808 5.17562 20.4772 5.20605 20.4736 5.24902C20.4701 5.28841 20.4647 5.33317 20.4575 5.3833C20.4539 5.42985 20.4504 5.4764 20.4468 5.52295C20.4432 5.56592 20.4414 5.59635 20.4414 5.61426C20.4557 5.6429 20.4683 5.69661 20.479 5.77539C20.4897 5.85059 20.4951 5.90788 20.4951 5.94727C20.4915 5.95801 20.4862 5.98128 20.479 6.01709C20.4718 6.0529 20.4629 6.09229 20.4521 6.13525C20.445 6.17464 20.4378 6.21224 20.4307 6.24805C20.4235 6.28385 20.4199 6.30713 20.4199 6.31787C20.4163 6.33577 20.4128 6.36084 20.4092 6.39307C20.4056 6.42171 20.402 6.45215 20.3984 6.48438C20.3984 6.5166 20.3966 6.54525 20.3931 6.57031C20.3931 6.5918 20.3931 6.60433 20.3931 6.60791C20.3859 6.62223 20.377 6.6473 20.3662 6.68311C20.359 6.71533 20.3483 6.75293 20.334 6.7959C20.3232 6.83529 20.3107 6.87288 20.2964 6.90869C20.2856 6.9445 20.2767 6.97135 20.2695 6.98926C20.2695 6.99284 20.2642 7.00358 20.2534 7.02148C20.2463 7.03939 20.2373 7.05908 20.2266 7.08057C20.2194 7.10205 20.2104 7.12174 20.1997 7.13965C20.1925 7.15755 20.189 7.16829 20.189 7.17188C20.1639 7.22917 20.1424 7.28825 20.1245 7.34912C20.1102 7.40999 20.0941 7.47266 20.0762 7.53711C20.0583 7.59798 20.0368 7.65885 20.0117 7.71973C19.9902 7.77702 19.9616 7.83252 19.9258 7.88623C19.9222 7.88981 19.9115 7.90055 19.8936 7.91846C19.8792 7.93278 19.8613 7.95068 19.8398 7.97217C19.8219 7.99365 19.804 8.01514 19.7861 8.03662C19.7718 8.05452 19.7611 8.06706 19.7539 8.07422C19.7467 8.08138 19.7324 8.10465 19.7109 8.14404C19.6895 8.17985 19.6751 8.20671 19.668 8.22461C19.6572 8.23893 19.6411 8.26042 19.6196 8.28906C19.6017 8.31413 19.5838 8.34098 19.5659 8.36963C19.548 8.39469 19.5319 8.41797 19.5176 8.43945C19.5068 8.46094 19.5015 8.47168 19.5015 8.47168C19.4943 8.47884 19.4818 8.48958 19.4639 8.50391C19.4495 8.51823 19.4334 8.53434 19.4155 8.55225C19.3976 8.56657 19.3797 8.58268 19.3618 8.60059C19.3475 8.61491 19.3385 8.62565 19.335 8.63281C19.2848 8.6901 19.2472 8.75098 19.2222 8.81543C19.1971 8.87988 19.1595 8.94255 19.1094 9.00342C19.0378 9.07861 18.9626 9.15739 18.8838 9.23975C18.8086 9.31852 18.7298 9.38477 18.6475 9.43848C18.6403 9.44564 18.6152 9.45996 18.5723 9.48145C18.5329 9.50293 18.5042 9.51725 18.4863 9.52441C18.4863 9.53158 18.4756 9.55127 18.4541 9.5835C18.4326 9.61214 18.4183 9.63005 18.4111 9.63721C18.3896 9.66227 18.3521 9.69808 18.2983 9.74463C18.2446 9.79118 18.1855 9.83952 18.1211 9.88965C18.0566 9.9362 17.994 9.97917 17.9331 10.0186C17.8722 10.0544 17.8221 10.0758 17.7827 10.083C17.7684 10.0866 17.7397 10.0991 17.6968 10.1206C17.6538 10.1421 17.6287 10.1564 17.6216 10.1636C17.6144 10.1636 17.5983 10.1672 17.5732 10.1743C17.5518 10.1779 17.5267 10.1851 17.498 10.1958C17.473 10.203 17.4497 10.2101 17.4282 10.2173C17.4067 10.2244 17.3942 10.228 17.3906 10.228C17.3799 10.2316 17.3584 10.2406 17.3262 10.2549C17.2975 10.2692 17.2653 10.2853 17.2295 10.3032C17.1937 10.3211 17.1597 10.3372 17.1274 10.3516C17.0988 10.3659 17.0809 10.3748 17.0737 10.3784C17.0343 10.3963 16.995 10.4089 16.9556 10.416C16.9198 10.4232 16.8822 10.4268 16.8428 10.4268C16.8105 10.4268 16.7765 10.425 16.7407 10.4214C16.7049 10.4178 16.6709 10.416 16.6387 10.416H16.3594C16.3486 10.416 16.3236 10.4089 16.2842 10.3945C16.2448 10.3802 16.2 10.3641 16.1499 10.3462C16.1034 10.3319 16.0568 10.3193 16.0103 10.3086C15.9637 10.2979 15.9315 10.2961 15.9136 10.3032C15.91 10.3032 15.8975 10.2961 15.876 10.2817C15.8581 10.271 15.8384 10.2603 15.8169 10.2495C15.7954 10.2352 15.7739 10.2227 15.7524 10.2119C15.7345 10.1976 15.7238 10.1904 15.7202 10.1904C15.6916 10.1833 15.645 10.1725 15.5806 10.1582C15.5161 10.1439 15.4481 10.1296 15.3765 10.1152C15.3084 10.0973 15.2422 10.0812 15.1777 10.0669C15.1169 10.0526 15.0739 10.0454 15.0488 10.0454Z" fill="black" stroke="black" stroke-width="0.5"/>
<path d="M13.7314 3.95801C13.6566 3.99707 13.5882 4.03288 13.5264 4.06543C13.4645 4.09798 13.4059 4.12891 13.3506 4.1582C13.3083 4.20703 13.2708 4.26074 13.2383 4.31934C13.209 4.37793 13.1911 4.43978 13.1846 4.50488L12.9209 4.80273C12.8949 4.95247 12.846 5.09408 12.7744 5.22754C12.7061 5.35775 12.6426 5.49284 12.584 5.63281C12.5807 5.63281 12.5758 5.64258 12.5693 5.66211C12.5628 5.68164 12.5547 5.7028 12.5449 5.72559C12.5384 5.74837 12.5303 5.77116 12.5205 5.79395C12.514 5.81348 12.5091 5.8265 12.5059 5.83301C12.5059 5.83952 12.4961 5.86556 12.4766 5.91113C12.457 5.95671 12.4473 5.98763 12.4473 6.00391C12.444 6.00391 12.4408 6.01204 12.4375 6.02832C12.4342 6.0446 12.431 6.0625 12.4277 6.08203C12.4245 6.09831 12.4212 6.11621 12.418 6.13574C12.4147 6.15202 12.4131 6.16341 12.4131 6.16992C12.4098 6.17643 12.3984 6.19596 12.3789 6.22852C12.3626 6.26107 12.3447 6.29688 12.3252 6.33594C12.3057 6.375 12.2861 6.41243 12.2666 6.44824C12.2503 6.48079 12.2406 6.50033 12.2373 6.50684C12.2373 6.51335 12.2324 6.53613 12.2227 6.5752C12.2161 6.61426 12.2096 6.63704 12.2031 6.64355C12.2031 6.65332 12.1966 6.67122 12.1836 6.69727C12.1738 6.72331 12.1689 6.73958 12.1689 6.74609C12.1624 6.75586 12.1478 6.77865 12.125 6.81445C12.1055 6.85026 12.0811 6.88932 12.0518 6.93164C12.0257 6.9707 12.0013 7.00977 11.9785 7.04883C11.9557 7.08464 11.9427 7.10742 11.9395 7.11719C11.9329 7.1237 11.9248 7.13509 11.915 7.15137C11.9085 7.16439 11.9036 7.17578 11.9004 7.18555C11.8971 7.19206 11.8906 7.20996 11.8809 7.23926C11.8711 7.2653 11.8613 7.2946 11.8516 7.32715C11.8418 7.35645 11.832 7.38411 11.8223 7.41016C11.8125 7.4362 11.8076 7.45085 11.8076 7.4541C11.8011 7.46387 11.7832 7.48828 11.7539 7.52734C11.7279 7.56315 11.6986 7.60221 11.666 7.64453C11.6335 7.68685 11.6025 7.72591 11.5732 7.76172C11.5472 7.79427 11.5309 7.81543 11.5244 7.8252C11.4984 7.87077 11.4837 7.90983 11.4805 7.94238C11.4805 7.97168 11.4756 8.014 11.4658 8.06934C11.4593 8.07585 11.4512 8.08724 11.4414 8.10352C11.4349 8.11654 11.43 8.1263 11.4268 8.13281C11.4268 8.13932 11.4202 8.15072 11.4072 8.16699C11.3975 8.18001 11.3861 8.19466 11.373 8.21094C11.3633 8.22396 11.3519 8.23698 11.3389 8.25C11.3291 8.25977 11.3242 8.26465 11.3242 8.26465C11.321 8.27441 11.3177 8.29557 11.3145 8.32812C11.3112 8.36068 11.3079 8.39648 11.3047 8.43555C11.3047 8.47461 11.3031 8.51042 11.2998 8.54297C11.2998 8.57552 11.2998 8.59505 11.2998 8.60156C11.2933 8.61784 11.2852 8.64551 11.2754 8.68457C11.2656 8.72038 11.2542 8.75944 11.2412 8.80176C11.2314 8.84082 11.2217 8.87826 11.2119 8.91406C11.2021 8.94661 11.194 8.9694 11.1875 8.98242C11.1615 9.05729 11.1273 9.12891 11.085 9.19727C11.0426 9.26237 11.0215 9.33236 11.0215 9.40723C11.0215 9.44303 11.0231 9.46582 11.0264 9.47559C11.0329 9.48535 11.0524 9.50163 11.085 9.52441L11.2998 9.63672C11.3031 9.63672 11.3177 9.63509 11.3438 9.63184C11.373 9.62858 11.4023 9.62695 11.4316 9.62695C11.4674 9.62695 11.4886 9.63021 11.4951 9.63672C11.5309 9.63672 11.5602 9.64811 11.583 9.6709C11.609 9.69043 11.6302 9.71647 11.6465 9.74902C11.6628 9.78158 11.6742 9.81576 11.6807 9.85156C11.6904 9.88737 11.6953 9.91992 11.6953 9.94922C11.6953 9.95573 11.6969 9.96387 11.7002 9.97363C11.7035 9.98014 11.7051 9.99154 11.7051 10.0078C11.7051 10.0371 11.6904 10.0566 11.6611 10.0664C11.6579 10.0664 11.6465 10.0697 11.627 10.0762C11.6107 10.0794 11.5911 10.0827 11.5684 10.0859C11.5456 10.0892 11.5244 10.0941 11.5049 10.1006C11.4854 10.1038 11.4723 10.1055 11.4658 10.1055C11.4495 10.1055 11.417 10.1071 11.3682 10.1104C11.3226 10.1104 11.2721 10.112 11.2168 10.1152C11.1647 10.1185 11.1159 10.1234 11.0703 10.1299C11.0247 10.1331 10.9971 10.1364 10.9873 10.1396C10.9352 10.1462 10.8848 10.1576 10.8359 10.1738C10.7904 10.1901 10.7415 10.1982 10.6895 10.1982C10.6634 10.1982 10.6406 10.1934 10.6211 10.1836C10.6048 10.1738 10.5853 10.1689 10.5625 10.1689C10.5527 10.1689 10.5348 10.1706 10.5088 10.1738C10.4827 10.1771 10.4225 10.1803 10.3281 10.1836C10.2337 10.1868 10.0921 10.1901 9.90332 10.1934C9.71452 10.1966 9.45247 10.1982 9.11719 10.1982C9.07487 10.1982 9.04232 10.1803 9.01953 10.1445C8.99674 10.1055 8.98535 10.068 8.98535 10.0322C8.98535 9.97689 9.00163 9.93294 9.03418 9.90039C9.06999 9.86458 9.1123 9.83691 9.16113 9.81738C9.20996 9.7946 9.26204 9.77832 9.31738 9.76855C9.37272 9.75553 9.41992 9.74251 9.45898 9.72949C9.45898 9.72949 9.47038 9.72298 9.49316 9.70996C9.51595 9.69368 9.54199 9.67578 9.57129 9.65625C9.60384 9.63672 9.63639 9.61556 9.66895 9.59277C9.70475 9.56673 9.73568 9.54395 9.76172 9.52441C9.81706 9.49512 9.87728 9.45931 9.94238 9.41699C10.0075 9.37467 10.0514 9.32096 10.0742 9.25586C10.0807 9.22982 10.0921 9.18587 10.1084 9.12402C10.1279 9.06217 10.1475 8.99707 10.167 8.92871C10.1898 8.86035 10.2109 8.79525 10.2305 8.7334C10.25 8.67155 10.263 8.6276 10.2695 8.60156C10.2533 8.54622 10.2598 8.49089 10.2891 8.43555C10.3184 8.38021 10.3558 8.3265 10.4014 8.27441C10.4469 8.21908 10.4925 8.16536 10.5381 8.11328C10.5869 8.0612 10.6243 8.01074 10.6504 7.96191C10.6504 7.9554 10.6536 7.92936 10.6602 7.88379C10.6699 7.83822 10.6764 7.80729 10.6797 7.79102C10.7025 7.7194 10.7301 7.64616 10.7627 7.57129C10.7985 7.49316 10.8164 7.41178 10.8164 7.32715V7.25391C10.7904 7.17904 10.7497 7.13021 10.6943 7.10742C10.6423 7.08464 10.582 7.07324 10.5137 7.07324C10.4746 7.07324 10.4372 7.07487 10.4014 7.07812C10.3656 7.08138 10.3298 7.08301 10.2939 7.08301H10.2402C10.1914 7.0765 10.1491 7.06348 10.1133 7.04395C10.0807 7.02441 10.04 7.01465 9.99121 7.01465C9.93587 7.01465 9.88704 7.02279 9.84473 7.03906C9.80241 7.05208 9.75521 7.05859 9.70312 7.05859C9.63802 7.05859 9.57617 7.05208 9.51758 7.03906C9.45898 7.02279 9.39714 7.01465 9.33203 7.01465C9.17578 7.01465 9.01465 7.02604 8.84863 7.04883C8.68262 7.07161 8.50195 7.08301 8.30664 7.08301C8.30339 7.08301 8.29036 7.07812 8.26758 7.06836C8.24805 7.05859 8.23665 7.04883 8.2334 7.03906C8.23014 7.03906 8.21549 7.03906 8.18945 7.03906C8.16341 7.03581 8.13086 7.03418 8.0918 7.03418C8.05273 7.03092 8.01204 7.02767 7.96973 7.02441C7.93066 7.02116 7.89486 7.0179 7.8623 7.01465C7.85579 7.02116 7.83464 7.02767 7.79883 7.03418C7.76302 7.03743 7.73861 7.03906 7.72559 7.03906C7.71257 7.04557 7.67025 7.04883 7.59863 7.04883C7.56608 7.04883 7.5319 7.04883 7.49609 7.04883C7.46029 7.04557 7.42448 7.04395 7.38867 7.04395C7.35612 7.04395 7.32682 7.04395 7.30078 7.04395C7.27799 7.04069 7.26172 7.03906 7.25195 7.03906C7.24544 7.04883 7.22917 7.05697 7.20312 7.06348C7.18034 7.06999 7.16569 7.0765 7.15918 7.08301C7.12337 7.09277 7.08105 7.10091 7.03223 7.10742C6.9834 7.11068 6.94434 7.12533 6.91504 7.15137C6.84993 7.20345 6.80111 7.26042 6.76855 7.32227C6.73926 7.38411 6.71484 7.44922 6.69531 7.51758C6.67578 7.58268 6.65788 7.65104 6.6416 7.72266C6.62858 7.79102 6.60742 7.85938 6.57812 7.92773C6.53255 8.04167 6.48047 8.15234 6.42188 8.25977C6.36654 8.36719 6.31608 8.47298 6.27051 8.57715C6.25423 8.61296 6.23633 8.66829 6.2168 8.74316C6.19727 8.81803 6.17936 8.89616 6.16309 8.97754C6.14681 9.05892 6.13216 9.13867 6.11914 9.2168C6.10938 9.29167 6.10449 9.34863 6.10449 9.3877C6.10449 9.49512 6.12402 9.57324 6.16309 9.62207C6.2054 9.6709 6.25586 9.70671 6.31445 9.72949C6.37305 9.74902 6.43815 9.76042 6.50977 9.76367C6.58138 9.76693 6.64648 9.77669 6.70508 9.79297C6.76367 9.80924 6.8125 9.83854 6.85156 9.88086C6.89388 9.92318 6.91504 9.98991 6.91504 10.0811C6.91504 10.1331 6.89876 10.1787 6.86621 10.2178C6.83691 10.2568 6.79622 10.2764 6.74414 10.2764H5.14746C5.13444 10.2796 5.11003 10.2845 5.07422 10.291C5.04167 10.2975 5.00586 10.304 4.9668 10.3105C4.92773 10.3171 4.88867 10.3219 4.84961 10.3252C4.8138 10.3317 4.78939 10.335 4.77637 10.335H4.20508C4.13021 10.3219 4.07812 10.2959 4.04883 10.2568C4.01628 10.2145 4 10.1559 4 10.0811C4 10.0387 4.00651 9.99316 4.01953 9.94434C4.0293 9.89551 4.05697 9.85645 4.10254 9.82715H4.41504C4.45085 9.82715 4.48665 9.81738 4.52246 9.79785C4.56152 9.77507 4.59733 9.75065 4.62988 9.72461C4.66569 9.69531 4.69824 9.66602 4.72754 9.63672C4.76009 9.60417 4.78776 9.57812 4.81055 9.55859C4.82031 9.53906 4.83659 9.50651 4.85938 9.46094C4.88542 9.41536 4.90983 9.36816 4.93262 9.31934C4.95866 9.26725 4.98307 9.22005 5.00586 9.17773C5.02865 9.13216 5.04492 9.10124 5.05469 9.08496C5.07747 9.02962 5.10514 8.97266 5.1377 8.91406C5.1735 8.85547 5.2028 8.80013 5.22559 8.74805C5.22884 8.74154 5.2321 8.72689 5.23535 8.7041C5.24186 8.68132 5.24837 8.6569 5.25488 8.63086C5.26139 8.60482 5.26628 8.5804 5.26953 8.55762C5.27604 8.53158 5.28092 8.5153 5.28418 8.50879C5.30697 8.4502 5.33789 8.38509 5.37695 8.31348C5.41927 8.23861 5.45508 8.17839 5.48438 8.13281C5.48763 8.12956 5.49414 8.12305 5.50391 8.11328C5.51367 8.10352 5.52507 8.09375 5.53809 8.08398C5.55111 8.07422 5.5625 8.06445 5.57227 8.05469C5.58529 8.04492 5.59342 8.04004 5.59668 8.04004C5.62272 7.99772 5.65039 7.95052 5.67969 7.89844C5.71224 7.8431 5.74316 7.78613 5.77246 7.72754C5.80176 7.66895 5.8278 7.61198 5.85059 7.55664C5.87337 7.49805 5.88965 7.44434 5.89941 7.39551V7.26855V7.22461C5.89941 7.22135 5.90592 7.20508 5.91895 7.17578C5.93197 7.14323 5.94661 7.10742 5.96289 7.06836C5.98242 7.0293 6.00195 6.99023 6.02148 6.95117C6.04102 6.90885 6.05729 6.87467 6.07031 6.84863C6.09961 6.78678 6.13542 6.72819 6.17773 6.67285C6.22331 6.61426 6.26562 6.55566 6.30469 6.49707C6.34375 6.43848 6.3763 6.37826 6.40234 6.31641C6.43164 6.2513 6.44466 6.17969 6.44141 6.10156L6.70996 5.55469C6.70996 5.54818 6.72135 5.5319 6.74414 5.50586C6.76693 5.47982 6.77832 5.46191 6.77832 5.45215C6.78483 5.44238 6.79297 5.42773 6.80273 5.4082C6.81576 5.38542 6.82715 5.36263 6.83691 5.33984C6.84993 5.31706 6.8597 5.29753 6.86621 5.28125C6.87598 5.26172 6.88086 5.25195 6.88086 5.25195V5.19824V5.02246V4.98828C6.88086 4.98177 6.88574 4.97201 6.89551 4.95898C6.90527 4.94271 6.91667 4.92806 6.92969 4.91504C6.94271 4.89876 6.9541 4.88411 6.96387 4.87109C6.97689 4.85807 6.98503 4.84993 6.98828 4.84668C6.99805 4.82389 7.01432 4.78971 7.03711 4.74414C7.06315 4.69857 7.08757 4.65137 7.11035 4.60254C7.13639 4.55371 7.15918 4.50814 7.17871 4.46582C7.2015 4.42025 7.21452 4.38932 7.21777 4.37305C7.22103 4.36979 7.22591 4.3584 7.23242 4.33887C7.23893 4.31608 7.24544 4.29167 7.25195 4.26562C7.25846 4.23958 7.26497 4.21354 7.27148 4.1875C7.28125 4.16146 7.28939 4.13867 7.2959 4.11914C7.2959 4.09635 7.28776 4.07357 7.27148 4.05078C7.25846 4.02799 7.24056 4.00846 7.21777 3.99219C7.20475 3.99219 7.18034 3.99056 7.14453 3.9873C7.11198 3.98079 7.07617 3.97428 7.03711 3.96777C6.99805 3.96126 6.95898 3.95475 6.91992 3.94824C6.88411 3.94173 6.8597 3.93685 6.84668 3.93359C6.82064 3.92383 6.78809 3.91081 6.74902 3.89453C6.71322 3.87826 6.67741 3.86198 6.6416 3.8457C6.60579 3.82617 6.57487 3.8099 6.54883 3.79688C6.52279 3.7806 6.50977 3.76921 6.50977 3.7627C6.48047 3.74316 6.46582 3.71875 6.46582 3.68945C6.46582 3.6569 6.48047 3.62598 6.50977 3.59668C6.50977 3.58691 6.51628 3.57878 6.5293 3.57227C6.54557 3.56576 6.56185 3.5625 6.57812 3.5625C6.58789 3.55924 6.61068 3.55599 6.64648 3.55273C6.68555 3.54948 6.72461 3.54622 6.76367 3.54297C6.80599 3.53646 6.84505 3.53158 6.88086 3.52832C6.91667 3.52507 6.93945 3.52181 6.94922 3.51855C6.95573 3.51855 6.97201 3.51693 6.99805 3.51367C7.02734 3.50716 7.05827 3.50065 7.09082 3.49414C7.12337 3.48438 7.1543 3.47624 7.18359 3.46973C7.21615 3.46322 7.23893 3.45671 7.25195 3.4502C7.26172 3.4502 7.28776 3.45182 7.33008 3.45508C7.37565 3.45833 7.42611 3.46322 7.48145 3.46973C7.53678 3.47298 7.59049 3.47624 7.64258 3.47949C7.69792 3.48275 7.74023 3.48438 7.76953 3.48438C7.80208 3.48438 7.83301 3.47949 7.8623 3.46973C7.8916 3.45671 7.92741 3.4502 7.96973 3.4502C7.97298 3.45671 7.98438 3.46322 8.00391 3.46973C8.02344 3.47624 8.0446 3.48438 8.06738 3.49414C8.09017 3.50065 8.11133 3.50716 8.13086 3.51367C8.15365 3.51693 8.16829 3.51855 8.1748 3.51855C8.1748 3.52181 8.18294 3.52181 8.19922 3.51855C8.21875 3.5153 8.24805 3.51204 8.28711 3.50879C8.32943 3.50228 8.38477 3.4974 8.45312 3.49414C8.52148 3.48763 8.60612 3.48438 8.70703 3.48438C8.71354 3.48438 8.73145 3.47949 8.76074 3.46973C8.79004 3.45671 8.80794 3.4502 8.81445 3.4502C8.87956 3.44368 8.93652 3.4388 8.98535 3.43555C9.03743 3.42904 9.09603 3.42578 9.16113 3.42578C9.18066 3.42578 9.20996 3.42904 9.24902 3.43555C9.28809 3.44206 9.32552 3.45182 9.36133 3.46484C9.39714 3.47786 9.42806 3.49577 9.4541 3.51855C9.4834 3.54134 9.49805 3.56738 9.49805 3.59668C9.49805 3.62272 9.48828 3.64551 9.46875 3.66504C9.45247 3.68132 9.43783 3.70247 9.4248 3.72852C9.35645 3.77409 9.29622 3.81478 9.24414 3.85059C9.19531 3.88314 9.13346 3.91081 9.05859 3.93359C9.01953 3.94336 8.96908 3.95475 8.90723 3.96777C8.84863 3.97754 8.78841 3.99056 8.72656 4.00684C8.66797 4.01986 8.61263 4.03451 8.56055 4.05078C8.50846 4.0638 8.4694 4.08008 8.44336 4.09961C8.43685 4.10612 8.42383 4.11751 8.4043 4.13379C8.38802 4.15007 8.375 4.1582 8.36523 4.1582C8.36523 4.16471 8.36035 4.17936 8.35059 4.20215C8.34082 4.22168 8.33105 4.24447 8.32129 4.27051C8.31152 4.29329 8.30176 4.31608 8.29199 4.33887C8.28223 4.3584 8.27572 4.36979 8.27246 4.37305C8.27246 4.37305 8.26432 4.37956 8.24805 4.39258C8.23503 4.4056 8.22038 4.42025 8.2041 4.43652C8.19108 4.44954 8.17643 4.46419 8.16016 4.48047C8.14714 4.49349 8.14062 4.50163 8.14062 4.50488C8.13411 4.50488 8.12598 4.52116 8.11621 4.55371C8.1097 4.58301 8.10645 4.60091 8.10645 4.60742C8.09993 4.61393 8.08691 4.63184 8.06738 4.66113C8.05111 4.68717 8.03809 4.70345 8.02832 4.70996C8.02181 4.72624 8.01042 4.75065 7.99414 4.7832C7.97786 4.81576 7.96159 4.84831 7.94531 4.88086C7.92904 4.91016 7.91276 4.93783 7.89648 4.96387C7.88021 4.98991 7.86882 5.00618 7.8623 5.0127C7.83952 5.05827 7.82487 5.10221 7.81836 5.14453C7.8151 5.18685 7.81022 5.23405 7.80371 5.28613C7.80046 5.28939 7.79557 5.29915 7.78906 5.31543C7.78255 5.33171 7.77441 5.34961 7.76465 5.36914C7.75488 5.38867 7.74674 5.40658 7.74023 5.42285C7.73372 5.43913 7.72884 5.44889 7.72559 5.45215C7.7028 5.51725 7.6735 5.57585 7.6377 5.62793C7.60514 5.67676 7.57747 5.73372 7.55469 5.79883C7.54492 5.82161 7.53353 5.85254 7.52051 5.8916C7.51074 5.93066 7.50098 5.97135 7.49121 6.01367C7.48145 6.05599 7.47331 6.09668 7.4668 6.13574C7.46029 6.1748 7.45703 6.20573 7.45703 6.22852C7.45703 6.31966 7.47819 6.40267 7.52051 6.47754C7.5498 6.47754 7.59701 6.47917 7.66211 6.48242C7.72721 6.48568 7.79557 6.48893 7.86719 6.49219C7.9388 6.49544 8.00553 6.4987 8.06738 6.50195C8.13249 6.50521 8.17643 6.50684 8.19922 6.50684H8.67773C8.72982 6.50033 8.78027 6.4873 8.8291 6.46777C8.87793 6.44499 8.93001 6.43359 8.98535 6.43359C9.03092 6.43359 9.06999 6.44499 9.10254 6.46777C9.13509 6.4873 9.17741 6.50033 9.22949 6.50684H9.49316C9.49642 6.50684 9.5127 6.51823 9.54199 6.54102C9.57129 6.56055 9.58757 6.57031 9.59082 6.57031C9.6071 6.57357 9.63639 6.58171 9.67871 6.59473C9.72428 6.60449 9.75195 6.60938 9.76172 6.60938C9.77148 6.60938 9.79264 6.60775 9.8252 6.60449C9.85775 6.60124 9.89355 6.59798 9.93262 6.59473C9.97168 6.58822 10.0075 6.58333 10.04 6.58008C10.0726 6.57357 10.0921 6.57031 10.0986 6.57031H11.0215C11.1517 6.46615 11.2493 6.34896 11.3145 6.21875C11.3828 6.08529 11.4528 5.94531 11.5244 5.79883C11.5277 5.78906 11.5358 5.77279 11.5488 5.75C11.5618 5.72721 11.5765 5.7028 11.5928 5.67676C11.609 5.64746 11.6237 5.62142 11.6367 5.59863C11.6497 5.57585 11.6579 5.5612 11.6611 5.55469C11.6611 5.54818 11.666 5.5319 11.6758 5.50586C11.6888 5.47656 11.6953 5.45866 11.6953 5.45215C11.7083 5.43262 11.723 5.40169 11.7393 5.35938C11.7555 5.3138 11.7669 5.28939 11.7734 5.28613C11.7734 5.28288 11.7799 5.27311 11.793 5.25684C11.8092 5.2373 11.8239 5.21777 11.8369 5.19824C11.8532 5.17871 11.8678 5.16081 11.8809 5.14453C11.8939 5.12826 11.9004 5.11849 11.9004 5.11523C11.9004 5.10872 11.902 5.09408 11.9053 5.07129C11.9085 5.0485 11.9118 5.02409 11.915 4.99805C11.9215 4.97201 11.9264 4.94759 11.9297 4.9248C11.9329 4.90202 11.9362 4.88737 11.9395 4.88086C11.9395 4.87435 11.9492 4.85156 11.9688 4.8125C11.9883 4.77344 11.998 4.75065 11.998 4.74414C12.0046 4.72786 12.0127 4.7002 12.0225 4.66113C12.0355 4.62207 12.0485 4.58138 12.0615 4.53906C12.0745 4.49349 12.0843 4.44792 12.0908 4.40234C12.1006 4.35677 12.1071 4.31771 12.1104 4.28516C12.1104 4.23633 12.1022 4.19727 12.0859 4.16797C12.0729 4.13867 12.0534 4.11426 12.0273 4.09473C12.0046 4.0752 11.9753 4.05892 11.9395 4.0459C11.9069 4.02962 11.8711 4.01172 11.832 3.99219C11.8288 3.99219 11.819 3.98893 11.8027 3.98242C11.7897 3.97266 11.7734 3.96289 11.7539 3.95312C11.7376 3.9401 11.7197 3.92871 11.7002 3.91895C11.6839 3.90918 11.6709 3.90267 11.6611 3.89941C11.6579 3.89616 11.6465 3.88802 11.627 3.875C11.6074 3.86198 11.5863 3.84733 11.5635 3.83105C11.5439 3.81478 11.5228 3.80013 11.5 3.78711C11.4805 3.77409 11.4691 3.76595 11.4658 3.7627C11.4528 3.75618 11.4268 3.74154 11.3877 3.71875C11.3519 3.69596 11.3275 3.67643 11.3145 3.66016C11.3145 3.64062 11.3177 3.62109 11.3242 3.60156C11.3307 3.58203 11.3421 3.56901 11.3584 3.5625C11.3682 3.55273 11.3828 3.53971 11.4023 3.52344C11.4251 3.50716 11.4479 3.49251 11.4707 3.47949C11.4935 3.46322 11.513 3.4502 11.5293 3.44043C11.5488 3.43066 11.5586 3.42578 11.5586 3.42578H12.3105C12.3398 3.4388 12.3659 3.44694 12.3887 3.4502C12.4147 3.4502 12.4538 3.4502 12.5059 3.4502C12.5189 3.4502 12.5433 3.44043 12.5791 3.4209C12.6182 3.40137 12.6426 3.3916 12.6523 3.3916C12.6523 3.38835 12.6702 3.38509 12.7061 3.38184C12.7419 3.37858 12.7842 3.37533 12.833 3.37207C12.8851 3.36556 12.9388 3.36068 12.9941 3.35742C13.0527 3.35417 13.1064 3.35091 13.1553 3.34766C13.1553 3.35417 13.165 3.36068 13.1846 3.36719C13.2074 3.37044 13.2269 3.37533 13.2432 3.38184C13.3311 3.3916 13.4189 3.40137 13.5068 3.41113C13.598 3.4209 13.6582 3.42578 13.6875 3.42578C13.7135 3.44206 13.7493 3.45508 13.7949 3.46484C13.8405 3.47461 13.8861 3.48438 13.9316 3.49414C13.9772 3.50391 14.0163 3.51855 14.0488 3.53809C14.0846 3.55436 14.1025 3.57878 14.1025 3.61133C14.1025 3.66016 14.0895 3.7041 14.0635 3.74316C14.0407 3.77897 14.0098 3.8099 13.9707 3.83594C13.9349 3.86198 13.8958 3.88639 13.8535 3.90918C13.8112 3.92871 13.7705 3.94499 13.7314 3.95801Z" fill="black" stroke="black" stroke-width="0.5"/>
<defs>
<linearGradient id="paint0_linear_6856_23" x1="20.5" y1="-1.02978e-07" x2="19" y2="14" gradientUnits="userSpaceOnUse">
<stop stop-color="#C2FFA5"/>
<stop offset="1" stop-color="#267C53"/>
</linearGradient>
</defs>
</svg>
