<svg width="523" height="432" viewBox="0 0 523 432" fill="none" xmlns="http://www.w3.org/2000/svg">
<g filter="url(#filter0_b_3787_2807)">
<rect width="523" height="186" rx="20" fill="#73C192" fill-opacity="0.1"/>
<rect x="0.5" y="0.5" width="522" height="185" rx="19.5" stroke="url(#paint0_linear_3787_2807)"/>
</g>
<g filter="url(#filter1_b_3787_2807)">
<rect y="246" width="523" height="186" rx="20" fill="#481F16" fill-opacity="0.2"/>
<rect x="0.5" y="246.5" width="522" height="185" rx="19.5" stroke="url(#paint1_linear_3787_2807)"/>
</g>
<path d="M277.354 141.646C277.158 141.451 276.842 141.451 276.646 141.646L273.464 144.828C273.269 145.024 273.269 145.34 273.464 145.536C273.66 145.731 273.976 145.731 274.172 145.536L277 142.707L279.828 145.536C280.024 145.731 280.34 145.731 280.536 145.536C280.731 145.34 280.731 145.024 280.536 144.828L277.354 141.646ZM277.5 268L277.5 142L276.5 142L276.5 268L277.5 268Z" fill="white"/>
<path d="M340.354 141.646C340.158 141.451 339.842 141.451 339.646 141.646L336.464 144.828C336.269 145.024 336.269 145.34 336.464 145.536C336.66 145.731 336.976 145.731 337.172 145.536L340 142.707L342.828 145.536C343.024 145.731 343.34 145.731 343.536 145.536C343.731 145.34 343.731 145.024 343.536 144.828L340.354 141.646ZM340.5 268L340.5 142L339.5 142L339.5 268L340.5 268Z" fill="white"/>
<path d="M412.354 141.646C412.158 141.451 411.842 141.451 411.646 141.646L408.464 144.828C408.269 145.024 408.269 145.34 408.464 145.536C408.66 145.731 408.976 145.731 409.172 145.536L412 142.707L414.828 145.536C415.024 145.731 415.34 145.731 415.536 145.536C415.731 145.34 415.731 145.024 415.536 144.828L412.354 141.646ZM412.5 268L412.5 142L411.5 142L411.5 268L412.5 268Z" fill="white"/>
<path d="M48.4688 332.703C48.4688 333.283 48.3971 333.8 48.2539 334.256C48.1107 334.712 47.9154 335.115 47.668 335.467C47.4271 335.812 47.1471 336.108 46.8281 336.355C46.5091 336.603 46.1738 336.808 45.8223 336.971C45.4772 337.127 45.1257 337.241 44.7676 337.312C44.416 337.384 44.084 337.42 43.7715 337.42L49.0742 342H45.1484L39.8555 337.42H38.0293V334.881H43.7715C44.0905 334.855 44.3802 334.79 44.6406 334.686C44.9076 334.575 45.1354 334.428 45.3242 334.246C45.5195 334.064 45.6693 333.846 45.7734 333.592C45.8776 333.331 45.9297 333.035 45.9297 332.703V331.102C45.9297 330.958 45.9102 330.851 45.8711 330.779C45.8385 330.701 45.793 330.646 45.7344 330.613C45.6823 330.574 45.6237 330.551 45.5586 330.545C45.5 330.538 45.4447 330.535 45.3926 330.535H37.0137V342H34.4746V329.275C34.4746 329.1 34.5072 328.934 34.5723 328.777C34.6374 328.621 34.7253 328.484 34.8359 328.367C34.9531 328.25 35.0898 328.159 35.2461 328.094C35.4023 328.029 35.5716 327.996 35.7539 327.996H45.3926C45.959 327.996 46.4375 328.1 46.8281 328.309C47.2188 328.51 47.5345 328.768 47.7754 329.08C48.0228 329.386 48.1986 329.718 48.3027 330.076C48.4134 330.434 48.4688 330.77 48.4688 331.082V332.703ZM62.1016 338.436C62.1016 338.872 62.0462 339.266 61.9355 339.617C61.8249 339.962 61.6784 340.268 61.4961 340.535C61.3138 340.796 61.1022 341.02 60.8613 341.209C60.6204 341.391 60.3665 341.541 60.0996 341.658C59.8392 341.775 59.5723 341.863 59.2988 341.922C59.0319 341.974 58.778 342 58.5371 342H53.957C53.6055 342 53.2214 341.938 52.8047 341.814C52.388 341.691 52.0007 341.489 51.6426 341.209C51.291 340.923 50.9948 340.555 50.7539 340.105C50.5195 339.65 50.4023 339.093 50.4023 338.436V334.998C50.4023 334.347 50.5195 333.797 50.7539 333.348C50.9948 332.892 51.291 332.524 51.6426 332.244C52.0007 331.958 52.388 331.753 52.8047 331.629C53.2214 331.505 53.6055 331.443 53.957 331.443H58.5371C59.1882 331.443 59.7415 331.561 60.1973 331.795C60.653 332.029 61.0208 332.326 61.3008 332.684C61.5807 333.035 61.7826 333.419 61.9062 333.836C62.0365 334.253 62.1016 334.64 62.1016 334.998V338.436ZM59.5625 335.018C59.5625 334.666 59.4746 334.406 59.2988 334.236C59.123 334.067 58.8691 333.982 58.5371 333.982H53.9766C53.638 333.982 53.3809 334.07 53.2051 334.246C53.0293 334.415 52.9414 334.666 52.9414 334.998V338.436C52.9414 338.768 53.0293 339.021 53.2051 339.197C53.3809 339.373 53.638 339.461 53.9766 339.461H58.5371C58.8822 339.461 59.1393 339.373 59.3086 339.197C59.4779 339.021 59.5625 338.768 59.5625 338.436V335.018ZM68.9082 342H67.7754C67.4108 342 67.0202 341.938 66.6035 341.814C66.1934 341.691 65.8092 341.489 65.4512 341.209C65.0931 340.923 64.7969 340.555 64.5625 340.105C64.3281 339.65 64.2109 339.093 64.2109 338.436V326.98H66.75V338.436C66.75 338.748 66.8477 338.999 67.043 339.188C67.2383 339.37 67.4824 339.461 67.7754 339.461H68.9082V342ZM75.1777 342H74.0449C73.6803 342 73.2897 341.938 72.873 341.814C72.4629 341.691 72.0788 341.489 71.7207 341.209C71.3626 340.923 71.0664 340.555 70.832 340.105C70.5977 339.65 70.4805 339.093 70.4805 338.436V326.98H73.0195V338.436C73.0195 338.748 73.1172 338.999 73.3125 339.188C73.5078 339.37 73.752 339.461 74.0449 339.461H75.1777V342ZM88.1953 340.721C88.1953 340.903 88.1628 341.072 88.0977 341.229C88.0326 341.385 87.9414 341.521 87.8242 341.639C87.7135 341.749 87.5801 341.837 87.4238 341.902C87.2741 341.967 87.1113 342 86.9355 342H81.1934C80.8809 342 80.5456 341.964 80.1875 341.893C79.8359 341.821 79.4876 341.707 79.1426 341.551C78.7975 341.388 78.4622 341.186 78.1367 340.945C77.8177 340.698 77.5378 340.402 77.2969 340.057C77.056 339.705 76.8607 339.301 76.7109 338.846C76.5677 338.39 76.4961 337.876 76.4961 337.303V331.443H79.0352V337.303C79.0352 337.635 79.0905 337.934 79.2012 338.201C79.3184 338.462 79.4746 338.686 79.6699 338.875C79.8652 339.064 80.0931 339.21 80.3535 339.314C80.6204 339.412 80.9069 339.461 81.2129 339.461H85.6562V331.443H88.1953V340.721ZM102.219 338.436C102.219 338.872 102.163 339.266 102.053 339.617C101.942 339.962 101.796 340.268 101.613 340.535C101.431 340.796 101.219 341.02 100.979 341.209C100.738 341.391 100.484 341.541 100.217 341.658C99.9564 341.775 99.6927 341.863 99.4258 341.922C99.1589 341.974 98.9049 342 98.6641 342H94.084V339.461H98.6641C99.0026 339.461 99.2565 339.373 99.4258 339.197C99.5951 339.021 99.6797 338.768 99.6797 338.436V335.018C99.6797 334.666 99.5918 334.406 99.416 334.236C99.2467 334.067 98.9961 333.982 98.6641 333.982H94.1035C93.7585 333.982 93.498 334.07 93.3223 334.246C93.1465 334.415 93.0586 334.666 93.0586 334.998V345.301H90.5195V334.998C90.5195 334.562 90.5749 334.171 90.6855 333.826C90.7962 333.481 90.9427 333.178 91.125 332.918C91.3138 332.651 91.5286 332.426 91.7695 332.244C92.0104 332.055 92.2611 331.902 92.5215 331.785C92.7884 331.668 93.0553 331.583 93.3223 331.531C93.5957 331.473 93.8496 331.443 94.084 331.443H98.6641C99.1003 331.443 99.4909 331.499 99.8359 331.609C100.181 331.72 100.484 331.867 100.744 332.049C101.011 332.231 101.236 332.443 101.418 332.684C101.607 332.924 101.76 333.178 101.877 333.445C101.994 333.706 102.079 333.969 102.131 334.236C102.189 334.503 102.219 334.757 102.219 334.998V338.436Z" fill="white"/>
<path d="M246.136 412.328V403.704H243.416V402.344H250.536V403.704H247.688V412.328H246.136ZM251.528 412.328L254.168 407.24L251.576 402.344H253.192L255.016 405.8L256.808 402.344H258.344L255.896 407.224L258.648 412.328H256.968L255.032 408.712L253.16 412.328H251.528Z" fill="white"/>
<path d="M260.856 414.785L262.984 412.193L263.152 412.713L261.024 415.289L260.856 414.785ZM262 416.273C261.659 416.273 261.363 416.174 261.112 415.977C260.867 415.78 260.677 415.492 260.544 415.113C260.416 414.729 260.352 414.265 260.352 413.721C260.352 413.182 260.416 412.721 260.544 412.337C260.677 411.953 260.867 411.66 261.112 411.457C261.363 411.249 261.659 411.145 262 411.145C262.341 411.145 262.635 411.249 262.88 411.457C263.131 411.66 263.32 411.953 263.448 412.337C263.581 412.721 263.648 413.182 263.648 413.721C263.648 414.265 263.581 414.729 263.448 415.113C263.32 415.492 263.131 415.78 262.88 415.977C262.635 416.174 262.341 416.273 262 416.273ZM262 415.657C262.197 415.657 262.36 415.582 262.488 415.433C262.621 415.278 262.723 415.057 262.792 414.769C262.861 414.481 262.896 414.132 262.896 413.721C262.896 413.321 262.861 412.977 262.792 412.689C262.723 412.401 262.621 412.18 262.488 412.025C262.36 411.865 262.197 411.785 262 411.785C261.808 411.785 261.645 411.865 261.512 412.025C261.379 412.18 261.277 412.401 261.208 412.689C261.139 412.977 261.104 413.321 261.104 413.721C261.104 414.132 261.139 414.481 261.208 414.769C261.277 415.057 261.379 415.278 261.512 415.433C261.645 415.582 261.808 415.657 262 415.657Z" fill="white"/>
<path d="M310.136 412.328V403.704H307.416V402.344H314.536V403.704H311.688V412.328H310.136ZM315.528 412.328L318.168 407.24L315.576 402.344H317.192L319.016 405.8L320.808 402.344H322.344L319.896 407.224L322.648 412.328H320.968L319.032 408.712L317.16 412.328H315.528Z" fill="white"/>
<path d="M325.72 416.185V412.081L324.784 412.393L324.608 411.897L325.936 411.193H326.512V416.185H325.72Z" fill="white"/>
<path d="M372.136 412.328V403.704H369.416V402.344H376.536V403.704H373.688V412.328H372.136ZM377.528 412.328L380.168 407.24L377.576 402.344H379.192L381.016 405.8L382.808 402.344H384.344L381.896 407.224L384.648 412.328H382.968L381.032 408.712L379.16 412.328H377.528Z" fill="white"/>
<path d="M386.504 415.593C386.803 415.294 387.072 415.028 387.312 414.793C387.552 414.553 387.763 414.337 387.944 414.145C388.131 413.948 388.285 413.766 388.408 413.601C388.531 413.43 388.621 413.262 388.68 413.097C388.744 412.932 388.776 412.756 388.776 412.569C388.776 412.436 388.757 412.321 388.72 412.225C388.688 412.129 388.64 412.052 388.576 411.993C388.512 411.929 388.432 411.884 388.336 411.857C388.245 411.825 388.141 411.809 388.024 411.809C387.907 411.809 387.795 411.825 387.688 411.857C387.587 411.884 387.488 411.929 387.392 411.993C387.301 412.052 387.216 412.129 387.136 412.225C387.083 412.3 387.051 412.356 387.04 412.393C387.029 412.43 387.027 412.47 387.032 412.513L386.992 412.569L386.928 412.529L386.384 412.105C386.496 411.897 386.635 411.721 386.8 411.577C386.971 411.433 387.16 411.326 387.368 411.257C387.576 411.182 387.795 411.145 388.024 411.145C388.317 411.145 388.576 411.204 388.8 411.321C389.029 411.438 389.211 411.604 389.344 411.817C389.477 412.03 389.544 412.284 389.544 412.577C389.544 412.785 389.509 412.985 389.44 413.177C389.376 413.369 389.283 413.558 389.16 413.745C389.037 413.926 388.893 414.11 388.728 414.297C388.563 414.484 388.379 414.678 388.176 414.881C387.973 415.084 387.757 415.3 387.528 415.529H389.192C389.283 415.529 389.347 415.524 389.384 415.513C389.421 415.502 389.456 415.484 389.488 415.457H389.56V415.529V416.185H386.504V415.593Z" fill="white"/>
<path d="M228.48 188V181.77H230.42C230.92 181.77 231.327 181.847 231.64 182C231.96 182.147 232.193 182.357 232.34 182.63C232.493 182.897 232.57 183.213 232.57 183.58C232.57 183.813 232.52 184.047 232.42 184.28C232.327 184.507 232.187 184.71 232 184.89C231.82 185.063 231.607 185.19 231.36 185.27L232.74 188H231.69L230.38 185.36H229.49V188H228.48ZM229.49 184.53H230.49C230.85 184.53 231.117 184.447 231.29 184.28C231.47 184.107 231.56 183.88 231.56 183.6C231.56 183.427 231.52 183.267 231.44 183.12C231.367 182.973 231.25 182.857 231.09 182.77C230.937 182.683 230.737 182.64 230.49 182.64H229.49V184.53ZM235.5 188.1C235.08 188.1 234.707 188 234.38 187.8C234.053 187.593 233.793 187.31 233.6 186.95C233.407 186.583 233.31 186.163 233.31 185.69C233.31 185.223 233.407 184.81 233.6 184.45C233.793 184.083 234.053 183.797 234.38 183.59C234.707 183.377 235.08 183.27 235.5 183.27C235.913 183.27 236.283 183.377 236.61 183.59C236.943 183.797 237.207 184.083 237.4 184.45C237.593 184.81 237.69 185.223 237.69 185.69C237.69 186.157 237.593 186.573 237.4 186.94C237.207 187.3 236.943 187.583 236.61 187.79C236.283 187.997 235.913 188.1 235.5 188.1ZM235.5 187.29C235.727 187.29 235.927 187.223 236.1 187.09C236.28 186.95 236.42 186.76 236.52 186.52C236.62 186.28 236.67 186 236.67 185.68C236.67 185.353 236.62 185.07 236.52 184.83C236.42 184.59 236.28 184.403 236.1 184.27C235.927 184.137 235.727 184.07 235.5 184.07C235.273 184.07 235.07 184.137 234.89 184.27C234.717 184.403 234.58 184.59 234.48 184.83C234.38 185.07 234.33 185.353 234.33 185.68C234.33 186 234.38 186.28 234.48 186.52C234.58 186.76 234.717 186.95 234.89 187.09C235.07 187.223 235.273 187.29 235.5 187.29ZM238.68 188V187.21H240V182.1H238.74V181.31H241.01V187.21H242.32V188H238.68ZM243.68 188V187.21H245V182.1H243.74V181.31H246.01V187.21H247.32V188H243.68ZM250.71 188.11C250.377 188.11 250.07 188.057 249.79 187.95C249.51 187.843 249.267 187.69 249.06 187.49C248.86 187.283 248.703 187.03 248.59 186.73C248.477 186.43 248.42 186.09 248.42 185.71C248.42 185.323 248.477 184.98 248.59 184.68C248.703 184.373 248.857 184.117 249.05 183.91C249.25 183.703 249.48 183.543 249.74 183.43C250.007 183.317 250.29 183.26 250.59 183.26C250.85 183.26 251.097 183.307 251.33 183.4C251.57 183.493 251.777 183.633 251.95 183.82C252.13 184 252.27 184.23 252.37 184.51C252.477 184.79 252.53 185.117 252.53 185.49C252.53 185.557 252.53 185.633 252.53 185.72C252.53 185.8 252.527 185.87 252.52 185.93H249.38C249.393 186.17 249.44 186.38 249.52 186.56C249.6 186.733 249.7 186.877 249.82 186.99C249.947 187.103 250.09 187.187 250.25 187.24C250.41 187.293 250.577 187.32 250.75 187.32C250.903 187.32 251.043 187.307 251.17 187.28C251.303 187.247 251.43 187.197 251.55 187.13C251.67 187.063 251.78 186.973 251.88 186.86L252.4 187.37C252.26 187.537 252.103 187.677 251.93 187.79C251.757 187.897 251.567 187.977 251.36 188.03C251.16 188.083 250.943 188.11 250.71 188.11ZM249.4 185.18H251.56C251.56 184.993 251.537 184.83 251.49 184.69C251.443 184.55 251.373 184.43 251.28 184.33C251.193 184.23 251.087 184.157 250.96 184.11C250.833 184.057 250.693 184.03 250.54 184.03C250.393 184.03 250.257 184.053 250.13 184.1C250.01 184.147 249.9 184.217 249.8 184.31C249.7 184.403 249.613 184.523 249.54 184.67C249.473 184.81 249.427 184.98 249.4 185.18ZM255.28 188.11C255.033 188.11 254.793 188.06 254.56 187.96C254.333 187.853 254.13 187.7 253.95 187.5C253.77 187.3 253.627 187.047 253.52 186.74C253.42 186.427 253.37 186.067 253.37 185.66C253.37 185.247 253.42 184.89 253.52 184.59C253.627 184.29 253.77 184.043 253.95 183.85C254.13 183.65 254.337 183.503 254.57 183.41C254.803 183.31 255.047 183.26 255.3 183.26C255.48 183.26 255.643 183.283 255.79 183.33C255.943 183.377 256.08 183.447 256.2 183.54C256.32 183.633 256.417 183.75 256.49 183.89V181.31H257.46H257.55V181.4C257.517 181.44 257.493 181.483 257.48 181.53C257.467 181.577 257.463 181.657 257.47 181.77V187.35C257.47 187.457 257.473 187.567 257.48 187.68C257.493 187.787 257.523 187.893 257.57 188H256.59C256.557 187.927 256.533 187.86 256.52 187.8C256.507 187.74 256.5 187.68 256.5 187.62C256.5 187.56 256.5 187.497 256.5 187.43C256.407 187.57 256.3 187.693 256.18 187.8C256.06 187.9 255.923 187.977 255.77 188.03C255.617 188.083 255.453 188.11 255.28 188.11ZM255.45 187.29C255.63 187.29 255.783 187.253 255.91 187.18C256.037 187.107 256.14 187 256.22 186.86C256.3 186.72 256.36 186.55 256.4 186.35C256.44 186.15 256.46 185.923 256.46 185.67C256.46 185.33 256.423 185.04 256.35 184.8C256.277 184.553 256.16 184.367 256 184.24C255.847 184.107 255.65 184.04 255.41 184.04C255.237 184.04 255.083 184.077 254.95 184.15C254.817 184.223 254.703 184.33 254.61 184.47C254.523 184.603 254.457 184.767 254.41 184.96C254.363 185.153 254.34 185.37 254.34 185.61C254.34 185.95 254.387 186.247 254.48 186.5C254.58 186.753 254.713 186.95 254.88 187.09C255.047 187.223 255.237 187.29 255.45 187.29ZM265.5 188.12C264.827 188.12 264.31 187.92 263.95 187.52C263.59 187.113 263.41 186.55 263.41 185.83V181.77H264.38H264.48V181.86C264.44 181.9 264.413 181.943 264.4 181.99C264.393 182.037 264.39 182.117 264.39 182.23V185.84C264.39 186.293 264.47 186.653 264.63 186.92C264.797 187.187 265.09 187.32 265.51 187.32C265.937 187.32 266.233 187.187 266.4 186.92C266.567 186.653 266.65 186.283 266.65 185.81V181.77H267.62V185.8C267.62 186.333 267.53 186.77 267.35 187.11C267.17 187.45 266.92 187.703 266.6 187.87C266.287 188.037 265.92 188.12 265.5 188.12ZM268.52 189.67V183.37H269.51V184.11C269.597 183.91 269.707 183.75 269.84 183.63C269.98 183.503 270.133 183.413 270.3 183.36C270.467 183.3 270.647 183.27 270.84 183.27C271.093 183.27 271.33 183.323 271.55 183.43C271.777 183.53 271.977 183.68 272.15 183.88C272.323 184.08 272.46 184.33 272.56 184.63C272.66 184.93 272.71 185.28 272.71 185.68C272.71 186.087 272.657 186.443 272.55 186.75C272.443 187.057 272.3 187.313 272.12 187.52C271.947 187.72 271.747 187.87 271.52 187.97C271.293 188.07 271.06 188.12 270.82 188.12C270.653 188.12 270.487 188.097 270.32 188.05C270.16 188.01 270.013 187.947 269.88 187.86C269.747 187.767 269.63 187.66 269.53 187.54V189.67H268.52ZM270.57 187.32C270.723 187.32 270.867 187.293 271 187.24C271.133 187.18 271.253 187.09 271.36 186.97C271.467 186.843 271.55 186.673 271.61 186.46C271.67 186.24 271.7 185.973 271.7 185.66C271.7 185.327 271.657 185.043 271.57 184.81C271.49 184.577 271.37 184.397 271.21 184.27C271.057 184.143 270.87 184.077 270.65 184.07C270.483 184.063 270.33 184.093 270.19 184.16C270.05 184.22 269.93 184.32 269.83 184.46C269.73 184.593 269.653 184.773 269.6 185C269.553 185.22 269.53 185.483 269.53 185.79C269.53 185.997 269.543 186.183 269.57 186.35C269.603 186.51 269.65 186.653 269.71 186.78C269.77 186.9 269.84 187 269.92 187.08C270.007 187.16 270.103 187.22 270.21 187.26C270.323 187.3 270.443 187.32 270.57 187.32Z" fill="white"/>
<path d="M292.48 188V181.77H294.42C294.92 181.77 295.327 181.847 295.64 182C295.96 182.147 296.193 182.357 296.34 182.63C296.493 182.897 296.57 183.213 296.57 183.58C296.57 183.813 296.52 184.047 296.42 184.28C296.327 184.507 296.187 184.71 296 184.89C295.82 185.063 295.607 185.19 295.36 185.27L296.74 188H295.69L294.38 185.36H293.49V188H292.48ZM293.49 184.53H294.49C294.85 184.53 295.117 184.447 295.29 184.28C295.47 184.107 295.56 183.88 295.56 183.6C295.56 183.427 295.52 183.267 295.44 183.12C295.367 182.973 295.25 182.857 295.09 182.77C294.937 182.683 294.737 182.64 294.49 182.64H293.49V184.53ZM299.5 188.1C299.08 188.1 298.707 188 298.38 187.8C298.053 187.593 297.793 187.31 297.6 186.95C297.407 186.583 297.31 186.163 297.31 185.69C297.31 185.223 297.407 184.81 297.6 184.45C297.793 184.083 298.053 183.797 298.38 183.59C298.707 183.377 299.08 183.27 299.5 183.27C299.913 183.27 300.283 183.377 300.61 183.59C300.943 183.797 301.207 184.083 301.4 184.45C301.593 184.81 301.69 185.223 301.69 185.69C301.69 186.157 301.593 186.573 301.4 186.94C301.207 187.3 300.943 187.583 300.61 187.79C300.283 187.997 299.913 188.1 299.5 188.1ZM299.5 187.29C299.727 187.29 299.927 187.223 300.1 187.09C300.28 186.95 300.42 186.76 300.52 186.52C300.62 186.28 300.67 186 300.67 185.68C300.67 185.353 300.62 185.07 300.52 184.83C300.42 184.59 300.28 184.403 300.1 184.27C299.927 184.137 299.727 184.07 299.5 184.07C299.273 184.07 299.07 184.137 298.89 184.27C298.717 184.403 298.58 184.59 298.48 184.83C298.38 185.07 298.33 185.353 298.33 185.68C298.33 186 298.38 186.28 298.48 186.52C298.58 186.76 298.717 186.95 298.89 187.09C299.07 187.223 299.273 187.29 299.5 187.29ZM302.68 188V187.21H304V182.1H302.74V181.31H305.01V187.21H306.32V188H302.68ZM307.68 188V187.21H309V182.1H307.74V181.31H310.01V187.21H311.32V188H307.68ZM314.71 188.11C314.377 188.11 314.07 188.057 313.79 187.95C313.51 187.843 313.267 187.69 313.06 187.49C312.86 187.283 312.703 187.03 312.59 186.73C312.477 186.43 312.42 186.09 312.42 185.71C312.42 185.323 312.477 184.98 312.59 184.68C312.703 184.373 312.857 184.117 313.05 183.91C313.25 183.703 313.48 183.543 313.74 183.43C314.007 183.317 314.29 183.26 314.59 183.26C314.85 183.26 315.097 183.307 315.33 183.4C315.57 183.493 315.777 183.633 315.95 183.82C316.13 184 316.27 184.23 316.37 184.51C316.477 184.79 316.53 185.117 316.53 185.49C316.53 185.557 316.53 185.633 316.53 185.72C316.53 185.8 316.527 185.87 316.52 185.93H313.38C313.393 186.17 313.44 186.38 313.52 186.56C313.6 186.733 313.7 186.877 313.82 186.99C313.947 187.103 314.09 187.187 314.25 187.24C314.41 187.293 314.577 187.32 314.75 187.32C314.903 187.32 315.043 187.307 315.17 187.28C315.303 187.247 315.43 187.197 315.55 187.13C315.67 187.063 315.78 186.973 315.88 186.86L316.4 187.37C316.26 187.537 316.103 187.677 315.93 187.79C315.757 187.897 315.567 187.977 315.36 188.03C315.16 188.083 314.943 188.11 314.71 188.11ZM313.4 185.18H315.56C315.56 184.993 315.537 184.83 315.49 184.69C315.443 184.55 315.373 184.43 315.28 184.33C315.193 184.23 315.087 184.157 314.96 184.11C314.833 184.057 314.693 184.03 314.54 184.03C314.393 184.03 314.257 184.053 314.13 184.1C314.01 184.147 313.9 184.217 313.8 184.31C313.7 184.403 313.613 184.523 313.54 184.67C313.473 184.81 313.427 184.98 313.4 185.18ZM319.28 188.11C319.033 188.11 318.793 188.06 318.56 187.96C318.333 187.853 318.13 187.7 317.95 187.5C317.77 187.3 317.627 187.047 317.52 186.74C317.42 186.427 317.37 186.067 317.37 185.66C317.37 185.247 317.42 184.89 317.52 184.59C317.627 184.29 317.77 184.043 317.95 183.85C318.13 183.65 318.337 183.503 318.57 183.41C318.803 183.31 319.047 183.26 319.3 183.26C319.48 183.26 319.643 183.283 319.79 183.33C319.943 183.377 320.08 183.447 320.2 183.54C320.32 183.633 320.417 183.75 320.49 183.89V181.31H321.46H321.55V181.4C321.517 181.44 321.493 181.483 321.48 181.53C321.467 181.577 321.463 181.657 321.47 181.77V187.35C321.47 187.457 321.473 187.567 321.48 187.68C321.493 187.787 321.523 187.893 321.57 188H320.59C320.557 187.927 320.533 187.86 320.52 187.8C320.507 187.74 320.5 187.68 320.5 187.62C320.5 187.56 320.5 187.497 320.5 187.43C320.407 187.57 320.3 187.693 320.18 187.8C320.06 187.9 319.923 187.977 319.77 188.03C319.617 188.083 319.453 188.11 319.28 188.11ZM319.45 187.29C319.63 187.29 319.783 187.253 319.91 187.18C320.037 187.107 320.14 187 320.22 186.86C320.3 186.72 320.36 186.55 320.4 186.35C320.44 186.15 320.46 185.923 320.46 185.67C320.46 185.33 320.423 185.04 320.35 184.8C320.277 184.553 320.16 184.367 320 184.24C319.847 184.107 319.65 184.04 319.41 184.04C319.237 184.04 319.083 184.077 318.95 184.15C318.817 184.223 318.703 184.33 318.61 184.47C318.523 184.603 318.457 184.767 318.41 184.96C318.363 185.153 318.34 185.37 318.34 185.61C318.34 185.95 318.387 186.247 318.48 186.5C318.58 186.753 318.713 186.95 318.88 187.09C319.047 187.223 319.237 187.29 319.45 187.29ZM329.5 188.12C328.827 188.12 328.31 187.92 327.95 187.52C327.59 187.113 327.41 186.55 327.41 185.83V181.77H328.38H328.48V181.86C328.44 181.9 328.413 181.943 328.4 181.99C328.393 182.037 328.39 182.117 328.39 182.23V185.84C328.39 186.293 328.47 186.653 328.63 186.92C328.797 187.187 329.09 187.32 329.51 187.32C329.937 187.32 330.233 187.187 330.4 186.92C330.567 186.653 330.65 186.283 330.65 185.81V181.77H331.62V185.8C331.62 186.333 331.53 186.77 331.35 187.11C331.17 187.45 330.92 187.703 330.6 187.87C330.287 188.037 329.92 188.12 329.5 188.12ZM332.52 189.67V183.37H333.51V184.11C333.597 183.91 333.707 183.75 333.84 183.63C333.98 183.503 334.133 183.413 334.3 183.36C334.467 183.3 334.647 183.27 334.84 183.27C335.093 183.27 335.33 183.323 335.55 183.43C335.777 183.53 335.977 183.68 336.15 183.88C336.323 184.08 336.46 184.33 336.56 184.63C336.66 184.93 336.71 185.28 336.71 185.68C336.71 186.087 336.657 186.443 336.55 186.75C336.443 187.057 336.3 187.313 336.12 187.52C335.947 187.72 335.747 187.87 335.52 187.97C335.293 188.07 335.06 188.12 334.82 188.12C334.653 188.12 334.487 188.097 334.32 188.05C334.16 188.01 334.013 187.947 333.88 187.86C333.747 187.767 333.63 187.66 333.53 187.54V189.67H332.52ZM334.57 187.32C334.723 187.32 334.867 187.293 335 187.24C335.133 187.18 335.253 187.09 335.36 186.97C335.467 186.843 335.55 186.673 335.61 186.46C335.67 186.24 335.7 185.973 335.7 185.66C335.7 185.327 335.657 185.043 335.57 184.81C335.49 184.577 335.37 184.397 335.21 184.27C335.057 184.143 334.87 184.077 334.65 184.07C334.483 184.063 334.33 184.093 334.19 184.16C334.05 184.22 333.93 184.32 333.83 184.46C333.73 184.593 333.653 184.773 333.6 185C333.553 185.22 333.53 185.483 333.53 185.79C333.53 185.997 333.543 186.183 333.57 186.35C333.603 186.51 333.65 186.653 333.71 186.78C333.77 186.9 333.84 187 333.92 187.08C334.007 187.16 334.103 187.22 334.21 187.26C334.323 187.3 334.443 187.32 334.57 187.32Z" fill="white"/>
<path d="M364.48 189V182.77H366.42C366.92 182.77 367.327 182.847 367.64 183C367.96 183.147 368.193 183.357 368.34 183.63C368.493 183.897 368.57 184.213 368.57 184.58C368.57 184.813 368.52 185.047 368.42 185.28C368.327 185.507 368.187 185.71 368 185.89C367.82 186.063 367.607 186.19 367.36 186.27L368.74 189H367.69L366.38 186.36H365.49V189H364.48ZM365.49 185.53H366.49C366.85 185.53 367.117 185.447 367.29 185.28C367.47 185.107 367.56 184.88 367.56 184.6C367.56 184.427 367.52 184.267 367.44 184.12C367.367 183.973 367.25 183.857 367.09 183.77C366.937 183.683 366.737 183.64 366.49 183.64H365.49V185.53ZM371.5 189.1C371.08 189.1 370.707 189 370.38 188.8C370.053 188.593 369.793 188.31 369.6 187.95C369.407 187.583 369.31 187.163 369.31 186.69C369.31 186.223 369.407 185.81 369.6 185.45C369.793 185.083 370.053 184.797 370.38 184.59C370.707 184.377 371.08 184.27 371.5 184.27C371.913 184.27 372.283 184.377 372.61 184.59C372.943 184.797 373.207 185.083 373.4 185.45C373.593 185.81 373.69 186.223 373.69 186.69C373.69 187.157 373.593 187.573 373.4 187.94C373.207 188.3 372.943 188.583 372.61 188.79C372.283 188.997 371.913 189.1 371.5 189.1ZM371.5 188.29C371.727 188.29 371.927 188.223 372.1 188.09C372.28 187.95 372.42 187.76 372.52 187.52C372.62 187.28 372.67 187 372.67 186.68C372.67 186.353 372.62 186.07 372.52 185.83C372.42 185.59 372.28 185.403 372.1 185.27C371.927 185.137 371.727 185.07 371.5 185.07C371.273 185.07 371.07 185.137 370.89 185.27C370.717 185.403 370.58 185.59 370.48 185.83C370.38 186.07 370.33 186.353 370.33 186.68C370.33 187 370.38 187.28 370.48 187.52C370.58 187.76 370.717 187.95 370.89 188.09C371.07 188.223 371.273 188.29 371.5 188.29ZM374.68 189V188.21H376V183.1H374.74V182.31H377.01V188.21H378.32V189H374.68ZM379.68 189V188.21H381V183.1H379.74V182.31H382.01V188.21H383.32V189H379.68ZM386.71 189.11C386.377 189.11 386.07 189.057 385.79 188.95C385.51 188.843 385.267 188.69 385.06 188.49C384.86 188.283 384.703 188.03 384.59 187.73C384.477 187.43 384.42 187.09 384.42 186.71C384.42 186.323 384.477 185.98 384.59 185.68C384.703 185.373 384.857 185.117 385.05 184.91C385.25 184.703 385.48 184.543 385.74 184.43C386.007 184.317 386.29 184.26 386.59 184.26C386.85 184.26 387.097 184.307 387.33 184.4C387.57 184.493 387.777 184.633 387.95 184.82C388.13 185 388.27 185.23 388.37 185.51C388.477 185.79 388.53 186.117 388.53 186.49C388.53 186.557 388.53 186.633 388.53 186.72C388.53 186.8 388.527 186.87 388.52 186.93H385.38C385.393 187.17 385.44 187.38 385.52 187.56C385.6 187.733 385.7 187.877 385.82 187.99C385.947 188.103 386.09 188.187 386.25 188.24C386.41 188.293 386.577 188.32 386.75 188.32C386.903 188.32 387.043 188.307 387.17 188.28C387.303 188.247 387.43 188.197 387.55 188.13C387.67 188.063 387.78 187.973 387.88 187.86L388.4 188.37C388.26 188.537 388.103 188.677 387.93 188.79C387.757 188.897 387.567 188.977 387.36 189.03C387.16 189.083 386.943 189.11 386.71 189.11ZM385.4 186.18H387.56C387.56 185.993 387.537 185.83 387.49 185.69C387.443 185.55 387.373 185.43 387.28 185.33C387.193 185.23 387.087 185.157 386.96 185.11C386.833 185.057 386.693 185.03 386.54 185.03C386.393 185.03 386.257 185.053 386.13 185.1C386.01 185.147 385.9 185.217 385.8 185.31C385.7 185.403 385.613 185.523 385.54 185.67C385.473 185.81 385.427 185.98 385.4 186.18ZM391.28 189.11C391.033 189.11 390.793 189.06 390.56 188.96C390.333 188.853 390.13 188.7 389.95 188.5C389.77 188.3 389.627 188.047 389.52 187.74C389.42 187.427 389.37 187.067 389.37 186.66C389.37 186.247 389.42 185.89 389.52 185.59C389.627 185.29 389.77 185.043 389.95 184.85C390.13 184.65 390.337 184.503 390.57 184.41C390.803 184.31 391.047 184.26 391.3 184.26C391.48 184.26 391.643 184.283 391.79 184.33C391.943 184.377 392.08 184.447 392.2 184.54C392.32 184.633 392.417 184.75 392.49 184.89V182.31H393.46H393.55V182.4C393.517 182.44 393.493 182.483 393.48 182.53C393.467 182.577 393.463 182.657 393.47 182.77V188.35C393.47 188.457 393.473 188.567 393.48 188.68C393.493 188.787 393.523 188.893 393.57 189H392.59C392.557 188.927 392.533 188.86 392.52 188.8C392.507 188.74 392.5 188.68 392.5 188.62C392.5 188.56 392.5 188.497 392.5 188.43C392.407 188.57 392.3 188.693 392.18 188.8C392.06 188.9 391.923 188.977 391.77 189.03C391.617 189.083 391.453 189.11 391.28 189.11ZM391.45 188.29C391.63 188.29 391.783 188.253 391.91 188.18C392.037 188.107 392.14 188 392.22 187.86C392.3 187.72 392.36 187.55 392.4 187.35C392.44 187.15 392.46 186.923 392.46 186.67C392.46 186.33 392.423 186.04 392.35 185.8C392.277 185.553 392.16 185.367 392 185.24C391.847 185.107 391.65 185.04 391.41 185.04C391.237 185.04 391.083 185.077 390.95 185.15C390.817 185.223 390.703 185.33 390.61 185.47C390.523 185.603 390.457 185.767 390.41 185.96C390.363 186.153 390.34 186.37 390.34 186.61C390.34 186.95 390.387 187.247 390.48 187.5C390.58 187.753 390.713 187.95 390.88 188.09C391.047 188.223 391.237 188.29 391.45 188.29ZM401.5 189.12C400.827 189.12 400.31 188.92 399.95 188.52C399.59 188.113 399.41 187.55 399.41 186.83V182.77H400.38H400.48V182.86C400.44 182.9 400.413 182.943 400.4 182.99C400.393 183.037 400.39 183.117 400.39 183.23V186.84C400.39 187.293 400.47 187.653 400.63 187.92C400.797 188.187 401.09 188.32 401.51 188.32C401.937 188.32 402.233 188.187 402.4 187.92C402.567 187.653 402.65 187.283 402.65 186.81V182.77H403.62V186.8C403.62 187.333 403.53 187.77 403.35 188.11C403.17 188.45 402.92 188.703 402.6 188.87C402.287 189.037 401.92 189.12 401.5 189.12ZM404.52 190.67V184.37H405.51V185.11C405.597 184.91 405.707 184.75 405.84 184.63C405.98 184.503 406.133 184.413 406.3 184.36C406.467 184.3 406.647 184.27 406.84 184.27C407.093 184.27 407.33 184.323 407.55 184.43C407.777 184.53 407.977 184.68 408.15 184.88C408.323 185.08 408.46 185.33 408.56 185.63C408.66 185.93 408.71 186.28 408.71 186.68C408.71 187.087 408.657 187.443 408.55 187.75C408.443 188.057 408.3 188.313 408.12 188.52C407.947 188.72 407.747 188.87 407.52 188.97C407.293 189.07 407.06 189.12 406.82 189.12C406.653 189.12 406.487 189.097 406.32 189.05C406.16 189.01 406.013 188.947 405.88 188.86C405.747 188.767 405.63 188.66 405.53 188.54V190.67H404.52ZM406.57 188.32C406.723 188.32 406.867 188.293 407 188.24C407.133 188.18 407.253 188.09 407.36 187.97C407.467 187.843 407.55 187.673 407.61 187.46C407.67 187.24 407.7 186.973 407.7 186.66C407.7 186.327 407.657 186.043 407.57 185.81C407.49 185.577 407.37 185.397 407.21 185.27C407.057 185.143 406.87 185.077 406.65 185.07C406.483 185.063 406.33 185.093 406.19 185.16C406.05 185.22 405.93 185.32 405.83 185.46C405.73 185.593 405.653 185.773 405.6 186C405.553 186.22 405.53 186.483 405.53 186.79C405.53 186.997 405.543 187.183 405.57 187.35C405.603 187.51 405.65 187.653 405.71 187.78C405.77 187.9 405.84 188 405.92 188.08C406.007 188.16 406.103 188.22 406.21 188.26C406.323 188.3 406.443 188.32 406.57 188.32Z" fill="white"/>
<line x1="194.5" y1="279" x2="194.5" y2="313" stroke="white"/>
<line x1="284" y1="279.5" x2="194" y2="279.5" stroke="white"/>
<line x1="284.5" y1="279" x2="284.5" y2="313" stroke="white"/>
<line x1="289.5" y1="279" x2="289.5" y2="313" stroke="white"/>
<line x1="349" y1="279.5" x2="289" y2="279.5" stroke="white"/>
<line x1="349.5" y1="279" x2="349.5" y2="313" stroke="white"/>
<line x1="356.5" y1="279" x2="356.5" y2="313" stroke="white"/>
<line x1="423" y1="279.5" x2="356" y2="279.5" stroke="white"/>
<line x1="423.5" y1="279" x2="423.5" y2="313" stroke="white"/>
<path d="M523 215.377L-1.90735e-06 215.377" stroke="url(#paint2_linear_3787_2807)" stroke-dasharray="4 4"/>
<path d="M45.9883 91.2773H37.9707V88.7188H45.9883V91.2773ZM47.1309 97H37.9707C37.6191 97 37.235 96.9382 36.8184 96.8145C36.4017 96.6908 36.0143 96.4889 35.6562 96.209C35.3047 95.9225 35.0085 95.5547 34.7676 95.1055C34.5332 94.6497 34.416 94.0931 34.416 93.4355V84.2754C34.416 84.0996 34.4486 83.9336 34.5137 83.7773C34.5788 83.6211 34.6667 83.4844 34.7773 83.3672C34.8945 83.25 35.0312 83.1589 35.1875 83.0938C35.3438 83.0286 35.513 82.9961 35.6953 82.9961H47.1309V85.5352H36.9551V93.4355C36.9551 93.7676 37.043 94.0215 37.2188 94.1973C37.3945 94.373 37.6517 94.4609 37.9902 94.4609H47.1309V97ZM58.7715 88.9824H54.3379V97H51.7695V88.9824H48.4688V86.4434H51.7695V82.9961H54.3379V86.4434H58.7715V88.9824ZM72.1797 97H69.6406V89.998C69.6406 89.666 69.556 89.4154 69.3867 89.2461C69.2174 89.0703 68.9635 88.9824 68.625 88.9824H64.0449V86.4434H68.625C68.8659 86.4434 69.1198 86.4727 69.3867 86.5312C69.6536 86.5833 69.9173 86.668 70.1777 86.7852C70.4447 86.9023 70.6986 87.0553 70.9395 87.2441C71.1803 87.4264 71.3919 87.651 71.5742 87.918C71.7565 88.1784 71.903 88.4811 72.0137 88.8262C72.1243 89.1712 72.1797 89.5618 72.1797 89.998V97ZM63.0195 97H60.4805V81.9805H63.0195V97ZM85.8613 89.9395C85.8613 90.291 85.7995 90.6719 85.6758 91.082C85.5521 91.4857 85.3503 91.8633 85.0703 92.2148C84.7969 92.5599 84.4355 92.8496 83.9863 93.084C83.5436 93.3184 83.0033 93.4355 82.3652 93.4355H77.7852V91.0234H82.3652C82.7103 91.0234 82.9772 90.9193 83.166 90.7109C83.3548 90.4961 83.4492 90.2324 83.4492 89.9199C83.4492 89.5879 83.3418 89.3275 83.127 89.1387C82.9186 88.9499 82.6647 88.8555 82.3652 88.8555H77.7852C77.4401 88.8555 77.1732 88.9629 76.9844 89.1777C76.7956 89.3861 76.7012 89.6465 76.7012 89.959V93.5039C76.7012 93.8424 76.8053 94.1061 77.0137 94.2949C77.2285 94.4837 77.4922 94.5781 77.8047 94.5781H82.3652V97H77.7852C77.4336 97 77.0527 96.9382 76.6426 96.8145C76.2389 96.6908 75.8613 96.4922 75.5098 96.2188C75.1647 95.9388 74.875 95.5775 74.6406 95.1348C74.4062 94.6855 74.2891 94.1419 74.2891 93.5039V89.9395C74.2891 89.5879 74.3509 89.2103 74.4746 88.8066C74.5983 88.3965 74.7969 88.0189 75.0703 87.6738C75.3503 87.3223 75.7116 87.0293 76.1543 86.7949C76.6035 86.5605 77.1471 86.4434 77.7852 86.4434H82.3652C82.7168 86.4434 83.0944 86.5052 83.498 86.6289C83.9082 86.7526 84.2858 86.9544 84.6309 87.2344C84.9824 87.5078 85.2754 87.8691 85.5098 88.3184C85.7441 88.7611 85.8613 89.3014 85.8613 89.9395ZM96.8086 88.9824H91.0957C90.7507 88.9824 90.4902 89.0703 90.3145 89.2461C90.1387 89.4154 90.0508 89.666 90.0508 89.998V97H87.5117V89.998C87.5117 89.5618 87.5671 89.1712 87.6777 88.8262C87.7884 88.4811 87.9349 88.1784 88.1172 87.918C88.306 87.651 88.5208 87.4264 88.7617 87.2441C89.0026 87.0553 89.2533 86.9023 89.5137 86.7852C89.7806 86.668 90.0475 86.5833 90.3145 86.5312C90.5879 86.4727 90.8418 86.4434 91.0762 86.4434H96.8086V88.9824ZM109.807 89.9395C109.807 90.291 109.745 90.6719 109.621 91.082C109.497 91.4857 109.296 91.8633 109.016 92.2148C108.742 92.5599 108.381 92.8496 107.932 93.084C107.489 93.3184 106.949 93.4355 106.311 93.4355H101.73V91.0234H106.311C106.656 91.0234 106.923 90.9193 107.111 90.7109C107.3 90.4961 107.395 90.2324 107.395 89.9199C107.395 89.5879 107.287 89.3275 107.072 89.1387C106.864 88.9499 106.61 88.8555 106.311 88.8555H101.73C101.385 88.8555 101.118 88.9629 100.93 89.1777C100.741 89.3861 100.646 89.6465 100.646 89.959V93.5039C100.646 93.8424 100.751 94.1061 100.959 94.2949C101.174 94.4837 101.438 94.5781 101.75 94.5781H106.311V97H101.73C101.379 97 100.998 96.9382 100.588 96.8145C100.184 96.6908 99.8066 96.4922 99.4551 96.2188C99.11 95.9388 98.8203 95.5775 98.5859 95.1348C98.3516 94.6855 98.2344 94.1419 98.2344 93.5039V89.9395C98.2344 89.5879 98.2962 89.2103 98.4199 88.8066C98.5436 88.3965 98.7422 88.0189 99.0156 87.6738C99.2956 87.3223 99.6569 87.0293 100.1 86.7949C100.549 86.5605 101.092 86.4434 101.73 86.4434H106.311C106.662 86.4434 107.04 86.5052 107.443 86.6289C107.854 86.7526 108.231 86.9544 108.576 87.2344C108.928 87.5078 109.221 87.8691 109.455 88.3184C109.689 88.7611 109.807 89.3014 109.807 89.9395ZM123.059 95.7207C123.059 95.903 123.026 96.0723 122.961 96.2285C122.896 96.3848 122.805 96.5215 122.688 96.6387C122.577 96.7493 122.443 96.8372 122.287 96.9023C122.137 96.9674 121.975 97 121.799 97H116.057C115.744 97 115.409 96.9642 115.051 96.8926C114.699 96.821 114.351 96.707 114.006 96.5508C113.661 96.388 113.326 96.1862 113 95.9453C112.681 95.6979 112.401 95.4017 112.16 95.0566C111.919 94.7051 111.724 94.3014 111.574 93.8457C111.431 93.39 111.359 92.8757 111.359 92.3027V86.4434H113.898V92.3027C113.898 92.6348 113.954 92.9342 114.064 93.2012C114.182 93.4616 114.338 93.6862 114.533 93.875C114.729 94.0638 114.956 94.2103 115.217 94.3145C115.484 94.4121 115.77 94.4609 116.076 94.4609H120.52V86.4434H123.059V95.7207ZM134.865 97H132.326V89.998C132.326 89.666 132.238 89.4154 132.062 89.2461C131.887 89.0703 131.626 88.9824 131.281 88.9824H127.98V97H125.441V87.7031C125.441 87.5273 125.474 87.3646 125.539 87.2148C125.604 87.0586 125.695 86.9251 125.812 86.8145C125.93 86.6973 126.066 86.6061 126.223 86.541C126.379 86.4759 126.545 86.4434 126.721 86.4434H131.301C131.652 86.4434 132.03 86.5052 132.434 86.6289C132.837 86.7526 133.221 86.9512 133.586 87.2246V86.4434H137.023C137.264 86.4434 137.518 86.4727 137.785 86.5312C138.052 86.5833 138.316 86.668 138.576 86.7852C138.843 86.9023 139.097 87.0553 139.338 87.2441C139.579 87.4264 139.79 87.651 139.973 87.918C140.155 88.1784 140.301 88.4811 140.412 88.8262C140.523 89.1712 140.578 89.5618 140.578 89.998V97H138.039V89.998C138.039 89.666 137.954 89.4154 137.785 89.2461C137.622 89.0703 137.368 88.9824 137.023 88.9824H134.738C134.823 89.2949 134.865 89.6335 134.865 89.998V97Z" fill="white"/>
<rect x="158" y="41.6716" width="87" height="83.7509" rx="8" fill="url(#paint3_linear_3787_2807)"/>
<rect x="158" y="307" width="87" height="83.7509" rx="8" fill="url(#paint4_linear_3787_2807)"/>
<path d="M182.539 65.3086C182.539 65.6836 182.473 66.0859 182.34 66.5156C182.215 66.9453 182.004 67.3438 181.707 67.7109C181.418 68.0781 181.039 68.3867 180.57 68.6367C180.102 68.8789 179.527 69 178.848 69H167.281C167.062 69 166.859 68.9609 166.672 68.8828C166.484 68.8047 166.32 68.6992 166.18 68.5664C166.047 68.4258 165.941 68.2617 165.863 68.0742C165.785 67.8867 165.746 67.6836 165.746 67.4648V53.7305C165.746 53.5195 165.785 53.3203 165.863 53.1328C165.941 52.9453 166.047 52.7812 166.18 52.6406C166.32 52.5 166.484 52.3906 166.672 52.3125C166.859 52.2344 167.062 52.1953 167.281 52.1953H177.477C177.852 52.1953 178.254 52.2617 178.684 52.3945C179.113 52.5273 179.512 52.7422 179.879 53.0391C180.254 53.3281 180.562 53.707 180.805 54.1758C181.055 54.6445 181.18 55.2188 181.18 55.8984V56.4727C181.18 57.0117 181.09 57.5938 180.91 58.2188C180.73 58.8359 180.441 59.4219 180.043 59.9766C180.387 60.1875 180.707 60.4414 181.004 60.7383C181.309 61.0352 181.574 61.3789 181.801 61.7695C182.027 62.1602 182.207 62.6016 182.34 63.0938C182.473 63.5859 182.539 64.1289 182.539 64.7227V65.3086ZM179.492 64.7227C179.492 64.3242 179.43 63.9688 179.305 63.6562C179.18 63.3359 179.004 63.0625 178.777 62.8359C178.551 62.6094 178.277 62.4375 177.957 62.3203C177.637 62.1953 177.277 62.1328 176.879 62.1328H170.012V59.0625H175.508C175.906 59.0625 176.266 59.0039 176.586 58.8867C176.906 58.7617 177.18 58.5859 177.406 58.3594C177.633 58.1328 177.805 57.8633 177.922 57.5508C178.047 57.2305 178.109 56.8711 178.109 56.4727V55.8984C178.109 55.4609 177.898 55.2422 177.477 55.2422H168.793V65.9531H178.848C178.902 65.9531 178.969 65.9492 179.047 65.9414C179.125 65.9336 179.195 65.9102 179.258 65.8711C179.32 65.832 179.375 65.7656 179.422 65.6719C179.469 65.5781 179.492 65.4492 179.492 65.2852V64.7227ZM190.426 69H189.066C188.629 69 188.16 68.9258 187.66 68.7773C187.168 68.6289 186.707 68.3867 186.277 68.0508C185.848 67.707 185.492 67.2656 185.211 66.7266C184.93 66.1797 184.789 65.5117 184.789 64.7227V50.9766H187.836V64.7227C187.836 65.0977 187.953 65.3984 188.188 65.625C188.422 65.8438 188.715 65.9531 189.066 65.9531H190.426V69ZM206.164 64.7227C206.164 65.2461 206.098 65.7188 205.965 66.1406C205.832 66.5547 205.656 66.9219 205.438 67.2422C205.219 67.5547 204.965 67.8242 204.676 68.0508C204.387 68.2695 204.082 68.4492 203.762 68.5898C203.449 68.7305 203.129 68.8359 202.801 68.9062C202.48 68.9688 202.176 69 201.887 69H196.391C195.969 69 195.508 68.9258 195.008 68.7773C194.508 68.6289 194.043 68.3867 193.613 68.0508C193.191 67.707 192.836 67.2656 192.547 66.7266C192.266 66.1797 192.125 65.5117 192.125 64.7227V60.5977C192.125 59.8164 192.266 59.1562 192.547 58.6172C192.836 58.0703 193.191 57.6289 193.613 57.293C194.043 56.9492 194.508 56.7031 195.008 56.5547C195.508 56.4062 195.969 56.332 196.391 56.332H201.887C202.668 56.332 203.332 56.4727 203.879 56.7539C204.426 57.0352 204.867 57.3906 205.203 57.8203C205.539 58.2422 205.781 58.7031 205.93 59.2031C206.086 59.7031 206.164 60.168 206.164 60.5977V64.7227ZM203.117 60.6211C203.117 60.1992 203.012 59.8867 202.801 59.6836C202.59 59.4805 202.285 59.3789 201.887 59.3789H196.414C196.008 59.3789 195.699 59.4844 195.488 59.6953C195.277 59.8984 195.172 60.1992 195.172 60.5977V64.7227C195.172 65.1211 195.277 65.4258 195.488 65.6367C195.699 65.8477 196.008 65.9531 196.414 65.9531H201.887C202.301 65.9531 202.609 65.8477 202.812 65.6367C203.016 65.4258 203.117 65.1211 203.117 64.7227V60.6211ZM221.035 69H212.773C212.352 69 211.891 68.9258 211.391 68.7773C210.891 68.6289 210.426 68.3867 209.996 68.0508C209.574 67.707 209.219 67.2656 208.93 66.7266C208.648 66.1797 208.508 65.5117 208.508 64.7227V60.5977C208.508 60.3086 208.539 60.0039 208.602 59.6836C208.672 59.3633 208.777 59.0469 208.918 58.7344C209.059 58.4141 209.238 58.1094 209.457 57.8203C209.684 57.5312 209.953 57.2773 210.266 57.0586C210.586 56.8398 210.953 56.6641 211.367 56.5312C211.781 56.3984 212.25 56.332 212.773 56.332H221.035V59.3789H212.773C212.375 59.3789 212.07 59.4805 211.859 59.6836C211.656 59.8867 211.555 60.1992 211.555 60.6211V64.7227C211.555 65.1211 211.66 65.4258 211.871 65.6367C212.082 65.8477 212.391 65.9531 212.797 65.9531H221.035V69ZM238.438 69H234.043L227.902 63.0703C227.559 62.7578 227.398 62.3672 227.422 61.8984C227.438 61.6797 227.492 61.4766 227.586 61.2891C227.688 61.0938 227.824 60.9297 227.996 60.7969L233.562 56.3086H238.438L231.266 62.0859L238.438 69ZM226.648 69H223.602V50.9766H226.648V69Z" fill="white"/>
<path d="M182.539 330.637C182.539 331.012 182.473 331.414 182.34 331.844C182.215 332.274 182.004 332.672 181.707 333.039C181.418 333.406 181.039 333.715 180.57 333.965C180.102 334.207 179.527 334.328 178.848 334.328H167.281C167.062 334.328 166.859 334.289 166.672 334.211C166.484 334.133 166.32 334.028 166.18 333.895C166.047 333.754 165.941 333.59 165.863 333.403C165.785 333.215 165.746 333.012 165.746 332.793V319.059C165.746 318.848 165.785 318.649 165.863 318.461C165.941 318.274 166.047 318.11 166.18 317.969C166.32 317.828 166.484 317.719 166.672 317.641C166.859 317.563 167.062 317.524 167.281 317.524H177.477C177.852 317.524 178.254 317.59 178.684 317.723C179.113 317.856 179.512 318.071 179.879 318.367C180.254 318.656 180.562 319.035 180.805 319.504C181.055 319.973 181.18 320.547 181.18 321.227V321.801C181.18 322.34 181.09 322.922 180.91 323.547C180.73 324.164 180.441 324.75 180.043 325.305C180.387 325.516 180.707 325.77 181.004 326.067C181.309 326.364 181.574 326.707 181.801 327.098C182.027 327.489 182.207 327.93 182.34 328.422C182.473 328.914 182.539 329.457 182.539 330.051V330.637ZM179.492 330.051C179.492 329.653 179.43 329.297 179.305 328.985C179.18 328.664 179.004 328.391 178.777 328.164C178.551 327.938 178.277 327.766 177.957 327.649C177.637 327.524 177.277 327.461 176.879 327.461H170.012V324.391H175.508C175.906 324.391 176.266 324.332 176.586 324.215C176.906 324.09 177.18 323.914 177.406 323.688C177.633 323.461 177.805 323.192 177.922 322.879C178.047 322.559 178.109 322.199 178.109 321.801V321.227C178.109 320.789 177.898 320.571 177.477 320.571H168.793V331.281H178.848C178.902 331.281 178.969 331.278 179.047 331.27C179.125 331.262 179.195 331.239 179.258 331.199C179.32 331.16 179.375 331.094 179.422 331C179.469 330.906 179.492 330.778 179.492 330.614V330.051ZM190.426 334.328H189.066C188.629 334.328 188.16 334.254 187.66 334.106C187.168 333.957 186.707 333.715 186.277 333.379C185.848 333.035 185.492 332.594 185.211 332.055C184.93 331.508 184.789 330.84 184.789 330.051V316.305H187.836V330.051C187.836 330.426 187.953 330.727 188.188 330.953C188.422 331.172 188.715 331.281 189.066 331.281H190.426V334.328ZM206.164 330.051C206.164 330.574 206.098 331.047 205.965 331.469C205.832 331.883 205.656 332.25 205.438 332.571C205.219 332.883 204.965 333.153 204.676 333.379C204.387 333.598 204.082 333.778 203.762 333.918C203.449 334.059 203.129 334.164 202.801 334.235C202.48 334.297 202.176 334.328 201.887 334.328H196.391C195.969 334.328 195.508 334.254 195.008 334.106C194.508 333.957 194.043 333.715 193.613 333.379C193.191 333.035 192.836 332.594 192.547 332.055C192.266 331.508 192.125 330.84 192.125 330.051V325.926C192.125 325.145 192.266 324.485 192.547 323.946C192.836 323.399 193.191 322.957 193.613 322.621C194.043 322.278 194.508 322.031 195.008 321.883C195.508 321.735 195.969 321.66 196.391 321.66H201.887C202.668 321.66 203.332 321.801 203.879 322.082C204.426 322.364 204.867 322.719 205.203 323.149C205.539 323.571 205.781 324.031 205.93 324.531C206.086 325.031 206.164 325.496 206.164 325.926V330.051ZM203.117 325.949C203.117 325.528 203.012 325.215 202.801 325.012C202.59 324.809 202.285 324.707 201.887 324.707H196.414C196.008 324.707 195.699 324.813 195.488 325.024C195.277 325.227 195.172 325.528 195.172 325.926V330.051C195.172 330.449 195.277 330.754 195.488 330.965C195.699 331.176 196.008 331.281 196.414 331.281H201.887C202.301 331.281 202.609 331.176 202.812 330.965C203.016 330.754 203.117 330.449 203.117 330.051V325.949ZM221.035 334.328H212.773C212.352 334.328 211.891 334.254 211.391 334.106C210.891 333.957 210.426 333.715 209.996 333.379C209.574 333.035 209.219 332.594 208.93 332.055C208.648 331.508 208.508 330.84 208.508 330.051V325.926C208.508 325.637 208.539 325.332 208.602 325.012C208.672 324.692 208.777 324.375 208.918 324.063C209.059 323.742 209.238 323.438 209.457 323.149C209.684 322.86 209.953 322.606 210.266 322.387C210.586 322.168 210.953 321.992 211.367 321.86C211.781 321.727 212.25 321.66 212.773 321.66H221.035V324.707H212.773C212.375 324.707 212.07 324.809 211.859 325.012C211.656 325.215 211.555 325.528 211.555 325.949V330.051C211.555 330.449 211.66 330.754 211.871 330.965C212.082 331.176 212.391 331.281 212.797 331.281H221.035V334.328ZM238.438 334.328H234.043L227.902 328.399C227.559 328.086 227.398 327.696 227.422 327.227C227.438 327.008 227.492 326.805 227.586 326.617C227.688 326.422 227.824 326.258 227.996 326.125L233.562 321.637H238.438L231.266 327.414L238.438 334.328ZM226.648 334.328H223.602V316.305H226.648V334.328Z" fill="white"/>
<path d="M230.498 112.55L234.222 108.014L234.516 108.924L230.792 113.432L230.498 112.55ZM232.5 115.154C231.903 115.154 231.385 114.981 230.946 114.636C230.517 114.291 230.185 113.787 229.952 113.124C229.728 112.452 229.616 111.64 229.616 110.688C229.616 109.745 229.728 108.938 229.952 108.266C230.185 107.594 230.517 107.081 230.946 106.726C231.385 106.362 231.903 106.18 232.5 106.18C233.097 106.18 233.611 106.362 234.04 106.726C234.479 107.081 234.81 107.594 235.034 108.266C235.267 108.938 235.384 109.745 235.384 110.688C235.384 111.64 235.267 112.452 235.034 113.124C234.81 113.787 234.479 114.291 234.04 114.636C233.611 114.981 233.097 115.154 232.5 115.154ZM232.5 114.076C232.845 114.076 233.13 113.945 233.354 113.684C233.587 113.413 233.765 113.026 233.886 112.522C234.007 112.018 234.068 111.407 234.068 110.688C234.068 109.988 234.007 109.386 233.886 108.882C233.765 108.378 233.587 107.991 233.354 107.72C233.13 107.44 232.845 107.3 232.5 107.3C232.164 107.3 231.879 107.44 231.646 107.72C231.413 107.991 231.235 108.378 231.114 108.882C230.993 109.386 230.932 109.988 230.932 110.688C230.932 111.407 230.993 112.018 231.114 112.522C231.235 113.026 231.413 113.413 231.646 113.684C231.879 113.945 232.164 114.076 232.5 114.076Z" fill="white"/>
<path d="M230.498 377.878L234.222 373.342L234.516 374.252L230.792 378.76L230.498 377.878ZM232.5 380.482C231.903 380.482 231.385 380.31 230.946 379.964C230.517 379.619 230.185 379.115 229.952 378.452C229.728 377.78 229.616 376.968 229.616 376.016C229.616 375.074 229.728 374.266 229.952 373.594C230.185 372.922 230.517 372.409 230.946 372.054C231.385 371.69 231.903 371.508 232.5 371.508C233.097 371.508 233.611 371.69 234.04 372.054C234.479 372.409 234.81 372.922 235.034 373.594C235.267 374.266 235.384 375.074 235.384 376.016C235.384 376.968 235.267 377.78 235.034 378.452C234.81 379.115 234.479 379.619 234.04 379.964C233.611 380.31 233.097 380.482 232.5 380.482ZM232.5 379.404C232.845 379.404 233.13 379.274 233.354 379.012C233.587 378.742 233.765 378.354 233.886 377.85C234.007 377.346 234.068 376.735 234.068 376.016C234.068 375.316 234.007 374.714 233.886 374.21C233.765 373.706 233.587 373.319 233.354 373.048C233.13 372.768 232.845 372.628 232.5 372.628C232.164 372.628 231.879 372.768 231.646 373.048C231.413 373.319 231.235 373.706 231.114 374.21C230.993 374.714 230.932 375.316 230.932 376.016C230.932 376.735 230.993 377.346 231.114 377.85C231.235 378.354 231.413 378.742 231.646 379.012C231.879 379.274 232.164 379.404 232.5 379.404Z" fill="white"/>
<rect x="262" y="41.6716" width="45" height="83.7509" rx="8" fill="url(#paint5_linear_3787_2807)"/>
<rect x="262" y="307" width="45" height="83.7509" rx="8" fill="url(#paint6_linear_3787_2807)"/>
<path d="M292.539 65.3086C292.539 65.6836 292.473 66.0859 292.34 66.5156C292.215 66.9453 292.004 67.3438 291.707 67.7109C291.418 68.0781 291.039 68.3867 290.57 68.6367C290.102 68.8789 289.527 69 288.848 69H277.281C277.062 69 276.859 68.9609 276.672 68.8828C276.484 68.8047 276.32 68.6992 276.18 68.5664C276.047 68.4258 275.941 68.2617 275.863 68.0742C275.785 67.8867 275.746 67.6836 275.746 67.4648V53.7305C275.746 53.5195 275.785 53.3203 275.863 53.1328C275.941 52.9453 276.047 52.7812 276.18 52.6406C276.32 52.5 276.484 52.3906 276.672 52.3125C276.859 52.2344 277.062 52.1953 277.281 52.1953H287.477C287.852 52.1953 288.254 52.2617 288.684 52.3945C289.113 52.5273 289.512 52.7422 289.879 53.0391C290.254 53.3281 290.562 53.707 290.805 54.1758C291.055 54.6445 291.18 55.2188 291.18 55.8984V56.4727C291.18 57.0117 291.09 57.5938 290.91 58.2188C290.73 58.8359 290.441 59.4219 290.043 59.9766C290.387 60.1875 290.707 60.4414 291.004 60.7383C291.309 61.0352 291.574 61.3789 291.801 61.7695C292.027 62.1602 292.207 62.6016 292.34 63.0938C292.473 63.5859 292.539 64.1289 292.539 64.7227V65.3086ZM289.492 64.7227C289.492 64.3242 289.43 63.9688 289.305 63.6562C289.18 63.3359 289.004 63.0625 288.777 62.8359C288.551 62.6094 288.277 62.4375 287.957 62.3203C287.637 62.1953 287.277 62.1328 286.879 62.1328H280.012V59.0625H285.508C285.906 59.0625 286.266 59.0039 286.586 58.8867C286.906 58.7617 287.18 58.5859 287.406 58.3594C287.633 58.1328 287.805 57.8633 287.922 57.5508C288.047 57.2305 288.109 56.8711 288.109 56.4727V55.8984C288.109 55.4609 287.898 55.2422 287.477 55.2422H278.793V65.9531H288.848C288.902 65.9531 288.969 65.9492 289.047 65.9414C289.125 65.9336 289.195 65.9102 289.258 65.8711C289.32 65.832 289.375 65.7656 289.422 65.6719C289.469 65.5781 289.492 65.4492 289.492 65.2852V64.7227Z" fill="white"/>
<path d="M292.539 330.637C292.539 331.012 292.473 331.414 292.34 331.844C292.215 332.274 292.004 332.672 291.707 333.039C291.418 333.406 291.039 333.715 290.57 333.965C290.102 334.207 289.527 334.328 288.848 334.328H277.281C277.062 334.328 276.859 334.289 276.672 334.211C276.484 334.133 276.32 334.028 276.18 333.895C276.047 333.754 275.941 333.59 275.863 333.403C275.785 333.215 275.746 333.012 275.746 332.793V319.059C275.746 318.848 275.785 318.649 275.863 318.461C275.941 318.274 276.047 318.11 276.18 317.969C276.32 317.828 276.484 317.719 276.672 317.641C276.859 317.563 277.062 317.524 277.281 317.524H287.477C287.852 317.524 288.254 317.59 288.684 317.723C289.113 317.856 289.512 318.071 289.879 318.367C290.254 318.656 290.562 319.035 290.805 319.504C291.055 319.973 291.18 320.547 291.18 321.227V321.801C291.18 322.34 291.09 322.922 290.91 323.547C290.73 324.164 290.441 324.75 290.043 325.305C290.387 325.516 290.707 325.77 291.004 326.067C291.309 326.364 291.574 326.707 291.801 327.098C292.027 327.489 292.207 327.93 292.34 328.422C292.473 328.914 292.539 329.457 292.539 330.051V330.637ZM289.492 330.051C289.492 329.653 289.43 329.297 289.305 328.985C289.18 328.664 289.004 328.391 288.777 328.164C288.551 327.938 288.277 327.766 287.957 327.649C287.637 327.524 287.277 327.461 286.879 327.461H280.012V324.391H285.508C285.906 324.391 286.266 324.332 286.586 324.215C286.906 324.09 287.18 323.914 287.406 323.688C287.633 323.461 287.805 323.192 287.922 322.879C288.047 322.559 288.109 322.199 288.109 321.801V321.227C288.109 320.789 287.898 320.571 287.477 320.571H278.793V331.281H288.848C288.902 331.281 288.969 331.278 289.047 331.27C289.125 331.262 289.195 331.239 289.258 331.199C289.32 331.16 289.375 331.094 289.422 331C289.469 330.906 289.492 330.778 289.492 330.614V330.051Z" fill="white"/>
<path d="M296.01 115V107.818L294.372 108.364L294.064 107.496L296.388 106.264H297.396V115H296.01Z" fill="white"/>
<path d="M296.01 380.328V373.146L294.372 373.692L294.064 372.824L296.388 371.592H297.396V380.328H296.01Z" fill="white"/>
<rect x="324" y="41.6716" width="45" height="83.7509" rx="8" fill="url(#paint7_linear_3787_2807)"/>
<rect x="324" y="307" width="45" height="83.7509" rx="8" fill="url(#paint8_linear_3787_2807)"/>
<path d="M354.539 65.3086C354.539 65.6836 354.473 66.0859 354.34 66.5156C354.215 66.9453 354.004 67.3438 353.707 67.7109C353.418 68.0781 353.039 68.3867 352.57 68.6367C352.102 68.8789 351.527 69 350.848 69H339.281C339.062 69 338.859 68.9609 338.672 68.8828C338.484 68.8047 338.32 68.6992 338.18 68.5664C338.047 68.4258 337.941 68.2617 337.863 68.0742C337.785 67.8867 337.746 67.6836 337.746 67.4648V53.7305C337.746 53.5195 337.785 53.3203 337.863 53.1328C337.941 52.9453 338.047 52.7812 338.18 52.6406C338.32 52.5 338.484 52.3906 338.672 52.3125C338.859 52.2344 339.062 52.1953 339.281 52.1953H349.477C349.852 52.1953 350.254 52.2617 350.684 52.3945C351.113 52.5273 351.512 52.7422 351.879 53.0391C352.254 53.3281 352.562 53.707 352.805 54.1758C353.055 54.6445 353.18 55.2188 353.18 55.8984V56.4727C353.18 57.0117 353.09 57.5938 352.91 58.2188C352.73 58.8359 352.441 59.4219 352.043 59.9766C352.387 60.1875 352.707 60.4414 353.004 60.7383C353.309 61.0352 353.574 61.3789 353.801 61.7695C354.027 62.1602 354.207 62.6016 354.34 63.0938C354.473 63.5859 354.539 64.1289 354.539 64.7227V65.3086ZM351.492 64.7227C351.492 64.3242 351.43 63.9688 351.305 63.6562C351.18 63.3359 351.004 63.0625 350.777 62.8359C350.551 62.6094 350.277 62.4375 349.957 62.3203C349.637 62.1953 349.277 62.1328 348.879 62.1328H342.012V59.0625H347.508C347.906 59.0625 348.266 59.0039 348.586 58.8867C348.906 58.7617 349.18 58.5859 349.406 58.3594C349.633 58.1328 349.805 57.8633 349.922 57.5508C350.047 57.2305 350.109 56.8711 350.109 56.4727V55.8984C350.109 55.4609 349.898 55.2422 349.477 55.2422H340.793V65.9531H350.848C350.902 65.9531 350.969 65.9492 351.047 65.9414C351.125 65.9336 351.195 65.9102 351.258 65.8711C351.32 65.832 351.375 65.7656 351.422 65.6719C351.469 65.5781 351.492 65.4492 351.492 65.2852V64.7227Z" fill="white"/>
<path d="M354.539 330.637C354.539 331.012 354.473 331.414 354.34 331.844C354.215 332.274 354.004 332.672 353.707 333.039C353.418 333.406 353.039 333.715 352.57 333.965C352.102 334.207 351.527 334.328 350.848 334.328H339.281C339.062 334.328 338.859 334.289 338.672 334.211C338.484 334.133 338.32 334.028 338.18 333.895C338.047 333.754 337.941 333.59 337.863 333.403C337.785 333.215 337.746 333.012 337.746 332.793V319.059C337.746 318.848 337.785 318.649 337.863 318.461C337.941 318.274 338.047 318.11 338.18 317.969C338.32 317.828 338.484 317.719 338.672 317.641C338.859 317.563 339.062 317.524 339.281 317.524H349.477C349.852 317.524 350.254 317.59 350.684 317.723C351.113 317.856 351.512 318.071 351.879 318.367C352.254 318.656 352.562 319.035 352.805 319.504C353.055 319.973 353.18 320.547 353.18 321.227V321.801C353.18 322.34 353.09 322.922 352.91 323.547C352.73 324.164 352.441 324.75 352.043 325.305C352.387 325.516 352.707 325.77 353.004 326.067C353.309 326.364 353.574 326.707 353.801 327.098C354.027 327.489 354.207 327.93 354.34 328.422C354.473 328.914 354.539 329.457 354.539 330.051V330.637ZM351.492 330.051C351.492 329.653 351.43 329.297 351.305 328.985C351.18 328.664 351.004 328.391 350.777 328.164C350.551 327.938 350.277 327.766 349.957 327.649C349.637 327.524 349.277 327.461 348.879 327.461H342.012V324.391H347.508C347.906 324.391 348.266 324.332 348.586 324.215C348.906 324.09 349.18 323.914 349.406 323.688C349.633 323.461 349.805 323.192 349.922 322.879C350.047 322.559 350.109 322.199 350.109 321.801V321.227C350.109 320.789 349.898 320.571 349.477 320.571H340.793V331.281H350.848C350.902 331.281 350.969 331.278 351.047 331.27C351.125 331.262 351.195 331.239 351.258 331.199C351.32 331.16 351.375 331.094 351.422 331C351.469 330.906 351.492 330.778 351.492 330.614V330.051Z" fill="white"/>
<path d="M354.882 113.964C355.405 113.441 355.876 112.975 356.296 112.564C356.716 112.144 357.085 111.766 357.402 111.43C357.729 111.085 357.999 110.767 358.214 110.478C358.429 110.179 358.587 109.885 358.69 109.596C358.802 109.307 358.858 108.999 358.858 108.672C358.858 108.439 358.825 108.238 358.76 108.07C358.704 107.902 358.62 107.767 358.508 107.664C358.396 107.552 358.256 107.473 358.088 107.426C357.929 107.37 357.747 107.342 357.542 107.342C357.337 107.342 357.141 107.37 356.954 107.426C356.777 107.473 356.604 107.552 356.436 107.664C356.277 107.767 356.128 107.902 355.988 108.07C355.895 108.201 355.839 108.299 355.82 108.364C355.801 108.429 355.797 108.499 355.806 108.574L355.736 108.672L355.624 108.602L354.672 107.86C354.868 107.496 355.111 107.188 355.4 106.936C355.699 106.684 356.03 106.497 356.394 106.376C356.758 106.245 357.141 106.18 357.542 106.18C358.055 106.18 358.508 106.283 358.9 106.488C359.301 106.693 359.619 106.983 359.852 107.356C360.085 107.729 360.202 108.173 360.202 108.686C360.202 109.05 360.141 109.4 360.02 109.736C359.908 110.072 359.745 110.403 359.53 110.73C359.315 111.047 359.063 111.369 358.774 111.696C358.485 112.023 358.163 112.363 357.808 112.718C357.453 113.073 357.075 113.451 356.674 113.852H359.586C359.745 113.852 359.857 113.843 359.922 113.824C359.987 113.805 360.048 113.773 360.104 113.726H360.23V113.852V115H354.882V113.964Z" fill="white"/>
<path d="M354.882 379.292C355.405 378.77 355.876 378.303 356.296 377.892C356.716 377.472 357.085 377.094 357.402 376.758C357.729 376.413 357.999 376.096 358.214 375.806C358.429 375.508 358.587 375.214 358.69 374.924C358.802 374.635 358.858 374.327 358.858 374C358.858 373.767 358.825 373.566 358.76 373.398C358.704 373.23 358.62 373.095 358.508 372.992C358.396 372.88 358.256 372.801 358.088 372.754C357.929 372.698 357.747 372.67 357.542 372.67C357.337 372.67 357.141 372.698 356.954 372.754C356.777 372.801 356.604 372.88 356.436 372.992C356.277 373.095 356.128 373.23 355.988 373.398C355.895 373.529 355.839 373.627 355.82 373.692C355.801 373.758 355.797 373.828 355.806 373.902L355.736 374L355.624 373.93L354.672 373.188C354.868 372.824 355.111 372.516 355.4 372.264C355.699 372.012 356.03 371.826 356.394 371.704C356.758 371.574 357.141 371.508 357.542 371.508C358.055 371.508 358.508 371.611 358.9 371.816C359.301 372.022 359.619 372.311 359.852 372.684C360.085 373.058 360.202 373.501 360.202 374.014C360.202 374.378 360.141 374.728 360.02 375.064C359.908 375.4 359.745 375.732 359.53 376.058C359.315 376.376 359.063 376.698 358.774 377.024C358.485 377.351 358.163 377.692 357.808 378.046C357.453 378.401 357.075 378.779 356.674 379.18H359.586C359.745 379.18 359.857 379.171 359.922 379.152C359.987 379.134 360.048 379.101 360.104 379.054H360.23V379.18V380.328H354.882V379.292Z" fill="white"/>
<rect x="386" y="41.6716" width="45" height="83.7509" rx="8" fill="url(#paint9_linear_3787_2807)"/>
<rect x="386" y="307" width="45" height="83.7509" rx="8" fill="url(#paint10_linear_3787_2807)"/>
<path d="M416.539 65.3086C416.539 65.6836 416.473 66.0859 416.34 66.5156C416.215 66.9453 416.004 67.3438 415.707 67.7109C415.418 68.0781 415.039 68.3867 414.57 68.6367C414.102 68.8789 413.527 69 412.848 69H401.281C401.062 69 400.859 68.9609 400.672 68.8828C400.484 68.8047 400.32 68.6992 400.18 68.5664C400.047 68.4258 399.941 68.2617 399.863 68.0742C399.785 67.8867 399.746 67.6836 399.746 67.4648V53.7305C399.746 53.5195 399.785 53.3203 399.863 53.1328C399.941 52.9453 400.047 52.7812 400.18 52.6406C400.32 52.5 400.484 52.3906 400.672 52.3125C400.859 52.2344 401.062 52.1953 401.281 52.1953H411.477C411.852 52.1953 412.254 52.2617 412.684 52.3945C413.113 52.5273 413.512 52.7422 413.879 53.0391C414.254 53.3281 414.562 53.707 414.805 54.1758C415.055 54.6445 415.18 55.2188 415.18 55.8984V56.4727C415.18 57.0117 415.09 57.5938 414.91 58.2188C414.73 58.8359 414.441 59.4219 414.043 59.9766C414.387 60.1875 414.707 60.4414 415.004 60.7383C415.309 61.0352 415.574 61.3789 415.801 61.7695C416.027 62.1602 416.207 62.6016 416.34 63.0938C416.473 63.5859 416.539 64.1289 416.539 64.7227V65.3086ZM413.492 64.7227C413.492 64.3242 413.43 63.9688 413.305 63.6562C413.18 63.3359 413.004 63.0625 412.777 62.8359C412.551 62.6094 412.277 62.4375 411.957 62.3203C411.637 62.1953 411.277 62.1328 410.879 62.1328H404.012V59.0625H409.508C409.906 59.0625 410.266 59.0039 410.586 58.8867C410.906 58.7617 411.18 58.5859 411.406 58.3594C411.633 58.1328 411.805 57.8633 411.922 57.5508C412.047 57.2305 412.109 56.8711 412.109 56.4727V55.8984C412.109 55.4609 411.898 55.2422 411.477 55.2422H402.793V65.9531H412.848C412.902 65.9531 412.969 65.9492 413.047 65.9414C413.125 65.9336 413.195 65.9102 413.258 65.8711C413.32 65.832 413.375 65.7656 413.422 65.6719C413.469 65.5781 413.492 65.4492 413.492 65.2852V64.7227Z" fill="white"/>
<path d="M416.539 330.637C416.539 331.012 416.473 331.414 416.34 331.844C416.215 332.274 416.004 332.672 415.707 333.039C415.418 333.406 415.039 333.715 414.57 333.965C414.102 334.207 413.527 334.328 412.848 334.328H401.281C401.062 334.328 400.859 334.289 400.672 334.211C400.484 334.133 400.32 334.028 400.18 333.895C400.047 333.754 399.941 333.59 399.863 333.403C399.785 333.215 399.746 333.012 399.746 332.793V319.059C399.746 318.848 399.785 318.649 399.863 318.461C399.941 318.274 400.047 318.11 400.18 317.969C400.32 317.828 400.484 317.719 400.672 317.641C400.859 317.563 401.062 317.524 401.281 317.524H411.477C411.852 317.524 412.254 317.59 412.684 317.723C413.113 317.856 413.512 318.071 413.879 318.367C414.254 318.656 414.562 319.035 414.805 319.504C415.055 319.973 415.18 320.547 415.18 321.227V321.801C415.18 322.34 415.09 322.922 414.91 323.547C414.73 324.164 414.441 324.75 414.043 325.305C414.387 325.516 414.707 325.77 415.004 326.067C415.309 326.364 415.574 326.707 415.801 327.098C416.027 327.489 416.207 327.93 416.34 328.422C416.473 328.914 416.539 329.457 416.539 330.051V330.637ZM413.492 330.051C413.492 329.653 413.43 329.297 413.305 328.985C413.18 328.664 413.004 328.391 412.777 328.164C412.551 327.938 412.277 327.766 411.957 327.649C411.637 327.524 411.277 327.461 410.879 327.461H404.012V324.391H409.508C409.906 324.391 410.266 324.332 410.586 324.215C410.906 324.09 411.18 323.914 411.406 323.688C411.633 323.461 411.805 323.192 411.922 322.879C412.047 322.559 412.109 322.199 412.109 321.801V321.227C412.109 320.789 411.898 320.571 411.477 320.571H402.793V331.281H412.848C412.902 331.281 412.969 331.278 413.047 331.27C413.125 331.262 413.195 331.239 413.258 331.199C413.32 331.16 413.375 331.094 413.422 331C413.469 330.906 413.492 330.778 413.492 330.614V330.051Z" fill="white"/>
<path d="M416.84 115V108.518H418.24V109.512C418.399 109.279 418.576 109.078 418.772 108.91C418.968 108.742 419.187 108.611 419.43 108.518C419.673 108.415 419.934 108.364 420.214 108.364C420.578 108.364 420.914 108.457 421.222 108.644C421.53 108.831 421.777 109.125 421.964 109.526C422.151 109.918 422.244 110.441 422.244 111.094V115H420.858V111.108C420.858 110.725 420.816 110.413 420.732 110.17C420.648 109.927 420.527 109.75 420.368 109.638C420.219 109.526 420.037 109.47 419.822 109.47C419.635 109.47 419.449 109.512 419.262 109.596C419.075 109.68 418.903 109.797 418.744 109.946C418.595 110.086 418.473 110.263 418.38 110.478C418.287 110.683 418.24 110.917 418.24 111.178V115H416.84Z" fill="white"/>
<path d="M416.84 380.328V373.846H418.24V374.84C418.399 374.607 418.576 374.406 418.772 374.238C418.968 374.07 419.187 373.94 419.43 373.846C419.673 373.744 419.934 373.692 420.214 373.692C420.578 373.692 420.914 373.786 421.222 373.972C421.53 374.159 421.777 374.453 421.964 374.854C422.151 375.246 422.244 375.769 422.244 376.422V380.328H420.858V376.436C420.858 376.054 420.816 375.741 420.732 375.498C420.648 375.256 420.527 375.078 420.368 374.966C420.219 374.854 420.037 374.798 419.822 374.798C419.635 374.798 419.449 374.84 419.262 374.924C419.075 375.008 418.903 375.125 418.744 375.274C418.595 375.414 418.473 375.592 418.38 375.806C418.287 376.012 418.24 376.245 418.24 376.506V380.328H416.84Z" fill="white"/>
<defs>
<filter id="filter0_b_3787_2807" x="-20" y="-20" width="563" height="226" filterUnits="userSpaceOnUse" color-interpolation-filters="sRGB">
<feFlood flood-opacity="0" result="BackgroundImageFix"/>
<feGaussianBlur in="BackgroundImageFix" stdDeviation="10"/>
<feComposite in2="SourceAlpha" operator="in" result="effect1_backgroundBlur_3787_2807"/>
<feBlend mode="normal" in="SourceGraphic" in2="effect1_backgroundBlur_3787_2807" result="shape"/>
</filter>
<filter id="filter1_b_3787_2807" x="-20" y="226" width="563" height="226" filterUnits="userSpaceOnUse" color-interpolation-filters="sRGB">
<feFlood flood-opacity="0" result="BackgroundImageFix"/>
<feGaussianBlur in="BackgroundImageFix" stdDeviation="10"/>
<feComposite in2="SourceAlpha" operator="in" result="effect1_backgroundBlur_3787_2807"/>
<feBlend mode="normal" in="SourceGraphic" in2="effect1_backgroundBlur_3787_2807" result="shape"/>
</filter>
<linearGradient id="paint0_linear_3787_2807" x1="95.5" y1="3.72968e-07" x2="230.441" y2="272.78" gradientUnits="userSpaceOnUse">
<stop stop-color="#33622B"/>
<stop offset="0.53125" stop-color="#2D5B22" stop-opacity="0.51"/>
<stop offset="0.984375" stop-color="#829C39"/>
</linearGradient>
<linearGradient id="paint1_linear_3787_2807" x1="125.477" y1="246" x2="156.911" y2="448.255" gradientUnits="userSpaceOnUse">
<stop stop-color="#8D6E52"/>
<stop offset="0.53125" stop-color="#4A3420" stop-opacity="0.37"/>
<stop offset="0.984375" stop-color="#9C3951"/>
</linearGradient>
<linearGradient id="paint2_linear_3787_2807" x1="11.0001" y1="214.997" x2="523" y2="214.994" gradientUnits="userSpaceOnUse">
<stop stop-color="#FF8A8A"/>
<stop offset="1" stop-color="#FFC530"/>
</linearGradient>
<linearGradient id="paint3_linear_3787_2807" x1="201.5" y1="41.6716" x2="201.5" y2="125.423" gradientUnits="userSpaceOnUse">
<stop stop-color="#4C9A62"/>
<stop offset="1" stop-color="#0E4E57"/>
</linearGradient>
<linearGradient id="paint4_linear_3787_2807" x1="201.5" y1="307" x2="201.5" y2="390.751" gradientUnits="userSpaceOnUse">
<stop stop-color="#9A7B4C"/>
<stop offset="1" stop-color="#8A4219"/>
</linearGradient>
<linearGradient id="paint5_linear_3787_2807" x1="284.5" y1="41.6716" x2="284.5" y2="125.423" gradientUnits="userSpaceOnUse">
<stop stop-color="#4C9A62"/>
<stop offset="1" stop-color="#0E4E57"/>
</linearGradient>
<linearGradient id="paint6_linear_3787_2807" x1="284.5" y1="307" x2="284.5" y2="390.751" gradientUnits="userSpaceOnUse">
<stop stop-color="#9A7B4C"/>
<stop offset="1" stop-color="#8A4219"/>
</linearGradient>
<linearGradient id="paint7_linear_3787_2807" x1="346.5" y1="41.6716" x2="346.5" y2="125.423" gradientUnits="userSpaceOnUse">
<stop stop-color="#4C9A62"/>
<stop offset="1" stop-color="#0E4E57"/>
</linearGradient>
<linearGradient id="paint8_linear_3787_2807" x1="346.5" y1="307" x2="346.5" y2="390.751" gradientUnits="userSpaceOnUse">
<stop stop-color="#9A7B4C"/>
<stop offset="1" stop-color="#8A4219"/>
</linearGradient>
<linearGradient id="paint9_linear_3787_2807" x1="408.5" y1="41.6716" x2="408.5" y2="125.423" gradientUnits="userSpaceOnUse">
<stop stop-color="#4C9A62"/>
<stop offset="1" stop-color="#0E4E57"/>
</linearGradient>
<linearGradient id="paint10_linear_3787_2807" x1="408.5" y1="307" x2="408.5" y2="390.751" gradientUnits="userSpaceOnUse">
<stop stop-color="#9A7B4C"/>
<stop offset="1" stop-color="#8A4219"/>
</linearGradient>
</defs>
</svg>
