<svg width="12" height="12" viewBox="0 0 12 12" fill="none" xmlns="http://www.w3.org/2000/svg">
<path d="M4.5 1.5C4.64642 1.49986 4.78712 1.55682 4.89222 1.65877C4.99731 1.76072 5.0585 1.89964 5.0628 2.04599C5.0671 2.19235 5.01416 2.33461 4.91523 2.44256C4.8163 2.5505 4.67918 2.61561 4.533 2.62406L4.5 2.625H3C2.90539 2.62497 2.81427 2.6607 2.7449 2.72503C2.67553 2.78936 2.63303 2.87753 2.62594 2.97188L2.625 3V9C2.62497 9.09461 2.6607 9.18573 2.72503 9.2551C2.78936 9.32447 2.87753 9.36697 2.97188 9.37406L3 9.375H9C9.09461 9.37503 9.18573 9.3393 9.2551 9.27497C9.32447 9.21064 9.36697 9.12247 9.37406 9.02813L9.375 9V7.6875C9.37486 7.54108 9.43182 7.40038 9.53377 7.29528C9.63572 7.19019 9.77464 7.129 9.92099 7.1247C10.0674 7.1204 10.2096 7.17334 10.3176 7.27227C10.4255 7.3712 10.4906 7.50832 10.4991 7.6545L10.5 7.6875V9C10.5 9.38971 10.3483 9.76411 10.0771 10.0439C9.80587 10.3238 9.43639 10.4871 9.04688 10.4992L9 10.5H3C2.61029 10.5 2.23589 10.3483 1.95606 10.0771C1.67622 9.80587 1.51293 9.43639 1.50075 9.04688L1.5 9V3C1.5 2.6103 1.65168 2.23589 1.9229 1.95606C2.19413 1.67622 2.56361 1.51293 2.95312 1.50075L3 1.5H4.5ZM9 1.5C9.38971 1.5 9.76411 1.65168 10.0439 1.9229C10.3238 2.19413 10.4871 2.56361 10.4992 2.95313L10.5 3V4.875C10.5001 5.02142 10.4432 5.16212 10.3412 5.26722C10.2393 5.37231 10.1004 5.4335 9.95401 5.4378C9.80765 5.4421 9.66539 5.38916 9.55744 5.29023C9.4495 5.1913 9.38439 5.05418 9.37594 4.908L9.375 4.875V3.42038L4.89769 7.89788C4.79455 8.00162 4.65505 8.06109 4.50879 8.0637C4.36253 8.0663 4.221 8.01182 4.11424 7.91181C4.00748 7.8118 3.94387 7.67414 3.93692 7.52802C3.92997 7.3819 3.98021 7.23882 4.077 7.12913L4.10231 7.10231L8.57925 2.625H7.125C6.97858 2.62514 6.83788 2.56818 6.73278 2.46623C6.62769 2.36428 6.5665 2.22536 6.5622 2.07901C6.5579 1.93265 6.61084 1.79039 6.70977 1.68244C6.8087 1.5745 6.94582 1.50939 7.092 1.50094L7.125 1.5H9Z" fill="white"/>
</svg>
